<svg width="735" height="328" viewBox="0 0 735 328" fill="none" xmlns="http://www.w3.org/2000/svg">
<g clip-path="url(#clip0_1_9370)">
<g clip-path="url(#clip1_1_9370)">
<rect width="735" height="328" rx="2" fill="#B6091E"/>
<g filter="url(#filter0_f_1_9370)">
<ellipse cx="644.5" cy="315" rx="266.5" ry="287" fill="#FF6477"/>
</g>
<rect x="32" y="32" width="75" height="76" rx="2" fill="white"/>
<path d="M59.12 85.04C56.2933 85.04 54.0267 84.5067 52.32 83.44C50.6133 82.3733 49.3733 80.8267 48.6 78.8C47.8533 76.7467 47.48 74.2933 47.48 71.44C47.48 68.56 47.8533 66.1067 48.6 64.08C49.3733 62.0533 50.6133 60.5067 52.32 59.44C54.0267 58.3733 56.2933 57.84 59.12 57.84C61.9467 57.84 64.2133 58.3733 65.92 59.44C67.6267 60.5067 68.8533 62.0533 69.6 64.08C70.3733 66.1067 70.76 68.56 70.76 71.44C70.76 74.2933 70.3733 76.7467 69.6 78.8C68.8533 80.8267 67.6267 82.3733 65.92 83.44C64.2133 84.5067 61.9467 85.04 59.12 85.04ZM59.12 80.4C61.44 80.4 63.04 79.6267 63.92 78.08C64.8267 76.5333 65.28 74.32 65.28 71.44C65.28 68.56 64.8267 66.3467 63.92 64.8C63.04 63.2533 61.44 62.48 59.12 62.48C56.8 62.48 55.1867 63.2533 54.28 64.8C53.4 66.3467 52.96 68.56 52.96 71.44C52.96 74.32 53.4 76.5333 54.28 78.08C55.1867 79.6267 56.8 80.4 59.12 80.4ZM73.73 84V81.4C74.45 79.8533 75.3967 78.4667 76.57 77.24C77.7433 75.9867 79.0233 74.7467 80.41 73.52C81.45 72.5867 82.3033 71.8133 82.97 71.2C83.6367 70.5867 84.1567 70.04 84.53 69.56C84.9033 69.08 85.17 68.5867 85.33 68.08C85.49 67.5733 85.57 66.9467 85.57 66.2C85.57 63.72 83.9967 62.48 80.85 62.48C79.7833 62.48 78.7167 62.6 77.65 62.84C76.61 63.0533 75.61 63.3467 74.65 63.72V58.96C75.6633 58.6133 76.8367 58.3467 78.17 58.16C79.53 57.9467 80.8233 57.84 82.05 57.84C85.0367 57.84 87.2767 58.5867 88.77 60.08C90.29 61.5467 91.05 63.5467 91.05 66.08C91.05 67.84 90.61 69.3467 89.73 70.6C88.8767 71.8267 87.7567 73.04 86.37 74.24C85.2767 75.2 84.2367 76.1333 83.25 77.04C82.2633 77.92 81.4367 78.8533 80.77 79.84H91.29V84H73.73Z" fill="#011335"/>
<path d="M42.28 166.4C40.6267 166.4 39.08 166.28 37.64 166.04C36.2267 165.8 35 165.453 33.96 165V160.24C35.1333 160.72 36.4 161.107 37.76 161.4C39.12 161.693 40.4533 161.84 41.76 161.84C43.6267 161.84 45 161.667 45.88 161.32C46.76 160.973 47.2 160.187 47.2 158.96C47.2 158.187 47.0133 157.573 46.64 157.12C46.2667 156.667 45.6133 156.267 44.68 155.92C43.7733 155.547 42.48 155.133 40.8 154.68C38.1067 153.933 36.2133 153 35.12 151.88C34.0267 150.76 33.48 149.213 33.48 147.24C33.48 144.867 34.3467 143.04 36.08 141.76C37.8133 140.48 40.3333 139.84 43.64 139.84C45.1867 139.84 46.6267 139.947 47.96 140.16C49.2933 140.373 50.3733 140.627 51.2 140.92V145.68C49.0133 144.853 46.7333 144.44 44.36 144.44C42.68 144.44 41.36 144.627 40.4 145C39.44 145.347 38.96 146.093 38.96 147.24C38.96 147.907 39.1333 148.44 39.48 148.84C39.8267 149.24 40.4133 149.6 41.24 149.92C42.0933 150.24 43.28 150.6 44.8 151C46.9067 151.56 48.5333 152.227 49.68 153C50.8267 153.773 51.6133 154.653 52.04 155.64C52.4933 156.627 52.72 157.733 52.72 158.96C52.72 161.2 51.8667 163 50.16 164.36C48.4533 165.72 45.8267 166.4 42.28 166.4ZM63.4016 166.4C61.2149 166.4 59.5882 165.827 58.5216 164.68C57.4816 163.533 56.9616 161.973 56.9616 160V151.2H54.2816V147.04H56.9616V142.96L62.3616 141.36V147.04H67.1616L66.8416 151.2H62.3616V159.64C62.3616 160.68 62.6016 161.4 63.0816 161.8C63.5616 162.173 64.3082 162.36 65.3216 162.36C66.0682 162.36 66.8416 162.227 67.6416 161.96V165.68C67.0549 165.92 66.4149 166.093 65.7216 166.2C65.0282 166.333 64.2549 166.4 63.4016 166.4ZM76.3728 166.4C75.1728 166.4 74.0528 166.187 73.0128 165.76C71.9995 165.307 71.1728 164.653 70.5328 163.8C69.9195 162.92 69.6128 161.827 69.6128 160.52C69.6128 158.653 70.2661 157.16 71.5728 156.04C72.9061 154.92 74.8661 154.36 77.4528 154.36H83.0528V153.84C83.0528 152.667 82.7195 151.84 82.0528 151.36C81.4128 150.88 80.1061 150.64 78.1328 150.64C75.9728 150.64 73.8928 150.973 71.8928 151.64V147.84C72.7728 147.493 73.8395 147.213 75.0928 147C76.3728 146.76 77.7595 146.64 79.2528 146.64C82.1061 146.64 84.3061 147.227 85.8528 148.4C87.4261 149.547 88.2128 151.4 88.2128 153.96V166H83.5328L83.2528 164.28C82.5061 164.947 81.5861 165.467 80.4928 165.84C79.3995 166.213 78.0261 166.4 76.3728 166.4ZM77.8528 162.84C79.0528 162.84 80.0928 162.64 80.9728 162.24C81.8528 161.84 82.5461 161.333 83.0528 160.72V157.72H77.5728C75.4661 157.72 74.4128 158.587 74.4128 160.32C74.4128 162 75.5595 162.84 77.8528 162.84ZM93.5613 166V151.2H90.9213V147.04H93.5613V145.12C93.5613 143.147 94.1213 141.533 95.2413 140.28C96.3613 139.027 98.0146 138.4 100.201 138.4C101.081 138.4 101.868 138.467 102.561 138.6C103.255 138.733 103.895 138.92 104.481 139.16V142.88C104.081 142.747 103.695 142.64 103.321 142.56C102.948 142.48 102.535 142.44 102.081 142.44C100.935 142.44 100.121 142.653 99.6413 143.08C99.1879 143.48 98.9613 144.187 98.9613 145.2V147.04H103.761L103.521 151.2H98.9613V166H93.5613ZM106.803 166V151.2H104.163V147.04H106.803V145.12C106.803 143.147 107.363 141.533 108.483 140.28C109.603 139.027 111.257 138.4 113.443 138.4C114.323 138.4 115.11 138.467 115.803 138.6C116.497 138.733 117.137 138.92 117.723 139.16V142.88C117.323 142.747 116.937 142.64 116.563 142.56C116.19 142.48 115.777 142.44 115.323 142.44C114.177 142.44 113.363 142.653 112.883 143.08C112.43 143.48 112.203 144.187 112.203 145.2V147.04H117.003L116.763 151.2H112.203V166H106.803ZM129.436 166V140.24H141.516C143.543 140.24 145.196 140.627 146.476 141.4C147.783 142.173 148.756 143.227 149.396 144.56C150.036 145.893 150.356 147.413 150.356 149.12C150.356 150.853 149.983 152.387 149.236 153.72C148.516 155.053 147.476 156.093 146.116 156.84C144.783 157.56 143.196 157.92 141.356 157.92H134.836V166H129.436ZM134.836 153.64H140.236C141.783 153.64 142.943 153.24 143.716 152.44C144.516 151.613 144.916 150.507 144.916 149.12C144.916 147.627 144.543 146.493 143.796 145.72C143.05 144.92 141.93 144.52 140.436 144.52H134.836V153.64ZM153.343 166V147.04H158.343L158.583 149C159.436 148.467 160.489 147.987 161.743 147.56C163.023 147.107 164.276 146.8 165.503 146.64V150.72C164.783 150.827 163.996 150.987 163.143 151.2C162.289 151.413 161.476 151.653 160.703 151.92C159.929 152.187 159.276 152.467 158.743 152.76V166H153.343ZM177.363 166.4C174.083 166.4 171.483 165.587 169.563 163.96C167.643 162.307 166.683 159.813 166.683 156.48C166.683 153.467 167.483 151.08 169.083 149.32C170.71 147.533 173.123 146.64 176.323 146.64C179.256 146.64 181.496 147.413 183.043 148.96C184.616 150.48 185.403 152.48 185.403 154.96V158.4H171.683C171.976 159.92 172.67 160.96 173.763 161.52C174.883 162.08 176.456 162.36 178.483 162.36C179.496 162.36 180.523 162.267 181.563 162.08C182.63 161.893 183.536 161.653 184.283 161.36V165.2C183.403 165.6 182.376 165.893 181.203 166.08C180.03 166.293 178.75 166.4 177.363 166.4ZM171.683 155.08H180.683V154.04C180.683 152.947 180.363 152.093 179.723 151.48C179.083 150.84 178.003 150.52 176.483 150.52C174.696 150.52 173.443 150.88 172.723 151.6C172.03 152.32 171.683 153.48 171.683 155.08ZM195.648 166.4C194.234 166.4 192.888 166.293 191.608 166.08C190.328 165.893 189.301 165.653 188.528 165.36V160.88C189.461 161.253 190.514 161.547 191.688 161.76C192.861 161.947 193.941 162.04 194.928 162.04C196.261 162.04 197.194 161.96 197.728 161.8C198.288 161.64 198.568 161.28 198.568 160.72C198.568 160.08 198.141 159.613 197.288 159.32C196.461 159.027 195.221 158.613 193.568 158.08C191.834 157.493 190.501 156.787 189.568 155.96C188.634 155.133 188.168 153.907 188.168 152.28C188.168 150.467 188.821 149.08 190.128 148.12C191.461 147.133 193.594 146.64 196.528 146.64C197.701 146.64 198.808 146.733 199.848 146.92C200.888 147.08 201.768 147.28 202.488 147.52V151.96C201.768 151.613 200.941 151.36 200.008 151.2C199.074 151.013 198.208 150.92 197.408 150.92C196.261 150.92 195.341 151 194.648 151.16C193.981 151.32 193.648 151.667 193.648 152.2C193.648 152.787 194.008 153.2 194.728 153.44C195.474 153.68 196.621 154.04 198.168 154.52C199.688 154.973 200.874 155.467 201.728 156C202.581 156.533 203.181 157.173 203.528 157.92C203.874 158.64 204.048 159.547 204.048 160.64C204.048 164.48 201.248 166.4 195.648 166.4ZM213.46 166.4C212.047 166.4 210.7 166.293 209.42 166.08C208.14 165.893 207.113 165.653 206.34 165.36V160.88C207.273 161.253 208.327 161.547 209.5 161.76C210.673 161.947 211.753 162.04 212.74 162.04C214.073 162.04 215.007 161.96 215.54 161.8C216.1 161.64 216.38 161.28 216.38 160.72C216.38 160.08 215.953 159.613 215.1 159.32C214.273 159.027 213.033 158.613 211.38 158.08C209.647 157.493 208.313 156.787 207.38 155.96C206.447 155.133 205.98 153.907 205.98 152.28C205.98 150.467 206.633 149.08 207.94 148.12C209.273 147.133 211.407 146.64 214.34 146.64C215.513 146.64 216.62 146.733 217.66 146.92C218.7 147.08 219.58 147.28 220.3 147.52V151.96C219.58 151.613 218.753 151.36 217.82 151.2C216.887 151.013 216.02 150.92 215.22 150.92C214.073 150.92 213.153 151 212.46 151.16C211.793 151.32 211.46 151.667 211.46 152.2C211.46 152.787 211.82 153.2 212.54 153.44C213.287 153.68 214.433 154.04 215.98 154.52C217.5 154.973 218.687 155.467 219.54 156C220.393 156.533 220.993 157.173 221.34 157.92C221.687 158.64 221.86 159.547 221.86 160.64C221.86 164.48 219.06 166.4 213.46 166.4ZM241.917 166.4C239.731 166.4 238.104 165.827 237.037 164.68C235.997 163.533 235.477 161.973 235.477 160V151.2H232.797V147.04H235.477V142.96L240.877 141.36V147.04H245.677L245.357 151.2H240.877V159.64C240.877 160.68 241.117 161.4 241.597 161.8C242.077 162.173 242.824 162.36 243.837 162.36C244.584 162.36 245.357 162.227 246.157 161.96V165.68C245.571 165.92 244.931 166.093 244.237 166.2C243.544 166.333 242.771 166.4 241.917 166.4ZM248.928 166V139.04H254.328V148.64C255.102 148.053 256.048 147.573 257.168 147.2C258.288 146.827 259.502 146.64 260.808 146.64C263.315 146.64 265.142 147.227 266.288 148.4C267.435 149.573 268.008 151.387 268.008 153.84V166H262.608V154.12C262.608 152.84 262.342 151.933 261.808 151.4C261.302 150.867 260.342 150.6 258.928 150.6C258.102 150.6 257.262 150.787 256.408 151.16C255.582 151.533 254.888 152 254.328 152.56V166H248.928ZM281.66 166.4C278.38 166.4 275.78 165.587 273.86 163.96C271.94 162.307 270.98 159.813 270.98 156.48C270.98 153.467 271.78 151.08 273.38 149.32C275.007 147.533 277.42 146.64 280.62 146.64C283.553 146.64 285.793 147.413 287.34 148.96C288.913 150.48 289.7 152.48 289.7 154.96V158.4H275.98C276.273 159.92 276.967 160.96 278.06 161.52C279.18 162.08 280.753 162.36 282.78 162.36C283.793 162.36 284.82 162.267 285.86 162.08C286.927 161.893 287.833 161.653 288.58 161.36V165.2C287.7 165.6 286.673 165.893 285.5 166.08C284.327 166.293 283.047 166.4 281.66 166.4ZM275.98 155.08H284.98V154.04C284.98 152.947 284.66 152.093 284.02 151.48C283.38 150.84 282.3 150.52 280.78 150.52C278.993 150.52 277.74 150.88 277.02 151.6C276.327 152.32 275.98 153.48 275.98 155.08ZM302.249 166V140.24H315.289C317.875 140.24 319.795 140.853 321.049 142.08C322.329 143.28 322.969 144.987 322.969 147.2C322.969 148.587 322.702 149.747 322.169 150.68C321.635 151.587 320.915 152.293 320.009 152.8C321.209 153.173 322.155 153.8 322.849 154.68C323.569 155.533 323.929 156.8 323.929 158.48C323.929 160.96 323.222 162.84 321.809 164.12C320.422 165.373 318.409 166 315.769 166H302.249ZM307.649 150.92H314.289C315.595 150.92 316.529 150.64 317.089 150.08C317.649 149.493 317.929 148.68 317.929 147.64C317.929 146.493 317.635 145.64 317.049 145.08C316.489 144.52 315.435 144.24 313.889 144.24H307.649V150.92ZM307.649 162.04H314.489C315.849 162.04 316.849 161.76 317.489 161.2C318.129 160.64 318.449 159.653 318.449 158.24C318.449 157.093 318.129 156.24 317.489 155.68C316.875 155.12 315.755 154.84 314.129 154.84H307.649V162.04ZM334.678 166.4C332.412 166.4 330.638 165.773 329.358 164.52C328.105 163.24 327.478 161.373 327.478 158.92V147.04H332.878V158.8C332.878 160.08 333.185 161.013 333.798 161.6C334.412 162.16 335.332 162.44 336.558 162.44C337.492 162.44 338.345 162.253 339.118 161.88C339.918 161.507 340.598 161.04 341.158 160.48V147.04H346.558V166H341.558L341.358 164.2C340.558 164.84 339.612 165.373 338.518 165.8C337.452 166.2 336.172 166.4 334.678 166.4ZM358.675 166.4C356.488 166.4 354.862 165.827 353.795 164.68C352.755 163.533 352.235 161.973 352.235 160V151.2H349.555V147.04H352.235V142.96L357.635 141.36V147.04H362.435L362.115 151.2H357.635V159.64C357.635 160.68 357.875 161.4 358.355 161.8C358.835 162.173 359.582 162.36 360.595 162.36C361.342 162.36 362.115 162.227 362.915 161.96V165.68C362.328 165.92 361.688 166.093 360.995 166.2C360.302 166.333 359.528 166.4 358.675 166.4ZM373.206 166.4C371.02 166.4 369.393 165.827 368.326 164.68C367.286 163.533 366.766 161.973 366.766 160V151.2H364.086V147.04H366.766V142.96L372.166 141.36V147.04H376.966L376.646 151.2H372.166V159.64C372.166 160.68 372.406 161.4 372.886 161.8C373.366 162.173 374.113 162.36 375.126 162.36C375.873 162.36 376.646 162.227 377.446 161.96V165.68C376.86 165.92 376.22 166.093 375.526 166.2C374.833 166.333 374.06 166.4 373.206 166.4ZM389.697 166.4C386.151 166.4 383.551 165.547 381.898 163.84C380.244 162.107 379.418 159.667 379.418 156.52C379.418 153.373 380.244 150.947 381.898 149.24C383.578 147.507 386.178 146.64 389.697 146.64C393.244 146.64 395.844 147.507 397.498 149.24C399.178 150.947 400.018 153.373 400.018 156.52C400.018 159.667 399.191 162.107 397.538 163.84C395.884 165.547 393.271 166.4 389.697 166.4ZM389.697 161.8C391.431 161.8 392.671 161.413 393.418 160.64C394.164 159.84 394.538 158.467 394.538 156.52C394.538 154.573 394.164 153.213 393.418 152.44C392.671 151.64 391.431 151.24 389.697 151.24C387.991 151.24 386.764 151.64 386.018 152.44C385.271 153.213 384.898 154.573 384.898 156.52C384.898 158.467 385.271 159.84 386.018 160.64C386.764 161.413 387.991 161.8 389.697 161.8ZM403.772 166V147.04H408.772L408.972 148.84C409.746 148.253 410.719 147.747 411.892 147.32C413.092 146.867 414.346 146.64 415.652 146.64C418.159 146.64 419.986 147.227 421.132 148.4C422.279 149.573 422.852 151.387 422.852 153.84V166H417.452V154.12C417.452 152.84 417.186 151.933 416.652 151.4C416.146 150.867 415.186 150.6 413.772 150.6C412.946 150.6 412.106 150.787 411.252 151.16C410.426 151.533 409.732 152 409.172 152.56V166H403.772Z" fill="white"/>
<path d="M38.216 214.24C36.296 214.24 34.744 214 33.56 213.52V211.768C34.232 212.024 34.944 212.224 35.696 212.368C36.464 212.496 37.248 212.56 38.048 212.56C39.424 212.56 40.456 212.376 41.144 212.008C41.832 211.624 42.176 210.944 42.176 209.968C42.176 209.36 42.032 208.88 41.744 208.528C41.472 208.16 41.016 207.856 40.376 207.616C39.736 207.36 38.88 207.104 37.808 206.848C36.112 206.432 34.92 205.896 34.232 205.24C33.544 204.568 33.2 203.672 33.2 202.552C33.2 201.24 33.672 200.208 34.616 199.456C35.56 198.688 37 198.304 38.936 198.304C39.832 198.304 40.664 198.368 41.432 198.496C42.2 198.624 42.792 198.76 43.208 198.904V200.632C42.632 200.424 42.008 200.264 41.336 200.152C40.664 200.04 39.968 199.984 39.248 199.984C37.936 199.984 36.928 200.176 36.224 200.56C35.52 200.944 35.168 201.608 35.168 202.552C35.168 203.08 35.288 203.512 35.528 203.848C35.784 204.168 36.208 204.448 36.8 204.688C37.392 204.912 38.216 205.152 39.272 205.408C40.536 205.712 41.52 206.08 42.224 206.512C42.928 206.928 43.424 207.424 43.712 208C44 208.576 44.144 209.232 44.144 209.968C44.144 211.328 43.648 212.384 42.656 213.136C41.664 213.872 40.184 214.24 38.216 214.24ZM48.0738 218.224C47.3218 218.224 46.6658 218.12 46.1058 217.912V216.328C46.3778 216.424 46.6258 216.488 46.8498 216.52C47.0898 216.552 47.3298 216.568 47.5698 216.568C48.1138 216.568 48.5378 216.472 48.8418 216.28C49.1618 216.088 49.4418 215.792 49.6818 215.392C49.9218 215.008 50.1858 214.504 50.4738 213.88L45.4578 202.624H47.4978L51.4578 211.792L55.5378 202.624H57.5538L52.7778 213.496C52.3778 214.408 51.9698 215.216 51.5538 215.92C51.1378 216.64 50.6578 217.2 50.1138 217.6C49.5698 218.016 48.8898 218.224 48.0738 218.224ZM63.5313 214.24C61.9313 214.24 60.6753 213.8 59.7633 212.92C58.8513 212.024 58.3953 210.544 58.3953 208.48C58.3953 206.432 58.8673 204.904 59.8113 203.896C60.7713 202.888 62.0513 202.384 63.6513 202.384C65.0753 202.384 66.3073 202.744 67.3473 203.464V197.824H69.3153V214H67.6353L67.4913 212.8C66.9633 213.296 66.3793 213.664 65.7393 213.904C65.1153 214.128 64.3793 214.24 63.5313 214.24ZM64.0353 212.656C64.6913 212.656 65.2993 212.544 65.8593 212.32C66.4193 212.096 66.9153 211.752 67.3473 211.288V205.096C66.9473 204.744 66.4753 204.472 65.9313 204.28C65.3873 204.072 64.7713 203.968 64.0833 203.968C62.8193 203.968 61.8833 204.336 61.2753 205.072C60.6673 205.792 60.3633 206.928 60.3633 208.48C60.3633 209.968 60.6433 211.04 61.2033 211.696C61.7633 212.336 62.7073 212.656 64.0353 212.656ZM72.68 214V202.624H74.456L74.576 203.92C75.12 203.472 75.752 203.104 76.472 202.816C77.208 202.528 78.048 202.384 78.992 202.384C80.432 202.384 81.48 202.72 82.136 203.392C82.792 204.064 83.12 205.12 83.12 206.56V214H81.152V206.632C81.152 205.64 80.952 204.952 80.552 204.568C80.152 204.168 79.384 203.968 78.248 203.968C77.544 203.968 76.88 204.096 76.256 204.352C75.632 204.608 75.096 204.96 74.648 205.408V214H72.68ZM91.5845 214.24C89.5525 214.24 88.0325 213.752 87.0245 212.776C86.0165 211.8 85.5125 210.296 85.5125 208.264C85.5125 206.44 85.9445 205.008 86.8085 203.968C87.6885 202.912 89.0725 202.384 90.9605 202.384C92.0805 202.384 93.0005 202.592 93.7205 203.008C94.4565 203.408 95.0005 203.968 95.3525 204.688C95.7205 205.392 95.9045 206.192 95.9045 207.088V209.224H87.4805C87.5445 210.088 87.7285 210.768 88.0325 211.264C88.3525 211.76 88.8245 212.12 89.4485 212.344C90.0885 212.552 90.9285 212.656 91.9685 212.656C93.1365 212.656 94.2085 212.456 95.1845 212.056V213.592C94.6885 213.8 94.1285 213.96 93.5045 214.072C92.8965 214.184 92.2565 214.24 91.5845 214.24ZM87.4805 207.808H94.1525V206.872C94.1525 205.944 93.9045 205.232 93.4085 204.736C92.9285 204.224 92.1285 203.968 91.0085 203.968C89.6485 203.968 88.7205 204.288 88.2245 204.928C87.7285 205.568 87.4805 206.528 87.4805 207.808ZM99.6129 218.224C98.8609 218.224 98.2049 218.12 97.6449 217.912V216.328C97.9169 216.424 98.1649 216.488 98.3889 216.52C98.6289 216.552 98.8689 216.568 99.1089 216.568C99.6529 216.568 100.077 216.472 100.381 216.28C100.701 216.088 100.981 215.792 101.221 215.392C101.461 215.008 101.725 214.504 102.013 213.88L96.9969 202.624H99.0369L102.997 211.792L107.077 202.624H109.093L104.317 213.496C103.917 214.408 103.509 215.216 103.093 215.92C102.677 216.64 102.197 217.2 101.653 217.6C101.109 218.016 100.429 218.224 99.6129 218.224ZM117.024 214V198.544H118.992V212.464H127.224V214H117.024ZM133.997 214.24C132.013 214.24 130.565 213.736 129.653 212.728C128.757 211.704 128.309 210.232 128.309 208.312C128.309 206.408 128.765 204.944 129.677 203.92C130.589 202.896 132.029 202.384 133.997 202.384C135.965 202.384 137.405 202.896 138.317 203.92C139.229 204.944 139.685 206.408 139.685 208.312C139.685 210.232 139.237 211.704 138.341 212.728C137.445 213.736 135.997 214.24 133.997 214.24ZM133.997 212.56C135.357 212.56 136.317 212.224 136.877 211.552C137.437 210.864 137.717 209.784 137.717 208.312C137.717 206.84 137.429 205.768 136.853 205.096C136.293 204.408 135.341 204.064 133.997 204.064C132.653 204.064 131.693 204.408 131.117 205.096C130.557 205.768 130.277 206.84 130.277 208.312C130.277 209.784 130.557 210.864 131.117 211.552C131.677 212.224 132.637 212.56 133.997 212.56ZM146.723 214.24C145.603 214.24 144.755 213.944 144.179 213.352C143.619 212.744 143.339 211.904 143.339 210.832V204.184H141.611V202.624H143.339V199.816L145.307 199.216V202.624H148.451L148.331 204.184H145.307V210.736C145.307 211.424 145.459 211.92 145.763 212.224C146.083 212.512 146.627 212.656 147.395 212.656C147.811 212.656 148.267 212.576 148.763 212.416V213.904C148.171 214.128 147.491 214.24 146.723 214.24ZM155.184 214.24C154.064 214.24 153.216 213.944 152.64 213.352C152.08 212.744 151.8 211.904 151.8 210.832V204.184H150.072V202.624H151.8V199.816L153.768 199.216V202.624H156.912L156.792 204.184H153.768V210.736C153.768 211.424 153.92 211.92 154.224 212.224C154.544 212.512 155.088 212.656 155.856 212.656C156.272 212.656 156.728 212.576 157.224 212.416V213.904C156.632 214.128 155.952 214.24 155.184 214.24ZM164.701 214.24C162.717 214.24 161.269 213.736 160.357 212.728C159.461 211.704 159.013 210.232 159.013 208.312C159.013 206.408 159.469 204.944 160.381 203.92C161.293 202.896 162.733 202.384 164.701 202.384C166.669 202.384 168.109 202.896 169.021 203.92C169.933 204.944 170.389 206.408 170.389 208.312C170.389 210.232 169.941 211.704 169.045 212.728C168.149 213.736 166.701 214.24 164.701 214.24ZM164.701 212.56C166.061 212.56 167.021 212.224 167.581 211.552C168.141 210.864 168.421 209.784 168.421 208.312C168.421 206.84 168.133 205.768 167.557 205.096C166.997 204.408 166.045 204.064 164.701 204.064C163.357 204.064 162.397 204.408 161.821 205.096C161.261 205.768 160.98 206.84 160.98 208.312C160.98 209.784 161.261 210.864 161.821 211.552C162.381 212.224 163.341 212.56 164.701 212.56ZM182.381 214.24C181.645 214.24 180.941 214.192 180.269 214.096C179.613 214 179.061 213.872 178.613 213.712V211.984C179.157 212.176 179.725 212.32 180.317 212.416C180.925 212.512 181.525 212.56 182.117 212.56C183.125 212.56 183.845 212.456 184.277 212.248C184.709 212.024 184.925 211.616 184.925 211.024C184.925 210.592 184.805 210.264 184.565 210.04C184.341 209.816 183.989 209.616 183.509 209.44C183.045 209.264 182.445 209.056 181.709 208.816C181.053 208.592 180.469 208.36 179.957 208.12C179.445 207.88 179.045 207.56 178.757 207.16C178.469 206.744 178.325 206.192 178.325 205.504C178.325 204.496 178.677 203.728 179.381 203.2C180.085 202.656 181.221 202.384 182.789 202.384C183.397 202.384 183.981 202.432 184.541 202.528C185.101 202.608 185.589 202.712 186.005 202.84V204.568C184.997 204.232 184.029 204.064 183.101 204.064C182.109 204.064 181.389 204.168 180.941 204.376C180.509 204.568 180.293 204.936 180.293 205.48C180.293 205.848 180.389 206.144 180.581 206.368C180.789 206.576 181.101 206.76 181.517 206.92C181.949 207.064 182.501 207.248 183.173 207.472C184.053 207.744 184.765 208.024 185.309 208.312C185.853 208.6 186.253 208.952 186.509 209.368C186.765 209.784 186.893 210.328 186.893 211C186.893 212.12 186.501 212.944 185.717 213.472C184.933 213.984 183.821 214.24 182.381 214.24ZM193.574 214.24C192.454 214.24 191.606 213.944 191.03 213.352C190.47 212.744 190.19 211.904 190.19 210.832V204.184H188.462V202.624H190.19V199.816L192.158 199.216V202.624H195.302L195.182 204.184H192.158V210.736C192.158 211.424 192.31 211.92 192.614 212.224C192.934 212.512 193.478 212.656 194.246 212.656C194.662 212.656 195.118 212.576 195.614 212.416V213.904C195.022 214.128 194.342 214.24 193.574 214.24ZM201.411 214.24C200.691 214.24 200.027 214.112 199.419 213.856C198.811 213.6 198.323 213.224 197.955 212.728C197.587 212.216 197.403 211.576 197.403 210.808C197.403 209.768 197.747 208.92 198.435 208.264C199.123 207.592 200.243 207.256 201.795 207.256H205.755V206.56C205.755 205.936 205.667 205.44 205.491 205.072C205.331 204.704 205.019 204.44 204.555 204.28C204.091 204.12 203.411 204.04 202.515 204.04C201.827 204.04 201.163 204.096 200.523 204.208C199.883 204.32 199.283 204.472 198.723 204.664V203.032C199.235 202.84 199.835 202.688 200.523 202.576C201.227 202.448 201.979 202.384 202.779 202.384C204.395 202.384 205.603 202.712 206.403 203.368C207.219 204.024 207.627 205.088 207.627 206.56V214H205.971L205.827 212.704C205.331 213.216 204.731 213.6 204.027 213.856C203.323 214.112 202.451 214.24 201.411 214.24ZM201.915 212.632C202.747 212.632 203.483 212.488 204.123 212.2C204.763 211.896 205.307 211.488 205.755 210.976V208.768H201.843C200.947 208.768 200.307 208.936 199.923 209.272C199.539 209.608 199.347 210.12 199.347 210.808C199.347 211.496 199.579 211.976 200.043 212.248C200.507 212.504 201.131 212.632 201.915 212.632ZM211.612 214V204.184H209.908V202.624H211.612V200.968C211.612 199.88 211.908 199.024 212.5 198.4C213.108 197.76 213.996 197.44 215.164 197.44C215.58 197.44 215.956 197.472 216.292 197.536C216.644 197.6 216.964 197.688 217.252 197.8V199.288C216.756 199.112 216.228 199.024 215.668 199.024C214.852 199.024 214.3 199.176 214.012 199.48C213.724 199.768 213.58 200.264 213.58 200.968V202.624H216.652L216.556 204.184H213.58V214H211.612ZM219.135 214V204.184H217.431V202.624H219.135V200.968C219.135 199.88 219.431 199.024 220.023 198.4C220.631 197.76 221.519 197.44 222.687 197.44C223.103 197.44 223.479 197.472 223.815 197.536C224.167 197.6 224.487 197.688 224.775 197.8V199.288C224.279 199.112 223.751 199.024 223.191 199.024C222.375 199.024 221.823 199.176 221.535 199.48C221.247 199.768 221.103 200.264 221.103 200.968V202.624H224.175L224.079 204.184H221.103V214H219.135ZM234.903 214L231.927 202.624H233.895L236.127 211.768L238.671 203.944V202.624H240.183L242.991 211.768L245.223 202.624H247.191L244.215 214H242.247L239.583 205.744L236.871 214H234.903ZM250.315 199.96V198.16H252.499V199.96H250.315ZM250.507 214V204.184H248.755L248.947 202.624H252.475V214H250.507ZM258.34 214.24C257.572 214.24 256.964 214.04 256.516 213.64C256.084 213.224 255.868 212.528 255.868 211.552V197.824H257.836V211.336C257.836 211.816 257.916 212.144 258.076 212.32C258.236 212.496 258.484 212.584 258.82 212.584C259.188 212.584 259.548 212.536 259.9 212.44V214C259.644 214.096 259.388 214.16 259.132 214.192C258.876 214.224 258.612 214.24 258.34 214.24ZM264.035 214.24C263.267 214.24 262.659 214.04 262.211 213.64C261.779 213.224 261.563 212.528 261.563 211.552V197.824H263.531V211.336C263.531 211.816 263.611 212.144 263.771 212.32C263.931 212.496 264.179 212.584 264.515 212.584C264.883 212.584 265.243 212.536 265.595 212.44V214C265.339 214.096 265.083 214.16 264.827 214.192C264.571 214.224 264.307 214.24 264.035 214.24ZM273.399 219.184V202.624H275.079L275.223 203.824C275.751 203.328 276.327 202.968 276.951 202.744C277.591 202.504 278.335 202.384 279.183 202.384C280.783 202.384 282.039 202.832 282.951 203.728C283.863 204.608 284.319 206.08 284.319 208.144C284.319 210.192 283.863 211.72 282.951 212.728C282.039 213.736 280.775 214.24 279.159 214.24C277.671 214.24 276.407 213.88 275.367 213.16V219.184H273.399ZM278.631 212.656C279.911 212.656 280.847 212.296 281.439 211.576C282.047 210.84 282.351 209.696 282.351 208.144C282.351 206.656 282.071 205.592 281.511 204.952C280.951 204.296 280.007 203.968 278.679 203.968C278.023 203.968 277.415 204.08 276.855 204.304C276.295 204.528 275.799 204.872 275.367 205.336V211.528C275.767 211.88 276.239 212.16 276.783 212.368C277.327 212.56 277.943 212.656 278.631 212.656ZM287.203 214V202.624H288.979L289.123 204.064C289.683 203.696 290.339 203.36 291.091 203.056C291.859 202.752 292.611 202.528 293.347 202.384V203.92C292.899 204.016 292.411 204.152 291.883 204.328C291.355 204.488 290.851 204.672 290.371 204.88C289.891 205.088 289.491 205.304 289.171 205.528V214H287.203ZM300.624 214.24C298.592 214.24 297.072 213.752 296.064 212.776C295.056 211.8 294.552 210.296 294.552 208.264C294.552 206.44 294.984 205.008 295.848 203.968C296.728 202.912 298.112 202.384 300 202.384C301.12 202.384 302.04 202.592 302.76 203.008C303.496 203.408 304.04 203.968 304.392 204.688C304.76 205.392 304.944 206.192 304.944 207.088V209.224H296.52C296.584 210.088 296.768 210.768 297.072 211.264C297.392 211.76 297.864 212.12 298.488 212.344C299.128 212.552 299.968 212.656 301.008 212.656C302.176 212.656 303.248 212.456 304.224 212.056V213.592C303.728 213.8 303.168 213.96 302.544 214.072C301.936 214.184 301.296 214.24 300.624 214.24ZM296.52 207.808H303.192V206.872C303.192 205.944 302.944 205.232 302.448 204.736C301.968 204.224 301.168 203.968 300.048 203.968C298.688 203.968 297.76 204.288 297.264 204.928C296.768 205.568 296.52 206.528 296.52 207.808ZM311.287 214.24C310.551 214.24 309.847 214.192 309.175 214.096C308.519 214 307.967 213.872 307.519 213.712V211.984C308.063 212.176 308.631 212.32 309.223 212.416C309.831 212.512 310.431 212.56 311.023 212.56C312.031 212.56 312.751 212.456 313.183 212.248C313.615 212.024 313.831 211.616 313.831 211.024C313.831 210.592 313.711 210.264 313.471 210.04C313.247 209.816 312.895 209.616 312.415 209.44C311.951 209.264 311.351 209.056 310.615 208.816C309.959 208.592 309.375 208.36 308.863 208.12C308.351 207.88 307.951 207.56 307.663 207.16C307.375 206.744 307.231 206.192 307.231 205.504C307.231 204.496 307.583 203.728 308.287 203.2C308.991 202.656 310.127 202.384 311.695 202.384C312.303 202.384 312.887 202.432 313.447 202.528C314.007 202.608 314.495 202.712 314.911 202.84V204.568C313.903 204.232 312.935 204.064 312.007 204.064C311.015 204.064 310.295 204.168 309.847 204.376C309.415 204.568 309.199 204.936 309.199 205.48C309.199 205.848 309.295 206.144 309.487 206.368C309.695 206.576 310.007 206.76 310.423 206.92C310.855 207.064 311.407 207.248 312.079 207.472C312.959 207.744 313.671 208.024 314.215 208.312C314.759 208.6 315.159 208.952 315.415 209.368C315.671 209.784 315.799 210.328 315.799 211C315.799 212.12 315.407 212.944 314.623 213.472C313.839 213.984 312.727 214.24 311.287 214.24ZM321.647 214.24C320.911 214.24 320.207 214.192 319.535 214.096C318.879 214 318.327 213.872 317.879 213.712V211.984C318.423 212.176 318.991 212.32 319.583 212.416C320.191 212.512 320.791 212.56 321.383 212.56C322.391 212.56 323.111 212.456 323.543 212.248C323.975 212.024 324.191 211.616 324.191 211.024C324.191 210.592 324.071 210.264 323.831 210.04C323.607 209.816 323.255 209.616 322.775 209.44C322.311 209.264 321.711 209.056 320.975 208.816C320.319 208.592 319.735 208.36 319.223 208.12C318.711 207.88 318.311 207.56 318.023 207.16C317.735 206.744 317.591 206.192 317.591 205.504C317.591 204.496 317.943 203.728 318.647 203.2C319.351 202.656 320.487 202.384 322.055 202.384C322.663 202.384 323.247 202.432 323.807 202.528C324.367 202.608 324.855 202.712 325.271 202.84V204.568C324.263 204.232 323.295 204.064 322.367 204.064C321.375 204.064 320.655 204.168 320.207 204.376C319.775 204.568 319.559 204.936 319.559 205.48C319.559 205.848 319.655 206.144 319.847 206.368C320.055 206.576 320.367 206.76 320.783 206.92C321.215 207.064 321.767 207.248 322.439 207.472C323.319 207.744 324.031 208.024 324.575 208.312C325.119 208.6 325.519 208.952 325.775 209.368C326.031 209.784 326.159 210.328 326.159 211C326.159 212.12 325.767 212.944 324.983 213.472C324.199 213.984 323.087 214.24 321.647 214.24ZM338.723 214.24C337.603 214.24 336.755 213.944 336.179 213.352C335.619 212.744 335.339 211.904 335.339 210.832V204.184H333.611V202.624H335.339V199.816L337.307 199.216V202.624H340.451L340.331 204.184H337.307V210.736C337.307 211.424 337.459 211.92 337.763 212.224C338.083 212.512 338.627 212.656 339.395 212.656C339.811 212.656 340.267 212.576 340.763 212.416V213.904C340.171 214.128 339.491 214.24 338.723 214.24ZM343.032 214V197.824H345V203.848C345.528 203.416 346.144 203.064 346.848 202.792C347.568 202.52 348.4 202.384 349.344 202.384C350.72 202.384 351.752 202.72 352.44 203.392C353.128 204.064 353.472 205.12 353.472 206.56V214H351.504V206.632C351.504 205.64 351.28 204.952 350.832 204.568C350.4 204.168 349.68 203.968 348.672 203.968C348.032 203.968 347.368 204.112 346.68 204.4C346.008 204.672 345.448 205.032 345 205.48V214H343.032ZM361.936 214.24C359.904 214.24 358.384 213.752 357.376 212.776C356.368 211.8 355.864 210.296 355.864 208.264C355.864 206.44 356.296 205.008 357.16 203.968C358.04 202.912 359.424 202.384 361.312 202.384C362.432 202.384 363.352 202.592 364.072 203.008C364.808 203.408 365.352 203.968 365.704 204.688C366.072 205.392 366.256 206.192 366.256 207.088V209.224H357.832C357.896 210.088 358.08 210.768 358.384 211.264C358.704 211.76 359.176 212.12 359.8 212.344C360.44 212.552 361.28 212.656 362.32 212.656C363.488 212.656 364.56 212.456 365.536 212.056V213.592C365.04 213.8 364.48 213.96 363.856 214.072C363.248 214.184 362.608 214.24 361.936 214.24ZM357.832 207.808H364.504V206.872C364.504 205.944 364.256 205.232 363.76 204.736C363.28 204.224 362.48 203.968 361.36 203.968C360 203.968 359.072 204.288 358.576 204.928C358.08 205.568 357.832 206.528 357.832 207.808ZM380.456 214.24C379.608 214.24 378.864 214.128 378.224 213.904C377.6 213.664 377.024 213.296 376.496 212.8L376.352 214H374.672V197.824H376.64V203.464C377.68 202.744 378.944 202.384 380.432 202.384C382.048 202.384 383.312 202.848 384.224 203.776C385.136 204.688 385.592 206.168 385.592 208.216C385.592 210.28 385.136 211.8 384.224 212.776C383.312 213.752 382.056 214.24 380.456 214.24ZM379.952 212.656C381.28 212.656 382.224 212.288 382.784 211.552C383.344 210.816 383.624 209.704 383.624 208.216C383.624 206.664 383.32 205.568 382.712 204.928C382.12 204.288 381.184 203.968 379.904 203.968C379.216 203.968 378.6 204.072 378.056 204.28C377.512 204.472 377.04 204.744 376.64 205.096V211.288C377.072 211.752 377.568 212.096 378.128 212.32C378.688 212.544 379.296 212.656 379.952 212.656ZM392.485 214.24C391.125 214.24 390.093 213.864 389.389 213.112C388.701 212.36 388.357 211.264 388.357 209.824V202.624H390.325V209.896C390.325 210.84 390.557 211.536 391.021 211.984C391.501 212.432 392.237 212.656 393.229 212.656C393.933 212.656 394.597 212.528 395.221 212.272C395.845 212.016 396.381 211.664 396.829 211.216V202.624H398.797V214H397.021L396.901 212.704C396.357 213.152 395.709 213.52 394.957 213.808C394.205 214.096 393.381 214.24 392.485 214.24ZM406.316 214.24C405.196 214.24 404.348 213.944 403.772 213.352C403.212 212.744 402.932 211.904 402.932 210.832V204.184H401.204V202.624H402.932V199.816L404.9 199.216V202.624H408.044L407.924 204.184H404.9V210.736C404.9 211.424 405.052 211.92 405.356 212.224C405.676 212.512 406.22 212.656 406.988 212.656C407.404 212.656 407.86 212.576 408.356 212.416V213.904C407.764 214.128 407.084 214.24 406.316 214.24ZM414.777 214.24C413.657 214.24 412.809 213.944 412.233 213.352C411.673 212.744 411.393 211.904 411.393 210.832V204.184H409.665V202.624H411.393V199.816L413.361 199.216V202.624H416.505L416.385 204.184H413.361V210.736C413.361 211.424 413.513 211.92 413.817 212.224C414.137 212.512 414.681 212.656 415.449 212.656C415.865 212.656 416.321 212.576 416.817 212.416V213.904C416.225 214.128 415.545 214.24 414.777 214.24ZM424.294 214.24C422.31 214.24 420.862 213.736 419.95 212.728C419.054 211.704 418.606 210.232 418.606 208.312C418.606 206.408 419.062 204.944 419.974 203.92C420.886 202.896 422.326 202.384 424.294 202.384C426.262 202.384 427.702 202.896 428.614 203.92C429.526 204.944 429.982 206.408 429.982 208.312C429.982 210.232 429.534 211.704 428.638 212.728C427.742 213.736 426.294 214.24 424.294 214.24ZM424.294 212.56C425.654 212.56 426.614 212.224 427.174 211.552C427.734 210.864 428.014 209.784 428.014 208.312C428.014 206.84 427.726 205.768 427.15 205.096C426.59 204.408 425.638 204.064 424.294 204.064C422.95 204.064 421.99 204.408 421.414 205.096C420.854 205.768 420.574 206.84 420.574 208.312C420.574 209.784 420.854 210.864 421.414 211.552C421.974 212.224 422.934 212.56 424.294 212.56ZM432.868 214V202.624H434.644L434.764 203.92C435.308 203.472 435.94 203.104 436.66 202.816C437.396 202.528 438.236 202.384 439.18 202.384C440.62 202.384 441.668 202.72 442.324 203.392C442.98 204.064 443.307 205.12 443.307 206.56V214H441.34V206.632C441.34 205.64 441.14 204.952 440.74 204.568C440.34 204.168 439.572 203.968 438.436 203.968C437.732 203.968 437.068 204.096 436.444 204.352C435.82 204.608 435.284 204.96 434.836 205.408V214H432.868ZM453.166 199.96V198.16H455.35V199.96H453.166ZM453.358 214V204.184H451.606L451.798 202.624H455.326V214H453.358ZM458.719 214V202.624H460.495L460.615 203.92C461.159 203.472 461.791 203.104 462.511 202.816C463.247 202.528 464.087 202.384 465.031 202.384C466.471 202.384 467.519 202.72 468.175 203.392C468.831 204.064 469.159 205.12 469.159 206.56V214H467.191V206.632C467.191 205.64 466.991 204.952 466.591 204.568C466.191 204.168 465.423 203.968 464.287 203.968C463.583 203.968 462.919 204.096 462.295 204.352C461.671 204.608 461.135 204.96 460.687 205.408V214H458.719ZM478.682 214V204.184H476.978V202.624H478.682V200.968C478.682 199.88 478.978 199.024 479.57 198.4C480.178 197.76 481.066 197.44 482.234 197.44C482.65 197.44 483.026 197.472 483.362 197.536C483.714 197.6 484.034 197.688 484.322 197.8V199.288C483.826 199.112 483.298 199.024 482.738 199.024C481.922 199.024 481.37 199.176 481.082 199.48C480.794 199.768 480.65 200.264 480.65 200.968V202.624H483.722L483.626 204.184H480.65V214H478.682ZM485.813 214V202.624H487.589L487.733 204.064C488.293 203.696 488.949 203.36 489.701 203.056C490.469 202.752 491.221 202.528 491.957 202.384V203.92C491.509 204.016 491.021 204.152 490.493 204.328C489.965 204.488 489.461 204.672 488.981 204.88C488.501 205.088 488.101 205.304 487.781 205.528V214H485.813ZM498.849 214.24C496.865 214.24 495.417 213.736 494.505 212.728C493.609 211.704 493.161 210.232 493.161 208.312C493.161 206.408 493.617 204.944 494.529 203.92C495.441 202.896 496.881 202.384 498.849 202.384C500.817 202.384 502.257 202.896 503.169 203.92C504.081 204.944 504.537 206.408 504.537 208.312C504.537 210.232 504.089 211.704 503.193 212.728C502.297 213.736 500.849 214.24 498.849 214.24ZM498.849 212.56C500.209 212.56 501.169 212.224 501.729 211.552C502.289 210.864 502.569 209.784 502.569 208.312C502.569 206.84 502.281 205.768 501.705 205.096C501.145 204.408 500.193 204.064 498.849 204.064C497.505 204.064 496.545 204.408 495.969 205.096C495.409 205.768 495.129 206.84 495.129 208.312C495.129 209.784 495.409 210.864 495.969 211.552C496.529 212.224 497.489 212.56 498.849 212.56ZM507.422 214V202.624H509.198L509.318 203.92C509.862 203.472 510.494 203.104 511.214 202.816C511.95 202.528 512.79 202.384 513.734 202.384C515.174 202.384 516.222 202.72 516.878 203.392C517.534 204.064 517.862 205.12 517.862 206.56V214H515.894V206.632C515.894 205.64 515.694 204.952 515.294 204.568C514.894 204.168 514.126 203.968 512.99 203.968C512.286 203.968 511.622 204.096 510.998 204.352C510.374 204.608 509.838 204.96 509.39 205.408V214H507.422ZM525.262 214.24C524.142 214.24 523.294 213.944 522.718 213.352C522.158 212.744 521.878 211.904 521.878 210.832V204.184H520.15V202.624H521.878V199.816L523.846 199.216V202.624H526.99L526.87 204.184H523.846V210.736C523.846 211.424 523.998 211.92 524.302 212.224C524.622 212.512 525.166 212.656 525.934 212.656C526.35 212.656 526.806 212.576 527.302 212.416V213.904C526.71 214.128 526.03 214.24 525.262 214.24ZM540.31 214.24C538.326 214.24 536.878 213.736 535.966 212.728C535.07 211.704 534.622 210.232 534.622 208.312C534.622 206.408 535.078 204.944 535.99 203.92C536.902 202.896 538.342 202.384 540.31 202.384C542.278 202.384 543.718 202.896 544.63 203.92C545.542 204.944 545.998 206.408 545.998 208.312C545.998 210.232 545.55 211.704 544.654 212.728C543.758 213.736 542.31 214.24 540.31 214.24ZM540.31 212.56C541.67 212.56 542.63 212.224 543.19 211.552C543.75 210.864 544.03 209.784 544.03 208.312C544.03 206.84 543.742 205.768 543.166 205.096C542.606 204.408 541.654 204.064 540.31 204.064C538.966 204.064 538.006 204.408 537.43 205.096C536.87 205.768 536.59 206.84 536.59 208.312C536.59 209.784 536.87 210.864 537.43 211.552C537.99 212.224 538.95 212.56 540.31 212.56ZM549.627 214V204.184H547.923V202.624H549.627V200.968C549.627 199.88 549.923 199.024 550.515 198.4C551.123 197.76 552.011 197.44 553.179 197.44C553.595 197.44 553.971 197.472 554.307 197.536C554.659 197.6 554.979 197.688 555.267 197.8V199.288C554.771 199.112 554.243 199.024 553.683 199.024C552.867 199.024 552.315 199.176 552.027 199.48C551.739 199.768 551.595 200.264 551.595 200.968V202.624H554.667L554.571 204.184H551.595V214H549.627ZM567.051 214.24C565.931 214.24 565.083 213.944 564.507 213.352C563.947 212.744 563.667 211.904 563.667 210.832V204.184H561.939V202.624H563.667V199.816L565.635 199.216V202.624H568.779L568.659 204.184H565.635V210.736C565.635 211.424 565.787 211.92 566.091 212.224C566.411 212.512 566.955 212.656 567.723 212.656C568.139 212.656 568.595 212.576 569.091 212.416V213.904C568.499 214.128 567.819 214.24 567.051 214.24ZM571.36 214V197.824H573.328V203.848C573.856 203.416 574.472 203.064 575.176 202.792C575.896 202.52 576.728 202.384 577.672 202.384C579.048 202.384 580.08 202.72 580.768 203.392C581.456 204.064 581.8 205.12 581.8 206.56V214H579.832V206.632C579.832 205.64 579.608 204.952 579.16 204.568C578.728 204.168 578.008 203.968 577 203.968C576.36 203.968 575.696 204.112 575.008 204.4C574.336 204.672 573.776 205.032 573.328 205.48V214H571.36ZM590.264 214.24C588.232 214.24 586.712 213.752 585.704 212.776C584.696 211.8 584.192 210.296 584.192 208.264C584.192 206.44 584.624 205.008 585.488 203.968C586.368 202.912 587.752 202.384 589.64 202.384C590.76 202.384 591.68 202.592 592.4 203.008C593.136 203.408 593.68 203.968 594.032 204.688C594.4 205.392 594.584 206.192 594.584 207.088V209.224H586.16C586.224 210.088 586.408 210.768 586.712 211.264C587.032 211.76 587.504 212.12 588.128 212.344C588.768 212.552 589.608 212.656 590.648 212.656C591.816 212.656 592.888 212.456 593.864 212.056V213.592C593.368 213.8 592.808 213.96 592.184 214.072C591.576 214.184 590.936 214.24 590.264 214.24ZM586.16 207.808H592.832V206.872C592.832 205.944 592.584 205.232 592.088 204.736C591.608 204.224 590.808 203.968 589.688 203.968C588.328 203.968 587.4 204.288 586.904 204.928C586.408 205.568 586.16 206.528 586.16 207.808ZM37.832 250.24C36.712 250.24 35.864 249.944 35.288 249.352C34.728 248.744 34.448 247.904 34.448 246.832V240.184H32.72V238.624H34.448V235.816L36.416 235.216V238.624H39.56L39.44 240.184H36.416V246.736C36.416 247.424 36.568 247.92 36.872 248.224C37.192 248.512 37.736 248.656 38.504 248.656C38.92 248.656 39.376 248.576 39.872 248.416V249.904C39.28 250.128 38.6 250.24 37.832 250.24ZM42.1409 250V238.624H43.9169L44.0609 240.064C44.6209 239.696 45.2769 239.36 46.0289 239.056C46.7969 238.752 47.5489 238.528 48.2849 238.384V239.92C47.8369 240.016 47.3489 240.152 46.8209 240.328C46.2929 240.488 45.7889 240.672 45.3089 240.88C44.8289 241.088 44.4289 241.304 44.1089 241.528V250H42.1409ZM53.2393 250.24C52.5193 250.24 51.8553 250.112 51.2473 249.856C50.6393 249.6 50.1513 249.224 49.7833 248.728C49.4153 248.216 49.2313 247.576 49.2313 246.808C49.2313 245.768 49.5753 244.92 50.2633 244.264C50.9513 243.592 52.0713 243.256 53.6233 243.256H57.5833V242.56C57.5833 241.936 57.4953 241.44 57.3193 241.072C57.1593 240.704 56.8473 240.44 56.3833 240.28C55.9193 240.12 55.2393 240.04 54.3433 240.04C53.6553 240.04 52.9913 240.096 52.3513 240.208C51.7113 240.32 51.1113 240.472 50.5513 240.664V239.032C51.0633 238.84 51.6633 238.688 52.3513 238.576C53.0553 238.448 53.8073 238.384 54.6073 238.384C56.2233 238.384 57.4313 238.712 58.2313 239.368C59.0473 240.024 59.4553 241.088 59.4553 242.56V250H57.7993L57.6553 248.704C57.1593 249.216 56.5593 249.6 55.8553 249.856C55.1513 250.112 54.2793 250.24 53.2393 250.24ZM53.7433 248.632C54.5753 248.632 55.3113 248.488 55.9513 248.2C56.5913 247.896 57.1353 247.488 57.5833 246.976V244.768H53.6713C52.7753 244.768 52.1353 244.936 51.7513 245.272C51.3673 245.608 51.1753 246.12 51.1753 246.808C51.1753 247.496 51.4073 247.976 51.8713 248.248C52.3353 248.504 52.9593 248.632 53.7433 248.632ZM62.6956 250V238.624H64.4716L64.5916 239.92C65.1356 239.472 65.7676 239.104 66.4876 238.816C67.2236 238.528 68.0636 238.384 69.0076 238.384C70.4476 238.384 71.4956 238.72 72.1516 239.392C72.8076 240.064 73.1356 241.12 73.1356 242.56V250H71.1676V242.632C71.1676 241.64 70.9676 240.952 70.5676 240.568C70.1676 240.168 69.3996 239.968 68.2636 239.968C67.5596 239.968 66.8956 240.096 66.2716 240.352C65.6476 240.608 65.1116 240.96 64.6636 241.408V250H62.6956ZM79.9591 250.24C79.2231 250.24 78.5191 250.192 77.8471 250.096C77.1911 250 76.6391 249.872 76.1911 249.712V247.984C76.7351 248.176 77.3031 248.32 77.8951 248.416C78.5031 248.512 79.1031 248.56 79.6951 248.56C80.7031 248.56 81.4231 248.456 81.8551 248.248C82.2871 248.024 82.5031 247.616 82.5031 247.024C82.5031 246.592 82.3831 246.264 82.1431 246.04C81.9191 245.816 81.5671 245.616 81.0871 245.44C80.6231 245.264 80.0231 245.056 79.2871 244.816C78.6311 244.592 78.0471 244.36 77.5351 244.12C77.0231 243.88 76.6231 243.56 76.3351 243.16C76.0471 242.744 75.9031 242.192 75.9031 241.504C75.9031 240.496 76.2551 239.728 76.9591 239.2C77.6631 238.656 78.7991 238.384 80.3671 238.384C80.9751 238.384 81.5591 238.432 82.1191 238.528C82.6791 238.608 83.1671 238.712 83.5831 238.84V240.568C82.5751 240.232 81.6071 240.064 80.6791 240.064C79.6871 240.064 78.9671 240.168 78.5191 240.376C78.0871 240.568 77.8711 240.936 77.8711 241.48C77.8711 241.848 77.9671 242.144 78.1591 242.368C78.3671 242.576 78.6791 242.76 79.0951 242.92C79.5271 243.064 80.0791 243.248 80.7511 243.472C81.6311 243.744 82.3431 244.024 82.8871 244.312C83.4311 244.6 83.8311 244.952 84.0871 245.368C84.3431 245.784 84.4711 246.328 84.4711 247C84.4711 248.12 84.0791 248.944 83.2951 249.472C82.5111 249.984 81.3991 250.24 79.9591 250.24ZM87.3519 255.184V238.624H89.0319L89.1759 239.824C89.7039 239.328 90.2799 238.968 90.9039 238.744C91.5439 238.504 92.2879 238.384 93.1359 238.384C94.7359 238.384 95.9919 238.832 96.9039 239.728C97.8159 240.608 98.2719 242.08 98.2719 244.144C98.2719 246.192 97.8159 247.72 96.9039 248.728C95.9919 249.736 94.7279 250.24 93.1119 250.24C91.6239 250.24 90.3599 249.88 89.3199 249.16V255.184H87.3519ZM92.5839 248.656C93.8639 248.656 94.7999 248.296 95.3919 247.576C95.9999 246.84 96.3039 245.696 96.3039 244.144C96.3039 242.656 96.0239 241.592 95.4639 240.952C94.9039 240.296 93.9599 239.968 92.6319 239.968C91.9759 239.968 91.3679 240.08 90.8079 240.304C90.2479 240.528 89.7519 240.872 89.3199 241.336V247.528C89.7199 247.88 90.1919 248.16 90.7359 248.368C91.2799 248.56 91.8959 248.656 92.5839 248.656ZM104.567 250.24C103.847 250.24 103.183 250.112 102.575 249.856C101.967 249.6 101.479 249.224 101.111 248.728C100.743 248.216 100.559 247.576 100.559 246.808C100.559 245.768 100.903 244.92 101.591 244.264C102.279 243.592 103.399 243.256 104.951 243.256H108.911V242.56C108.911 241.936 108.823 241.44 108.647 241.072C108.487 240.704 108.175 240.44 107.711 240.28C107.247 240.12 106.567 240.04 105.671 240.04C104.983 240.04 104.319 240.096 103.679 240.208C103.039 240.32 102.439 240.472 101.879 240.664V239.032C102.391 238.84 102.991 238.688 103.679 238.576C104.383 238.448 105.135 238.384 105.935 238.384C107.551 238.384 108.759 238.712 109.559 239.368C110.375 240.024 110.783 241.088 110.783 242.56V250H109.127L108.983 248.704C108.487 249.216 107.887 249.6 107.183 249.856C106.479 250.112 105.607 250.24 104.567 250.24ZM105.071 248.632C105.903 248.632 106.639 248.488 107.279 248.2C107.919 247.896 108.463 247.488 108.911 246.976V244.768H104.999C104.103 244.768 103.463 244.936 103.079 245.272C102.695 245.608 102.503 246.12 102.503 246.808C102.503 247.496 102.735 247.976 103.199 248.248C103.663 248.504 104.287 248.632 105.071 248.632ZM114.024 250V238.624H115.8L115.944 240.064C116.504 239.696 117.16 239.36 117.912 239.056C118.68 238.752 119.432 238.528 120.168 238.384V239.92C119.72 240.016 119.232 240.152 118.704 240.328C118.176 240.488 117.672 240.672 117.192 240.88C116.712 241.088 116.312 241.304 115.992 241.528V250H114.024ZM127.444 250.24C125.412 250.24 123.892 249.752 122.884 248.776C121.876 247.8 121.372 246.296 121.372 244.264C121.372 242.44 121.804 241.008 122.668 239.968C123.548 238.912 124.932 238.384 126.82 238.384C127.94 238.384 128.86 238.592 129.58 239.008C130.316 239.408 130.86 239.968 131.212 240.688C131.58 241.392 131.764 242.192 131.764 243.088V245.224H123.34C123.404 246.088 123.588 246.768 123.892 247.264C124.212 247.76 124.684 248.12 125.308 248.344C125.948 248.552 126.788 248.656 127.828 248.656C128.996 248.656 130.068 248.456 131.044 248.056V249.592C130.548 249.8 129.988 249.96 129.364 250.072C128.756 250.184 128.116 250.24 127.444 250.24ZM123.34 243.808H130.012V242.872C130.012 241.944 129.764 241.232 129.268 240.736C128.788 240.224 127.988 239.968 126.868 239.968C125.508 239.968 124.58 240.288 124.084 240.928C123.588 241.568 123.34 242.528 123.34 243.808ZM134.649 250V238.624H136.425L136.545 239.92C137.089 239.472 137.721 239.104 138.441 238.816C139.177 238.528 140.017 238.384 140.961 238.384C142.401 238.384 143.449 238.72 144.105 239.392C144.761 240.064 145.089 241.12 145.089 242.56V250H143.121V242.632C143.121 241.64 142.921 240.952 142.521 240.568C142.121 240.168 141.353 239.968 140.217 239.968C139.513 239.968 138.849 240.096 138.225 240.352C137.601 240.608 137.065 240.96 136.617 241.408V250H134.649ZM152.488 250.24C151.368 250.24 150.52 249.944 149.944 249.352C149.384 248.744 149.104 247.904 149.104 246.832V240.184H147.376V238.624H149.104V235.816L151.072 235.216V238.624H154.216L154.096 240.184H151.072V246.736C151.072 247.424 151.224 247.92 151.528 248.224C151.848 248.512 152.392 248.656 153.16 248.656C153.576 248.656 154.032 248.576 154.528 248.416V249.904C153.936 250.128 153.256 250.24 152.488 250.24ZM162.328 250V238.624H164.104L164.248 240.064C164.808 239.696 165.464 239.36 166.216 239.056C166.984 238.752 167.736 238.528 168.472 238.384V239.92C168.024 240.016 167.536 240.152 167.008 240.328C166.48 240.488 165.976 240.672 165.496 240.88C165.016 241.088 164.616 241.304 164.296 241.528V250H162.328ZM175.365 250.24C173.381 250.24 171.933 249.736 171.021 248.728C170.125 247.704 169.677 246.232 169.677 244.312C169.677 242.408 170.133 240.944 171.045 239.92C171.957 238.896 173.397 238.384 175.365 238.384C177.333 238.384 178.773 238.896 179.685 239.92C180.597 240.944 181.053 242.408 181.053 244.312C181.053 246.232 180.605 247.704 179.709 248.728C178.813 249.736 177.365 250.24 175.365 250.24ZM175.365 248.56C176.725 248.56 177.685 248.224 178.245 247.552C178.805 246.864 179.085 245.784 179.085 244.312C179.085 242.84 178.797 241.768 178.221 241.096C177.661 240.408 176.709 240.064 175.365 240.064C174.021 240.064 173.061 240.408 172.485 241.096C171.925 241.768 171.645 242.84 171.645 244.312C171.645 245.784 171.925 246.864 172.485 247.552C173.045 248.224 174.005 248.56 175.365 248.56ZM186.41 250.24C185.642 250.24 185.034 250.04 184.586 249.64C184.154 249.224 183.938 248.528 183.938 247.552V233.824H185.906V247.336C185.906 247.816 185.986 248.144 186.146 248.32C186.306 248.496 186.554 248.584 186.89 248.584C187.258 248.584 187.618 248.536 187.97 248.44V250C187.714 250.096 187.458 250.16 187.202 250.192C186.946 250.224 186.682 250.24 186.41 250.24ZM192.105 250.24C191.337 250.24 190.729 250.04 190.281 249.64C189.849 249.224 189.633 248.528 189.633 247.552V233.824H191.601V247.336C191.601 247.816 191.681 248.144 191.841 248.32C192.001 248.496 192.249 248.584 192.585 248.584C192.953 248.584 193.313 248.536 193.665 248.44V250C193.409 250.096 193.153 250.16 192.897 250.192C192.641 250.224 192.377 250.24 192.105 250.24ZM201.53 250.24C199.498 250.24 197.978 249.752 196.97 248.776C195.962 247.8 195.458 246.296 195.458 244.264C195.458 242.44 195.89 241.008 196.754 239.968C197.634 238.912 199.018 238.384 200.906 238.384C202.026 238.384 202.946 238.592 203.666 239.008C204.402 239.408 204.946 239.968 205.298 240.688C205.666 241.392 205.85 242.192 205.85 243.088V245.224H197.426C197.49 246.088 197.674 246.768 197.978 247.264C198.298 247.76 198.77 248.12 199.394 248.344C200.034 248.552 200.874 248.656 201.914 248.656C203.082 248.656 204.154 248.456 205.13 248.056V249.592C204.634 249.8 204.074 249.96 203.45 250.072C202.842 250.184 202.202 250.24 201.53 250.24ZM197.426 243.808H204.098V242.872C204.098 241.944 203.85 241.232 203.354 240.736C202.874 240.224 202.074 239.968 200.954 239.968C199.594 239.968 198.666 240.288 198.17 240.928C197.674 241.568 197.426 242.528 197.426 243.808ZM208.735 250V238.624H210.511L210.655 240.064C211.215 239.696 211.871 239.36 212.623 239.056C213.391 238.752 214.143 238.528 214.879 238.384V239.92C214.431 240.016 213.943 240.152 213.415 240.328C212.887 240.488 212.383 240.672 211.903 240.88C211.423 241.088 211.023 241.304 210.703 241.528V250H208.735ZM216.552 250V248.344H218.328V250H216.552Z" fill="white"/>
</g>
</g>
<defs>
<filter id="filter0_f_1_9370" x="178" y="-172" width="933" height="974" filterUnits="userSpaceOnUse" color-interpolation-filters="sRGB">
<feFlood flood-opacity="0" result="BackgroundImageFix"/>
<feBlend mode="normal" in="SourceGraphic" in2="BackgroundImageFix" result="shape"/>
<feGaussianBlur stdDeviation="100" result="effect1_foregroundBlur_1_9370"/>
</filter>
<clipPath id="clip0_1_9370">
<rect width="735" height="328" rx="4" fill="white"/>
</clipPath>
<clipPath id="clip1_1_9370">
<rect width="735" height="328" rx="2" fill="white"/>
</clipPath>
</defs>
</svg>
