<svg width="100" height="100" viewBox="0 0 100 100" fill="none" xmlns="http://www.w3.org/2000/svg">
<path d="M7.42188 35.5684V79.8828H92.5781V35.5684H7.42188ZM38.4121 71.9238L29.1855 67.2617L19.959 71.9238L21.541 61.709L14.2578 54.375L24.4609 52.7227L29.1855 43.5293L33.9102 52.7227L44.1113 54.375L36.8301 61.7188L38.4121 71.9238Z" fill="#DE1E35"/>
<path d="M0 12.6953V87.3047H100V12.6953H0ZM96.875 84.1797H3.125V31.2715H96.875V84.1797ZM3.125 28.1465V15.8203H96.875V28.1465H3.125Z" fill="#011335"/>
<path d="M14.2578 19.8359H9.96094V24.1328H14.2578V19.8359Z" fill="#011335"/>
<path d="M24.709 19.8359H20.4121V24.1328H24.709V19.8359Z" fill="#011335"/>
<path d="M35.1602 19.8359H30.8633V24.1328H35.1602V19.8359Z" fill="#011335"/>
<path d="M17.9492 74.6895L29.1855 69.0117L40.4297 74.6895L38.5039 62.25L47.3633 53.3203L34.9395 51.3086L29.1855 40.1113L23.4375 51.3066L11.0078 53.3203L19.875 62.252L17.9492 74.6895ZM17.5078 55.4316L25.4883 54.1387L29.1855 46.9473L32.8809 54.1387L40.8613 55.4316L35.1562 61.168L36.3945 69.1562L29.1777 65.5098L21.9609 69.1562L23.1973 61.168L17.5078 55.4316Z" fill="#011335"/>
<path d="M64.916 41.9668H50V45.0918H64.916V41.9668Z" fill="#011335"/>
<path d="M76.8926 51.4316H50V54.5566H76.8926V51.4316Z" fill="#011335"/>
<path d="M88.8672 60.8965H50V64.0215H88.8672V60.8965Z" fill="#011335"/>
<path d="M88.8672 70.3613H50V73.4863H88.8672V70.3613Z" fill="#011335"/>
</svg>
