<svg width="735" height="328" viewBox="0 0 735 328" fill="none" xmlns="http://www.w3.org/2000/svg">
<g clip-path="url(#clip0_1_9379)">
<rect width="735" height="328" rx="2" fill="white"/>
<rect x="32" y="32" width="75" height="76" rx="2" fill="#DE1E35"/>
<path d="M58.62 85.04C55.7933 85.04 53.5267 84.5067 51.82 83.44C50.1133 82.3733 48.8733 80.8267 48.1 78.8C47.3533 76.7467 46.98 74.2933 46.98 71.44C46.98 68.56 47.3533 66.1067 48.1 64.08C48.8733 62.0533 50.1133 60.5067 51.82 59.44C53.5267 58.3733 55.7933 57.84 58.62 57.84C61.4467 57.84 63.7133 58.3733 65.42 59.44C67.1267 60.5067 68.3533 62.0533 69.1 64.08C69.8733 66.1067 70.26 68.56 70.26 71.44C70.26 74.2933 69.8733 76.7467 69.1 78.8C68.3533 80.8267 67.1267 82.3733 65.42 83.44C63.7133 84.5067 61.4467 85.04 58.62 85.04ZM58.62 80.4C60.94 80.4 62.54 79.6267 63.42 78.08C64.3267 76.5333 64.78 74.32 64.78 71.44C64.78 68.56 64.3267 66.3467 63.42 64.8C62.54 63.2533 60.94 62.48 58.62 62.48C56.3 62.48 54.6867 63.2533 53.78 64.8C52.9 66.3467 52.46 68.56 52.46 71.44C52.46 74.32 52.9 76.5333 53.78 78.08C54.6867 79.6267 56.3 80.4 58.62 80.4ZM80.91 84.4C80.1367 84.4 79.27 84.3467 78.31 84.24C77.35 84.1333 76.4167 83.9867 75.51 83.8C74.6033 83.6133 73.8433 83.4 73.23 83.16V78.44C74.3233 78.8933 75.4567 79.2267 76.63 79.44C77.83 79.6533 78.99 79.76 80.11 79.76C82.0033 79.76 83.4033 79.5067 84.31 79C85.2433 78.4667 85.71 77.5067 85.71 76.12C85.71 74.9733 85.2967 74.16 84.47 73.68C83.67 73.2 82.51 72.96 80.99 72.96H76.95L77.35 69H80.71C82.2567 69 83.39 68.7467 84.11 68.24C84.83 67.7067 85.19 66.88 85.19 65.76C85.19 64.64 84.7767 63.8133 83.95 63.28C83.15 62.72 81.8567 62.44 80.07 62.44C78.9233 62.44 77.7767 62.56 76.63 62.8C75.51 63.04 74.5233 63.3467 73.67 63.72V59.12C74.5233 58.7467 75.6167 58.44 76.95 58.2C78.31 57.96 79.6567 57.84 80.99 57.84C84.19 57.84 86.6033 58.5067 88.23 59.84C89.8567 61.1733 90.67 62.8933 90.67 65C90.67 66.2533 90.3767 67.44 89.79 68.56C89.23 69.6533 88.35 70.4533 87.15 70.96C88.5367 71.3867 89.55 72.1067 90.19 73.12C90.8567 74.1067 91.19 75.2933 91.19 76.68C91.19 78.44 90.75 79.8933 89.87 81.04C89.0167 82.1867 87.8167 83.04 86.27 83.6C84.75 84.1333 82.9633 84.4 80.91 84.4Z" fill="white"/>
<path d="M34.28 166V140.24H38.96L51.16 157.4V140.24H56.56V166H51.88L39.68 148.84V166H34.28ZM68.1159 166.4C65.8493 166.4 64.0759 165.773 62.7959 164.52C61.5426 163.24 60.9159 161.373 60.9159 158.92V147.04H66.3159V158.8C66.3159 160.08 66.6226 161.013 67.2359 161.6C67.8493 162.16 68.7693 162.44 69.9959 162.44C70.9293 162.44 71.7826 162.253 72.5559 161.88C73.3559 161.507 74.0359 161.04 74.5959 160.48V147.04H79.9959V166H74.9959L74.7959 164.2C73.9959 164.84 73.0493 165.373 71.9559 165.8C70.8893 166.2 69.6093 166.4 68.1159 166.4ZM84.5925 166V147.04H89.5925L89.7925 148.88C90.6992 148.187 91.6858 147.64 92.7525 147.24C93.8458 146.84 95.0192 146.64 96.2725 146.64C97.6058 146.64 98.6325 146.84 99.3525 147.24C100.099 147.64 100.673 148.213 101.073 148.96C101.953 148.267 102.953 147.707 104.073 147.28C105.219 146.853 106.566 146.64 108.113 146.64C110.299 146.64 111.913 147.213 112.953 148.36C113.993 149.48 114.513 151.2 114.513 153.52V166H109.193V154.12C109.193 152.867 108.926 151.973 108.393 151.44C107.859 150.88 107.006 150.6 105.832 150.6C104.232 150.6 102.899 151.173 101.833 152.32C101.966 152.773 102.033 153.32 102.033 153.96V166H96.9925V154.12C96.9925 152.947 96.7925 152.067 96.3925 151.48C95.9925 150.893 95.2192 150.6 94.0725 150.6C93.2725 150.6 92.5125 150.813 91.7925 151.24C91.0992 151.64 90.4725 152.107 89.9125 152.64V166H84.5925ZM130.088 166.4C128.755 166.4 127.595 166.227 126.608 165.88C125.622 165.507 124.715 164.96 123.888 164.24L123.608 166H118.928V139.04H124.328V148.08C125.102 147.6 125.968 147.24 126.928 147C127.888 146.76 128.888 146.64 129.928 146.64C132.648 146.64 134.795 147.413 136.368 148.96C137.968 150.48 138.768 152.947 138.768 156.36C138.768 159.773 137.982 162.307 136.408 163.96C134.862 165.587 132.755 166.4 130.088 166.4ZM128.568 162.44C130.302 162.44 131.515 161.933 132.208 160.92C132.928 159.907 133.288 158.387 133.288 156.36C133.288 154.253 132.902 152.773 132.128 151.92C131.382 151.04 130.182 150.6 128.528 150.6C127.702 150.6 126.915 150.72 126.168 150.96C125.448 151.2 124.835 151.547 124.328 152V160.72C124.862 161.28 125.488 161.707 126.208 162C126.955 162.293 127.742 162.44 128.568 162.44ZM152.402 166.4C149.122 166.4 146.522 165.587 144.602 163.96C142.682 162.307 141.722 159.813 141.722 156.48C141.722 153.467 142.522 151.08 144.122 149.32C145.749 147.533 148.162 146.64 151.362 146.64C154.296 146.64 156.536 147.413 158.082 148.96C159.656 150.48 160.442 152.48 160.442 154.96V158.4H146.722C147.016 159.92 147.709 160.96 148.802 161.52C149.922 162.08 151.496 162.36 153.522 162.36C154.536 162.36 155.562 162.267 156.602 162.08C157.669 161.893 158.576 161.653 159.322 161.36V165.2C158.442 165.6 157.416 165.893 156.242 166.08C155.069 166.293 153.789 166.4 152.402 166.4ZM146.722 155.08H155.722V154.04C155.722 152.947 155.402 152.093 154.762 151.48C154.122 150.84 153.042 150.52 151.522 150.52C149.736 150.52 148.482 150.88 147.762 151.6C147.069 152.32 146.722 153.48 146.722 155.08ZM164.202 166V147.04H169.202L169.442 149C170.295 148.467 171.349 147.987 172.602 147.56C173.882 147.107 175.135 146.8 176.362 146.64V150.72C175.642 150.827 174.855 150.987 174.002 151.2C173.149 151.413 172.335 151.653 171.562 151.92C170.789 152.187 170.135 152.467 169.602 152.76V166H164.202ZM193.113 166L187.113 140.24H192.433L196.313 157.64L200.513 143.6V140.24H204.913L209.873 157.68L213.873 140.24H219.153L213.193 166H208.073L203.353 149.52L198.273 166H193.113ZM222.436 143.56V139.32H228.316V143.56H222.436ZM222.876 166V151.04H220.036L220.516 147.04H228.276V166H222.876ZM238.154 166.4C236.314 166.4 234.967 165.973 234.114 165.12C233.287 164.267 232.874 162.907 232.874 161.04V139.04H238.274V160.6C238.274 161.267 238.407 161.733 238.674 162C238.94 162.24 239.327 162.36 239.834 162.36C240.527 162.36 241.154 162.267 241.714 162.08V165.8C240.7 166.2 239.514 166.4 238.154 166.4ZM249.052 166.4C247.212 166.4 245.866 165.973 245.012 165.12C244.186 164.267 243.772 162.907 243.772 161.04V139.04H249.172V160.6C249.172 161.267 249.306 161.733 249.572 162C249.839 162.24 250.226 162.36 250.732 162.36C251.426 162.36 252.052 162.267 252.612 162.08V165.8C251.599 166.2 250.412 166.4 249.052 166.4ZM275.635 166.4C274.302 166.4 273.142 166.227 272.155 165.88C271.169 165.507 270.262 164.96 269.435 164.24L269.155 166H264.475V139.04H269.875V148.08C270.649 147.6 271.515 147.24 272.475 147C273.435 146.76 274.435 146.64 275.475 146.64C278.195 146.64 280.342 147.413 281.915 148.96C283.515 150.48 284.315 152.947 284.315 156.36C284.315 159.773 283.529 162.307 281.955 163.96C280.409 165.587 278.302 166.4 275.635 166.4ZM274.115 162.44C275.849 162.44 277.062 161.933 277.755 160.92C278.475 159.907 278.835 158.387 278.835 156.36C278.835 154.253 278.449 152.773 277.675 151.92C276.929 151.04 275.729 150.6 274.075 150.6C273.249 150.6 272.462 150.72 271.715 150.96C270.995 151.2 270.382 151.547 269.875 152V160.72C270.409 161.28 271.035 161.707 271.755 162C272.502 162.293 273.289 162.44 274.115 162.44ZM297.949 166.4C294.669 166.4 292.069 165.587 290.149 163.96C288.229 162.307 287.269 159.813 287.269 156.48C287.269 153.467 288.069 151.08 289.669 149.32C291.296 147.533 293.709 146.64 296.909 146.64C299.842 146.64 302.082 147.413 303.629 148.96C305.202 150.48 305.989 152.48 305.989 154.96V158.4H292.269C292.562 159.92 293.256 160.96 294.349 161.52C295.469 162.08 297.042 162.36 299.069 162.36C300.082 162.36 301.109 162.267 302.149 162.08C303.216 161.893 304.122 161.653 304.869 161.36V165.2C303.989 165.6 302.962 165.893 301.789 166.08C300.616 166.293 299.336 166.4 297.949 166.4ZM292.269 155.08H301.269V154.04C301.269 152.947 300.949 152.093 300.309 151.48C299.669 150.84 298.589 150.52 297.069 150.52C295.282 150.52 294.029 150.88 293.309 151.6C292.616 152.32 292.269 153.48 292.269 155.08ZM318.538 166V140.24H330.898C333.858 140.24 336.031 141.027 337.418 142.6C338.804 144.147 339.498 146.24 339.498 148.88C339.498 150.613 339.044 152.107 338.138 153.36C337.258 154.613 336.004 155.52 334.378 156.08C334.804 156.427 335.138 156.8 335.378 157.2C335.644 157.6 335.911 158.133 336.178 158.8L339.298 166H333.698L330.658 159.08C330.391 158.493 330.098 158.08 329.778 157.84C329.458 157.6 328.924 157.48 328.178 157.48H323.938V166H318.538ZM323.938 153H329.498C330.911 153 332.018 152.693 332.818 152.08C333.618 151.44 334.018 150.373 334.018 148.88C334.018 147.44 333.671 146.387 332.978 145.72C332.284 145.053 331.231 144.72 329.818 144.72H323.938V153ZM352.158 166.4C348.612 166.4 346.012 165.547 344.358 163.84C342.705 162.107 341.878 159.667 341.878 156.52C341.878 153.373 342.705 150.947 344.358 149.24C346.038 147.507 348.638 146.64 352.158 146.64C355.705 146.64 358.305 147.507 359.958 149.24C361.638 150.947 362.478 153.373 362.478 156.52C362.478 159.667 361.652 162.107 359.998 163.84C358.345 165.547 355.732 166.4 352.158 166.4ZM352.158 161.8C353.892 161.8 355.132 161.413 355.878 160.64C356.625 159.84 356.998 158.467 356.998 156.52C356.998 154.573 356.625 153.213 355.878 152.44C355.132 151.64 353.892 151.24 352.158 151.24C350.452 151.24 349.225 151.64 348.478 152.44C347.732 153.213 347.358 154.573 347.358 156.52C347.358 158.467 347.732 159.84 348.478 160.64C349.225 161.413 350.452 161.8 352.158 161.8ZM371.513 166.4C369.673 166.4 368.326 165.973 367.473 165.12C366.646 164.267 366.233 162.907 366.233 161.04V139.04H371.633V160.6C371.633 161.267 371.766 161.733 372.033 162C372.3 162.24 372.686 162.36 373.193 162.36C373.886 162.36 374.513 162.267 375.073 162.08V165.8C374.06 166.2 372.873 166.4 371.513 166.4ZM382.412 166.4C380.572 166.4 379.225 165.973 378.372 165.12C377.545 164.267 377.132 162.907 377.132 161.04V139.04H382.532V160.6C382.532 161.267 382.665 161.733 382.932 162C383.198 162.24 383.585 162.36 384.092 162.36C384.785 162.36 385.412 162.267 385.972 162.08V165.8C384.958 166.2 383.772 166.4 382.412 166.4ZM398.926 166.4C395.646 166.4 393.046 165.587 391.126 163.96C389.206 162.307 388.246 159.813 388.246 156.48C388.246 153.467 389.046 151.08 390.646 149.32C392.272 147.533 394.686 146.64 397.886 146.64C400.819 146.64 403.059 147.413 404.606 148.96C406.179 150.48 406.966 152.48 406.966 154.96V158.4H393.246C393.539 159.92 394.232 160.96 395.326 161.52C396.446 162.08 398.019 162.36 400.046 162.36C401.059 162.36 402.086 162.267 403.126 162.08C404.192 161.893 405.099 161.653 405.846 161.36V165.2C404.966 165.6 403.939 165.893 402.766 166.08C401.592 166.293 400.312 166.4 398.926 166.4ZM393.246 155.08H402.246V154.04C402.246 152.947 401.926 152.093 401.286 151.48C400.646 150.84 399.566 150.52 398.046 150.52C396.259 150.52 395.006 150.88 394.286 151.6C393.592 152.32 393.246 153.48 393.246 155.08ZM418.645 166.4C416.965 166.4 415.459 166.107 414.125 165.52C412.819 164.907 411.792 163.92 411.045 162.56C410.299 161.173 409.925 159.347 409.925 157.08C409.925 154.813 410.339 152.907 411.165 151.36C411.992 149.813 413.099 148.64 414.485 147.84C415.872 147.04 417.392 146.64 419.045 146.64C421.125 146.64 422.899 147.12 424.365 148.08V139.04H429.765V166H425.125L424.805 164.24C423.979 164.96 423.072 165.507 422.085 165.88C421.125 166.227 419.979 166.4 418.645 166.4ZM420.125 162.44C421.805 162.44 423.219 161.867 424.365 160.72V152.08C423.245 151.093 421.939 150.6 420.445 150.6C417.085 150.6 415.405 152.76 415.405 157.08C415.405 159.107 415.819 160.507 416.645 161.28C417.472 162.053 418.632 162.44 420.125 162.44ZM454.828 166.4C446.481 166.4 442.308 162.013 442.308 153.24C442.308 148.52 443.361 145.107 445.468 143C447.575 140.893 450.695 139.84 454.828 139.84C458.961 139.84 462.081 140.893 464.188 143C466.295 145.107 467.348 148.52 467.348 153.24C467.348 162.013 463.175 166.4 454.828 166.4ZM454.828 161.8C457.255 161.8 459.028 161.107 460.148 159.72C461.295 158.307 461.868 156.147 461.868 153.24C461.868 150.013 461.295 147.747 460.148 146.44C459.028 145.107 457.255 144.44 454.828 144.44C452.401 144.44 450.615 145.107 449.468 146.44C448.348 147.747 447.788 150.013 447.788 153.24C447.788 156.147 448.348 158.307 449.468 159.72C450.615 161.107 452.401 161.8 454.828 161.8ZM478.116 166.4C475.849 166.4 474.076 165.773 472.796 164.52C471.543 163.24 470.916 161.373 470.916 158.92V147.04H476.316V158.8C476.316 160.08 476.623 161.013 477.236 161.6C477.849 162.16 478.769 162.44 479.996 162.44C480.929 162.44 481.783 162.253 482.556 161.88C483.356 161.507 484.036 161.04 484.596 160.48V147.04H489.996V166H484.996L484.796 164.2C483.996 164.84 483.049 165.373 481.956 165.8C480.889 166.2 479.609 166.4 478.116 166.4ZM502.113 166.4C499.926 166.4 498.299 165.827 497.233 164.68C496.193 163.533 495.673 161.973 495.673 160V151.2H492.993V147.04H495.673V142.96L501.073 141.36V147.04H505.873L505.553 151.2H501.073V159.64C501.073 160.68 501.313 161.4 501.793 161.8C502.273 162.173 503.019 162.36 504.033 162.36C504.779 162.36 505.553 162.227 506.353 161.96V165.68C505.766 165.92 505.126 166.093 504.433 166.2C503.739 166.333 502.966 166.4 502.113 166.4Z" fill="#011335"/>
<path d="M33.2 214L39.08 198.544H41.384L47.24 214H45.224L43.592 209.752H36.872L35.24 214H33.2ZM37.208 208.192H43.232L40.208 200.248L37.208 208.192ZM49.7756 214V204.184H48.0716V202.624H49.7756V200.968C49.7756 199.88 50.0716 199.024 50.6636 198.4C51.2716 197.76 52.1596 197.44 53.3276 197.44C53.7436 197.44 54.1196 197.472 54.4556 197.536C54.8076 197.6 55.1276 197.688 55.4156 197.8V199.288C54.9196 199.112 54.3916 199.024 53.8316 199.024C53.0156 199.024 52.4636 199.176 52.1756 199.48C51.8876 199.768 51.7436 200.264 51.7436 200.968V202.624H54.8156L54.7196 204.184H51.7436V214H49.7756ZM60.9414 214.24C59.8214 214.24 58.9734 213.944 58.3974 213.352C57.8374 212.744 57.5574 211.904 57.5574 210.832V204.184H55.8294V202.624H57.5574V199.816L59.5254 199.216V202.624H62.6694L62.5494 204.184H59.5254V210.736C59.5254 211.424 59.6774 211.92 59.9814 212.224C60.3014 212.512 60.8454 212.656 61.6134 212.656C62.0294 212.656 62.4854 212.576 62.9814 212.416V213.904C62.3894 214.128 61.7094 214.24 60.9414 214.24ZM70.8423 214.24C68.8103 214.24 67.2903 213.752 66.2823 212.776C65.2743 211.8 64.7703 210.296 64.7703 208.264C64.7703 206.44 65.2023 205.008 66.0663 203.968C66.9463 202.912 68.3303 202.384 70.2183 202.384C71.3383 202.384 72.2583 202.592 72.9783 203.008C73.7143 203.408 74.2583 203.968 74.6103 204.688C74.9783 205.392 75.1623 206.192 75.1623 207.088V209.224H66.7383C66.8023 210.088 66.9863 210.768 67.2903 211.264C67.6103 211.76 68.0823 212.12 68.7063 212.344C69.3463 212.552 70.1863 212.656 71.2263 212.656C72.3943 212.656 73.4663 212.456 74.4423 212.056V213.592C73.9463 213.8 73.3863 213.96 72.7623 214.072C72.1543 214.184 71.5143 214.24 70.8423 214.24ZM66.7383 207.808H73.4103V206.872C73.4103 205.944 73.1623 205.232 72.6663 204.736C72.1863 204.224 71.3863 203.968 70.2663 203.968C68.9063 203.968 67.9783 204.288 67.4823 204.928C66.9863 205.568 66.7383 206.528 66.7383 207.808ZM78.0472 214V202.624H79.8232L79.9672 204.064C80.5272 203.696 81.1832 203.36 81.9352 203.056C82.7032 202.752 83.4552 202.528 84.1912 202.384V203.92C83.7432 204.016 83.2552 204.152 82.7272 204.328C82.1992 204.488 81.6952 204.672 81.2152 204.88C80.7352 205.088 80.3352 205.304 80.0152 205.528V214H78.0472ZM95.4033 214.24C94.6833 214.24 94.0193 214.112 93.4113 213.856C92.8033 213.6 92.3153 213.224 91.9473 212.728C91.5793 212.216 91.3953 211.576 91.3953 210.808C91.3953 209.768 91.7393 208.92 92.4273 208.264C93.1153 207.592 94.2353 207.256 95.7873 207.256H99.7473V206.56C99.7473 205.936 99.6593 205.44 99.4833 205.072C99.3233 204.704 99.0113 204.44 98.5473 204.28C98.0833 204.12 97.4033 204.04 96.5073 204.04C95.8193 204.04 95.1553 204.096 94.5153 204.208C93.8753 204.32 93.2753 204.472 92.7153 204.664V203.032C93.2273 202.84 93.8273 202.688 94.5153 202.576C95.2193 202.448 95.9713 202.384 96.7713 202.384C98.3873 202.384 99.5953 202.712 100.395 203.368C101.211 204.024 101.619 205.088 101.619 206.56V214H99.9633L99.8193 212.704C99.3233 213.216 98.7233 213.6 98.0193 213.856C97.3153 214.112 96.4433 214.24 95.4033 214.24ZM95.9073 212.632C96.7393 212.632 97.4753 212.488 98.1153 212.2C98.7553 211.896 99.2993 211.488 99.7473 210.976V208.768H95.8353C94.9393 208.768 94.2993 208.936 93.9153 209.272C93.5313 209.608 93.3393 210.12 93.3393 210.808C93.3393 211.496 93.5713 211.976 94.0353 212.248C94.4993 212.504 95.1233 212.632 95.9073 212.632ZM110.236 214.24C108.252 214.24 106.78 213.728 105.82 212.704C104.86 211.664 104.38 210.2 104.38 208.312C104.38 206.312 104.924 204.824 106.012 203.848C107.1 202.872 108.564 202.384 110.404 202.384C111.156 202.384 111.78 202.44 112.276 202.552C112.772 202.648 113.252 202.808 113.716 203.032V204.592C112.852 204.176 111.868 203.968 110.764 203.968C109.356 203.968 108.268 204.304 107.5 204.976C106.732 205.632 106.348 206.744 106.348 208.312C106.348 209.816 106.684 210.92 107.356 211.624C108.028 212.312 109.14 212.656 110.692 212.656C111.796 212.656 112.812 212.448 113.74 212.032V213.616C113.244 213.824 112.708 213.976 112.132 214.072C111.572 214.184 110.94 214.24 110.236 214.24ZM120.098 214.24C118.978 214.24 118.13 213.944 117.554 213.352C116.994 212.744 116.714 211.904 116.714 210.832V204.184H114.986V202.624H116.714V199.816L118.682 199.216V202.624H121.826L121.706 204.184H118.682V210.736C118.682 211.424 118.834 211.92 119.138 212.224C119.458 212.512 120.002 212.656 120.77 212.656C121.186 212.656 121.642 212.576 122.138 212.416V213.904C121.546 214.128 120.866 214.24 120.098 214.24ZM125.018 199.96V198.16H127.202V199.96H125.018ZM125.21 214V204.184H123.458L123.65 202.624H127.178V214H125.21ZM134.086 214L129.622 202.624H131.662L135.19 212.176L138.718 202.624H140.758L136.294 214H134.086ZM145.606 214.24C144.886 214.24 144.222 214.112 143.614 213.856C143.006 213.6 142.518 213.224 142.15 212.728C141.782 212.216 141.598 211.576 141.598 210.808C141.598 209.768 141.942 208.92 142.63 208.264C143.318 207.592 144.438 207.256 145.99 207.256H149.95V206.56C149.95 205.936 149.862 205.44 149.686 205.072C149.526 204.704 149.214 204.44 148.75 204.28C148.286 204.12 147.606 204.04 146.71 204.04C146.022 204.04 145.358 204.096 144.718 204.208C144.078 204.32 143.478 204.472 142.918 204.664V203.032C143.43 202.84 144.03 202.688 144.718 202.576C145.422 202.448 146.174 202.384 146.974 202.384C148.59 202.384 149.798 202.712 150.598 203.368C151.414 204.024 151.822 205.088 151.822 206.56V214H150.166L150.022 212.704C149.526 213.216 148.926 213.6 148.222 213.856C147.518 214.112 146.646 214.24 145.606 214.24ZM146.11 212.632C146.942 212.632 147.678 212.488 148.318 212.2C148.958 211.896 149.502 211.488 149.95 210.976V208.768H146.038C145.142 208.768 144.502 208.936 144.118 209.272C143.734 209.608 143.542 210.12 143.542 210.808C143.542 211.496 143.774 211.976 144.238 212.248C144.702 212.504 145.326 212.632 146.11 212.632ZM159.215 214.24C158.095 214.24 157.247 213.944 156.671 213.352C156.111 212.744 155.831 211.904 155.831 210.832V204.184H154.103V202.624H155.831V199.816L157.799 199.216V202.624H160.943L160.823 204.184H157.799V210.736C157.799 211.424 157.951 211.92 158.255 212.224C158.575 212.512 159.119 212.656 159.887 212.656C160.303 212.656 160.759 212.576 161.255 212.416V213.904C160.663 214.128 159.983 214.24 159.215 214.24ZM164.135 199.96V198.16H166.319V199.96H164.135ZM164.327 214V204.184H162.575L162.767 202.624H166.295V214H164.327ZM169.688 214V202.624H171.464L171.584 203.92C172.128 203.472 172.76 203.104 173.48 202.816C174.216 202.528 175.056 202.384 176 202.384C177.44 202.384 178.488 202.72 179.144 203.392C179.8 204.064 180.128 205.12 180.128 206.56V214H178.16V206.632C178.16 205.64 177.96 204.952 177.56 204.568C177.16 204.168 176.392 203.968 175.256 203.968C174.552 203.968 173.888 204.096 173.264 204.352C172.64 204.608 172.104 204.96 171.656 205.408V214H169.688ZM187.791 218.224C186.943 218.224 186.111 218.176 185.295 218.08C184.495 217.984 183.807 217.832 183.231 217.624V215.992C183.871 216.2 184.591 216.36 185.391 216.472C186.191 216.584 186.959 216.64 187.695 216.64C188.895 216.64 189.775 216.568 190.335 216.424C190.895 216.28 191.175 215.912 191.175 215.32C191.175 214.904 191.023 214.608 190.719 214.432C190.431 214.256 189.911 214.168 189.159 214.168H186.135C184.039 214.168 182.991 213.464 182.991 212.056C182.991 211.592 183.135 211.152 183.423 210.736C183.727 210.304 184.175 210 184.767 209.824C184.127 209.504 183.655 209.064 183.351 208.504C183.047 207.928 182.895 207.248 182.895 206.464C182.895 205.04 183.303 204.008 184.119 203.368C184.951 202.712 186.215 202.384 187.911 202.384C188.263 202.384 188.623 202.416 188.991 202.48C189.375 202.528 189.671 202.576 189.879 202.624H193.983L193.911 203.968H191.847C192.215 204.272 192.479 204.64 192.639 205.072C192.799 205.488 192.879 205.952 192.879 206.464C192.879 207.728 192.511 208.712 191.775 209.416C191.039 210.104 189.911 210.448 188.391 210.448C188.135 210.448 187.903 210.44 187.695 210.424C187.503 210.392 187.271 210.36 186.999 210.328C186.503 210.344 186.039 210.488 185.607 210.76C185.175 211.016 184.959 211.352 184.959 211.768C184.959 212.04 185.063 212.24 185.271 212.368C185.495 212.496 185.895 212.56 186.471 212.56H189.615C190.751 212.56 191.623 212.792 192.231 213.256C192.839 213.704 193.143 214.368 193.143 215.248C193.143 216.368 192.679 217.144 191.751 217.576C190.823 218.008 189.503 218.224 187.791 218.224ZM187.911 208.96C189.047 208.96 189.831 208.776 190.263 208.408C190.695 208.04 190.911 207.392 190.911 206.464C190.911 205.536 190.679 204.864 190.215 204.448C189.767 204.032 188.999 203.824 187.911 203.824C186.839 203.824 186.063 204.024 185.583 204.424C185.103 204.824 184.863 205.504 184.863 206.464C184.863 207.344 185.087 207.984 185.535 208.384C185.999 208.768 186.791 208.96 187.911 208.96ZM206.184 214.24C205.064 214.24 204.216 213.944 203.64 213.352C203.08 212.744 202.8 211.904 202.8 210.832V204.184H201.072V202.624H202.8V199.816L204.768 199.216V202.624H207.912L207.792 204.184H204.768V210.736C204.768 211.424 204.92 211.92 205.224 212.224C205.544 212.512 206.088 212.656 206.856 212.656C207.272 212.656 207.728 212.576 208.224 212.416V213.904C207.632 214.128 206.952 214.24 206.184 214.24ZM210.493 214V197.824H212.461V203.848C212.989 203.416 213.605 203.064 214.309 202.792C215.029 202.52 215.861 202.384 216.805 202.384C218.181 202.384 219.213 202.72 219.901 203.392C220.589 204.064 220.932 205.12 220.932 206.56V214H218.965V206.632C218.965 205.64 218.741 204.952 218.293 204.568C217.861 204.168 217.141 203.968 216.133 203.968C215.493 203.968 214.829 204.112 214.141 204.4C213.469 204.672 212.909 205.032 212.461 205.48V214H210.493ZM229.397 214.24C227.365 214.24 225.845 213.752 224.837 212.776C223.829 211.8 223.325 210.296 223.325 208.264C223.325 206.44 223.757 205.008 224.621 203.968C225.501 202.912 226.885 202.384 228.773 202.384C229.893 202.384 230.813 202.592 231.533 203.008C232.269 203.408 232.813 203.968 233.165 204.688C233.533 205.392 233.717 206.192 233.717 207.088V209.224H225.293C225.357 210.088 225.541 210.768 225.845 211.264C226.165 211.76 226.637 212.12 227.261 212.344C227.901 212.552 228.741 212.656 229.781 212.656C230.949 212.656 232.021 212.456 232.997 212.056V213.592C232.501 213.8 231.941 213.96 231.317 214.072C230.709 214.184 230.069 214.24 229.397 214.24ZM225.293 207.808H231.965V206.872C231.965 205.944 231.717 205.232 231.221 204.736C230.741 204.224 229.941 203.968 228.821 203.968C227.461 203.968 226.533 204.288 226.037 204.928C225.541 205.568 225.293 206.528 225.293 207.808ZM242.133 214V202.624H243.909L244.053 204.064C244.613 203.696 245.269 203.36 246.021 203.056C246.789 202.752 247.541 202.528 248.277 202.384V203.92C247.829 204.016 247.341 204.152 246.813 204.328C246.285 204.488 245.781 204.672 245.301 204.88C244.821 205.088 244.421 205.304 244.101 205.528V214H242.133ZM255.553 214.24C253.521 214.24 252.001 213.752 250.993 212.776C249.985 211.8 249.481 210.296 249.481 208.264C249.481 206.44 249.913 205.008 250.777 203.968C251.657 202.912 253.041 202.384 254.929 202.384C256.049 202.384 256.969 202.592 257.689 203.008C258.425 203.408 258.969 203.968 259.321 204.688C259.689 205.392 259.873 206.192 259.873 207.088V209.224H251.449C251.513 210.088 251.697 210.768 252.001 211.264C252.321 211.76 252.793 212.12 253.417 212.344C254.057 212.552 254.897 212.656 255.937 212.656C257.105 212.656 258.177 212.456 259.153 212.056V213.592C258.657 213.8 258.097 213.96 257.473 214.072C256.865 214.184 256.225 214.24 255.553 214.24ZM251.449 207.808H258.121V206.872C258.121 205.944 257.873 205.232 257.377 204.736C256.897 204.224 256.097 203.968 254.977 203.968C253.617 203.968 252.689 204.288 252.193 204.928C251.697 205.568 251.449 206.528 251.449 207.808ZM268.35 214.24C266.318 214.24 264.798 213.752 263.79 212.776C262.782 211.8 262.278 210.296 262.278 208.264C262.278 206.44 262.71 205.008 263.574 203.968C264.454 202.912 265.838 202.384 267.726 202.384C268.846 202.384 269.766 202.592 270.486 203.008C271.222 203.408 271.766 203.968 272.118 204.688C272.486 205.392 272.67 206.192 272.67 207.088V209.224H264.246C264.31 210.088 264.494 210.768 264.798 211.264C265.118 211.76 265.59 212.12 266.214 212.344C266.854 212.552 267.694 212.656 268.734 212.656C269.902 212.656 270.974 212.456 271.95 212.056V213.592C271.454 213.8 270.894 213.96 270.27 214.072C269.662 214.184 269.022 214.24 268.35 214.24ZM264.246 207.808H270.918V206.872C270.918 205.944 270.67 205.232 270.174 204.736C269.694 204.224 268.894 203.968 267.774 203.968C266.414 203.968 265.486 204.288 264.99 204.928C264.494 205.568 264.246 206.528 264.246 207.808ZM278.027 214.24C277.259 214.24 276.651 214.04 276.203 213.64C275.771 213.224 275.555 212.528 275.555 211.552V197.824H277.523V211.336C277.523 211.816 277.603 212.144 277.763 212.32C277.923 212.496 278.171 212.584 278.507 212.584C278.875 212.584 279.235 212.536 279.587 212.44V214C279.331 214.096 279.075 214.16 278.819 214.192C278.563 214.224 278.299 214.24 278.027 214.24ZM285.436 214.24C284.7 214.24 283.996 214.192 283.324 214.096C282.668 214 282.116 213.872 281.668 213.712V211.984C282.212 212.176 282.78 212.32 283.372 212.416C283.98 212.512 284.58 212.56 285.172 212.56C286.18 212.56 286.9 212.456 287.332 212.248C287.764 212.024 287.98 211.616 287.98 211.024C287.98 210.592 287.86 210.264 287.62 210.04C287.396 209.816 287.044 209.616 286.564 209.44C286.1 209.264 285.5 209.056 284.764 208.816C284.108 208.592 283.524 208.36 283.012 208.12C282.5 207.88 282.1 207.56 281.812 207.16C281.524 206.744 281.38 206.192 281.38 205.504C281.38 204.496 281.732 203.728 282.436 203.2C283.14 202.656 284.276 202.384 285.844 202.384C286.452 202.384 287.036 202.432 287.596 202.528C288.156 202.608 288.644 202.712 289.06 202.84V204.568C288.052 204.232 287.084 204.064 286.156 204.064C285.164 204.064 284.444 204.168 283.996 204.376C283.564 204.568 283.348 204.936 283.348 205.48C283.348 205.848 283.444 206.144 283.636 206.368C283.844 206.576 284.156 206.76 284.572 206.92C285.004 207.064 285.556 207.248 286.228 207.472C287.108 207.744 287.82 208.024 288.364 208.312C288.908 208.6 289.308 208.952 289.564 209.368C289.82 209.784 289.948 210.328 289.948 211C289.948 212.12 289.556 212.944 288.772 213.472C287.988 213.984 286.876 214.24 285.436 214.24ZM292.348 216.88L293.02 212.632H294.796L293.788 216.88H292.348ZM308.803 214.24C306.771 214.24 305.251 213.752 304.243 212.776C303.235 211.8 302.731 210.296 302.731 208.264C302.731 206.44 303.163 205.008 304.027 203.968C304.907 202.912 306.291 202.384 308.179 202.384C309.299 202.384 310.219 202.592 310.939 203.008C311.675 203.408 312.219 203.968 312.571 204.688C312.939 205.392 313.123 206.192 313.123 207.088V209.224H304.699C304.763 210.088 304.947 210.768 305.251 211.264C305.571 211.76 306.043 212.12 306.667 212.344C307.307 212.552 308.147 212.656 309.187 212.656C310.355 212.656 311.427 212.456 312.403 212.056V213.592C311.907 213.8 311.347 213.96 310.723 214.072C310.115 214.184 309.475 214.24 308.803 214.24ZM304.699 207.808H311.371V206.872C311.371 205.944 311.123 205.232 310.627 204.736C310.147 204.224 309.347 203.968 308.227 203.968C306.867 203.968 305.939 204.288 305.443 204.928C304.947 205.568 304.699 206.528 304.699 207.808ZM318.68 214L314.216 202.624H316.256L319.784 212.176L323.312 202.624H325.352L320.888 214H318.68ZM332.522 214.24C330.49 214.24 328.97 213.752 327.962 212.776C326.954 211.8 326.45 210.296 326.45 208.264C326.45 206.44 326.882 205.008 327.746 203.968C328.626 202.912 330.01 202.384 331.898 202.384C333.018 202.384 333.938 202.592 334.658 203.008C335.394 203.408 335.938 203.968 336.29 204.688C336.658 205.392 336.842 206.192 336.842 207.088V209.224H328.418C328.482 210.088 328.666 210.768 328.97 211.264C329.29 211.76 329.762 212.12 330.386 212.344C331.026 212.552 331.866 212.656 332.906 212.656C334.074 212.656 335.146 212.456 336.122 212.056V213.592C335.626 213.8 335.066 213.96 334.442 214.072C333.834 214.184 333.194 214.24 332.522 214.24ZM328.418 207.808H335.09V206.872C335.09 205.944 334.842 205.232 334.346 204.736C333.866 204.224 333.066 203.968 331.946 203.968C330.586 203.968 329.658 204.288 329.162 204.928C328.666 205.568 328.418 206.528 328.418 207.808ZM339.727 214V202.624H341.503L341.647 204.064C342.207 203.696 342.863 203.36 343.615 203.056C344.383 202.752 345.135 202.528 345.871 202.384V203.92C345.423 204.016 344.935 204.152 344.407 204.328C343.879 204.488 343.375 204.672 342.895 204.88C342.415 205.088 342.015 205.304 341.695 205.528V214H339.727ZM349.316 218.224C348.564 218.224 347.908 218.12 347.348 217.912V216.328C347.62 216.424 347.868 216.488 348.092 216.52C348.332 216.552 348.572 216.568 348.812 216.568C349.356 216.568 349.78 216.472 350.084 216.28C350.404 216.088 350.684 215.792 350.924 215.392C351.164 215.008 351.428 214.504 351.716 213.88L346.7 202.624H348.74L352.7 211.792L356.78 202.624H358.796L354.02 213.496C353.62 214.408 353.212 215.216 352.796 215.92C352.38 216.64 351.9 217.2 351.356 217.6C350.812 218.016 350.132 218.224 349.316 218.224ZM366.727 214V202.624H368.503L368.623 203.92C369.167 203.472 369.799 203.104 370.519 202.816C371.255 202.528 372.095 202.384 373.039 202.384C374.479 202.384 375.527 202.72 376.183 203.392C376.839 204.064 377.167 205.12 377.167 206.56V214H375.199V206.632C375.199 205.64 374.999 204.952 374.599 204.568C374.199 204.168 373.431 203.968 372.295 203.968C371.591 203.968 370.927 204.096 370.303 204.352C369.679 204.608 369.143 204.96 368.695 205.408V214H366.727ZM384.422 214.24C383.062 214.24 382.03 213.864 381.326 213.112C380.638 212.36 380.294 211.264 380.294 209.824V202.624H382.262V209.896C382.262 210.84 382.494 211.536 382.958 211.984C383.438 212.432 384.174 212.656 385.166 212.656C385.87 212.656 386.534 212.528 387.158 212.272C387.782 212.016 388.318 211.664 388.766 211.216V202.624H390.734V214H388.958L388.838 212.704C388.294 213.152 387.646 213.52 386.894 213.808C386.142 214.096 385.318 214.24 384.422 214.24ZM394.102 214V202.624H395.878L395.998 203.92C396.606 203.44 397.246 203.064 397.918 202.792C398.606 202.52 399.342 202.384 400.126 202.384C400.974 202.384 401.63 202.52 402.094 202.792C402.574 203.064 402.926 203.448 403.15 203.944C403.694 203.496 404.318 203.128 405.022 202.84C405.726 202.536 406.566 202.384 407.542 202.384C408.838 202.384 409.798 202.72 410.422 203.392C411.062 204.048 411.382 205.064 411.382 206.44V214H409.438V206.632C409.438 205.624 409.222 204.928 408.79 204.544C408.374 204.16 407.694 203.968 406.75 203.968C406.126 203.968 405.526 204.072 404.95 204.28C404.39 204.488 403.91 204.808 403.51 205.24C403.606 205.64 403.654 206.104 403.654 206.632V214H401.806V206.68C401.806 205.72 401.646 205.032 401.326 204.616C401.006 204.184 400.374 203.968 399.43 203.968C398.79 203.968 398.174 204.112 397.582 204.4C397.006 204.672 396.494 205.016 396.046 205.432V214H394.102ZM420.417 214.24C419.569 214.24 418.825 214.128 418.185 213.904C417.561 213.664 416.985 213.296 416.457 212.8L416.313 214H414.633V197.824H416.601V203.464C417.641 202.744 418.905 202.384 420.393 202.384C422.009 202.384 423.273 202.848 424.185 203.776C425.097 204.688 425.553 206.168 425.553 208.216C425.553 210.28 425.097 211.8 424.185 212.776C423.273 213.752 422.017 214.24 420.417 214.24ZM419.913 212.656C421.241 212.656 422.185 212.288 422.745 211.552C423.305 210.816 423.585 209.704 423.585 208.216C423.585 206.664 423.281 205.568 422.673 204.928C422.081 204.288 421.145 203.968 419.865 203.968C419.177 203.968 418.561 204.072 418.017 204.28C417.473 204.472 417.001 204.744 416.601 205.096V211.288C417.033 211.752 417.529 212.096 418.089 212.32C418.649 212.544 419.257 212.656 419.913 212.656ZM434.03 214.24C431.998 214.24 430.478 213.752 429.47 212.776C428.462 211.8 427.958 210.296 427.958 208.264C427.958 206.44 428.39 205.008 429.254 203.968C430.134 202.912 431.518 202.384 433.406 202.384C434.526 202.384 435.446 202.592 436.166 203.008C436.902 203.408 437.446 203.968 437.798 204.688C438.166 205.392 438.35 206.192 438.35 207.088V209.224H429.926C429.99 210.088 430.174 210.768 430.478 211.264C430.798 211.76 431.27 212.12 431.894 212.344C432.534 212.552 433.374 212.656 434.414 212.656C435.582 212.656 436.654 212.456 437.63 212.056V213.592C437.134 213.8 436.574 213.96 435.95 214.072C435.342 214.184 434.702 214.24 434.03 214.24ZM429.926 207.808H436.598V206.872C436.598 205.944 436.35 205.232 435.854 204.736C435.374 204.224 434.574 203.968 433.454 203.968C432.094 203.968 431.166 204.288 430.67 204.928C430.174 205.568 429.926 206.528 429.926 207.808ZM441.235 214V202.624H443.011L443.155 204.064C443.715 203.696 444.371 203.36 445.123 203.056C445.891 202.752 446.643 202.528 447.379 202.384V203.92C446.931 204.016 446.443 204.152 445.915 204.328C445.387 204.488 444.883 204.672 444.403 204.88C443.923 205.088 443.523 205.304 443.203 205.528V214H441.235ZM457.559 214L454.583 202.624H456.551L458.783 211.768L461.327 203.944V202.624H462.839L465.647 211.768L467.879 202.624H469.847L466.871 214H464.903L462.239 205.744L459.527 214H457.559ZM472.971 199.96V198.16H475.155V199.96H472.971ZM473.163 214V204.184H471.411L471.603 202.624H475.131V214H473.163ZM480.996 214.24C480.228 214.24 479.62 214.04 479.172 213.64C478.74 213.224 478.524 212.528 478.524 211.552V197.824H480.492V211.336C480.492 211.816 480.572 212.144 480.732 212.32C480.892 212.496 481.14 212.584 481.476 212.584C481.844 212.584 482.204 212.536 482.556 212.44V214C482.3 214.096 482.044 214.16 481.788 214.192C481.532 214.224 481.268 214.24 480.996 214.24ZM486.691 214.24C485.923 214.24 485.315 214.04 484.867 213.64C484.435 213.224 484.219 212.528 484.219 211.552V197.824H486.187V211.336C486.187 211.816 486.267 212.144 486.427 212.32C486.587 212.496 486.835 212.584 487.171 212.584C487.539 212.584 487.899 212.536 488.251 212.44V214C487.995 214.096 487.739 214.16 487.483 214.192C487.227 214.224 486.963 214.24 486.691 214.24ZM501.839 214.24C500.991 214.24 500.247 214.128 499.607 213.904C498.983 213.664 498.407 213.296 497.879 212.8L497.735 214H496.055V197.824H498.023V203.464C499.063 202.744 500.327 202.384 501.815 202.384C503.431 202.384 504.695 202.848 505.607 203.776C506.519 204.688 506.975 206.168 506.975 208.216C506.975 210.28 506.519 211.8 505.607 212.776C504.695 213.752 503.439 214.24 501.839 214.24ZM501.335 212.656C502.663 212.656 503.607 212.288 504.167 211.552C504.727 210.816 505.007 209.704 505.007 208.216C505.007 206.664 504.703 205.568 504.095 204.928C503.503 204.288 502.567 203.968 501.287 203.968C500.599 203.968 499.983 204.072 499.439 204.28C498.895 204.472 498.423 204.744 498.023 205.096V211.288C498.455 211.752 498.951 212.096 499.511 212.32C500.071 212.544 500.679 212.656 501.335 212.656ZM515.452 214.24C513.42 214.24 511.9 213.752 510.892 212.776C509.884 211.8 509.38 210.296 509.38 208.264C509.38 206.44 509.812 205.008 510.676 203.968C511.556 202.912 512.94 202.384 514.828 202.384C515.948 202.384 516.868 202.592 517.588 203.008C518.324 203.408 518.868 203.968 519.22 204.688C519.588 205.392 519.772 206.192 519.772 207.088V209.224H511.348C511.412 210.088 511.596 210.768 511.9 211.264C512.22 211.76 512.692 212.12 513.316 212.344C513.956 212.552 514.796 212.656 515.836 212.656C517.004 212.656 518.076 212.456 519.052 212.056V213.592C518.556 213.8 517.996 213.96 517.372 214.072C516.764 214.184 516.124 214.24 515.452 214.24ZM511.348 207.808H518.02V206.872C518.02 205.944 517.772 205.232 517.276 204.736C516.796 204.224 515.996 203.968 514.876 203.968C513.516 203.968 512.588 204.288 512.092 204.928C511.596 205.568 511.348 206.528 511.348 207.808ZM528.188 214V202.624H529.964L530.108 204.064C530.668 203.696 531.324 203.36 532.076 203.056C532.844 202.752 533.596 202.528 534.332 202.384V203.92C533.884 204.016 533.396 204.152 532.868 204.328C532.34 204.488 531.836 204.672 531.356 204.88C530.876 205.088 530.476 205.304 530.156 205.528V214H528.188ZM541.224 214.24C539.24 214.24 537.792 213.736 536.88 212.728C535.984 211.704 535.536 210.232 535.536 208.312C535.536 206.408 535.992 204.944 536.904 203.92C537.816 202.896 539.256 202.384 541.224 202.384C543.192 202.384 544.632 202.896 545.544 203.92C546.456 204.944 546.912 206.408 546.912 208.312C546.912 210.232 546.464 211.704 545.568 212.728C544.672 213.736 543.224 214.24 541.224 214.24ZM541.224 212.56C542.584 212.56 543.544 212.224 544.104 211.552C544.664 210.864 544.944 209.784 544.944 208.312C544.944 206.84 544.656 205.768 544.08 205.096C543.52 204.408 542.568 204.064 541.224 204.064C539.88 204.064 538.92 204.408 538.344 205.096C537.784 205.768 537.504 206.84 537.504 208.312C537.504 209.784 537.784 210.864 538.344 211.552C538.904 212.224 539.864 212.56 541.224 212.56ZM552.269 214.24C551.501 214.24 550.893 214.04 550.445 213.64C550.013 213.224 549.797 212.528 549.797 211.552V197.824H551.765V211.336C551.765 211.816 551.845 212.144 552.005 212.32C552.165 212.496 552.413 212.584 552.749 212.584C553.117 212.584 553.477 212.536 553.829 212.44V214C553.573 214.096 553.317 214.16 553.061 214.192C552.805 214.224 552.541 214.24 552.269 214.24ZM557.965 214.24C557.197 214.24 556.589 214.04 556.141 213.64C555.709 213.224 555.493 212.528 555.493 211.552V197.824H557.461V211.336C557.461 211.816 557.541 212.144 557.701 212.32C557.861 212.496 558.109 212.584 558.445 212.584C558.813 212.584 559.173 212.536 559.525 212.44V214C559.269 214.096 559.013 214.16 558.757 214.192C558.501 214.224 558.237 214.24 557.965 214.24ZM567.389 214.24C565.357 214.24 563.837 213.752 562.829 212.776C561.821 211.8 561.317 210.296 561.317 208.264C561.317 206.44 561.749 205.008 562.613 203.968C563.493 202.912 564.877 202.384 566.765 202.384C567.885 202.384 568.805 202.592 569.525 203.008C570.261 203.408 570.805 203.968 571.157 204.688C571.525 205.392 571.709 206.192 571.709 207.088V209.224H563.285C563.349 210.088 563.533 210.768 563.837 211.264C564.157 211.76 564.629 212.12 565.253 212.344C565.893 212.552 566.733 212.656 567.773 212.656C568.941 212.656 570.013 212.456 570.989 212.056V213.592C570.493 213.8 569.933 213.96 569.309 214.072C568.701 214.184 568.061 214.24 567.389 214.24ZM563.285 207.808H569.957V206.872C569.957 205.944 569.709 205.232 569.213 204.736C568.733 204.224 567.933 203.968 566.813 203.968C565.453 203.968 564.525 204.288 564.029 204.928C563.533 205.568 563.285 206.528 563.285 207.808ZM579.25 214.24C577.65 214.24 576.394 213.8 575.482 212.92C574.57 212.024 574.114 210.544 574.114 208.48C574.114 206.432 574.586 204.904 575.53 203.896C576.49 202.888 577.77 202.384 579.37 202.384C580.794 202.384 582.026 202.744 583.066 203.464V197.824H585.034V214H583.354L583.21 212.8C582.682 213.296 582.098 213.664 581.458 213.904C580.834 214.128 580.098 214.24 579.25 214.24ZM579.754 212.656C580.41 212.656 581.018 212.544 581.578 212.32C582.138 212.096 582.634 211.752 583.066 211.288V205.096C582.666 204.744 582.194 204.472 581.65 204.28C581.106 204.072 580.49 203.968 579.802 203.968C578.538 203.968 577.602 204.336 576.994 205.072C576.386 205.792 576.082 206.928 576.082 208.48C576.082 209.968 576.362 211.04 576.922 211.696C577.482 212.336 578.426 212.656 579.754 212.656ZM599.138 214.24C597.154 214.24 595.706 213.736 594.794 212.728C593.898 211.704 593.45 210.232 593.45 208.312C593.45 206.408 593.906 204.944 594.818 203.92C595.73 202.896 597.17 202.384 599.138 202.384C601.106 202.384 602.546 202.896 603.458 203.92C604.37 204.944 604.826 206.408 604.826 208.312C604.826 210.232 604.378 211.704 603.482 212.728C602.586 213.736 601.138 214.24 599.138 214.24ZM599.138 212.56C600.498 212.56 601.458 212.224 602.018 211.552C602.578 210.864 602.858 209.784 602.858 208.312C602.858 206.84 602.57 205.768 601.994 205.096C601.434 204.408 600.482 204.064 599.138 204.064C597.794 204.064 596.834 204.408 596.258 205.096C595.698 205.768 595.418 206.84 595.418 208.312C595.418 209.784 595.698 210.864 596.258 211.552C596.818 212.224 597.778 212.56 599.138 212.56ZM611.719 214.24C610.359 214.24 609.327 213.864 608.623 213.112C607.935 212.36 607.591 211.264 607.591 209.824V202.624H609.559V209.896C609.559 210.84 609.791 211.536 610.255 211.984C610.735 212.432 611.471 212.656 612.463 212.656C613.167 212.656 613.831 212.528 614.455 212.272C615.079 212.016 615.615 211.664 616.063 211.216V202.624H618.031V214H616.255L616.135 212.704C615.591 213.152 614.943 213.52 614.191 213.808C613.439 214.096 612.615 214.24 611.719 214.24ZM625.551 214.24C624.431 214.24 623.583 213.944 623.007 213.352C622.447 212.744 622.167 211.904 622.167 210.832V204.184H620.439V202.624H622.167V199.816L624.135 199.216V202.624H627.279L627.159 204.184H624.135V210.736C624.135 211.424 624.287 211.92 624.591 212.224C624.911 212.512 625.455 212.656 626.223 212.656C626.639 212.656 627.095 212.576 627.591 212.416V213.904C626.999 214.128 626.319 214.24 625.551 214.24ZM636.471 199.96V198.16H638.655V199.96H636.471ZM636.663 214V204.184H634.911L635.103 202.624H638.631V214H636.663ZM642.024 214V202.624H643.8L643.92 203.92C644.464 203.472 645.096 203.104 645.816 202.816C646.552 202.528 647.392 202.384 648.336 202.384C649.776 202.384 650.824 202.72 651.48 203.392C652.136 204.064 652.464 205.12 652.464 206.56V214H650.496V206.632C650.496 205.64 650.296 204.952 649.896 204.568C649.496 204.168 648.728 203.968 647.592 203.968C646.888 203.968 646.224 204.096 645.6 204.352C644.976 204.608 644.44 204.96 643.992 205.408V214H642.024ZM661.987 214V204.184H660.283V202.624H661.987V200.968C661.987 199.88 662.283 199.024 662.875 198.4C663.483 197.76 664.371 197.44 665.539 197.44C665.955 197.44 666.331 197.472 666.667 197.536C667.019 197.6 667.339 197.688 667.627 197.8V199.288C667.131 199.112 666.603 199.024 666.043 199.024C665.227 199.024 664.675 199.176 664.387 199.48C664.099 199.768 663.955 200.264 663.955 200.968V202.624H667.027L666.931 204.184H663.955V214H661.987ZM674.091 214.24C672.107 214.24 670.659 213.736 669.747 212.728C668.851 211.704 668.403 210.232 668.403 208.312C668.403 206.408 668.859 204.944 669.771 203.92C670.683 202.896 672.123 202.384 674.091 202.384C676.059 202.384 677.499 202.896 678.411 203.92C679.323 204.944 679.779 206.408 679.779 208.312C679.779 210.232 679.331 211.704 678.435 212.728C677.539 213.736 676.091 214.24 674.091 214.24ZM674.091 212.56C675.451 212.56 676.411 212.224 676.971 211.552C677.531 210.864 677.811 209.784 677.811 208.312C677.811 206.84 677.523 205.768 676.947 205.096C676.387 204.408 675.435 204.064 674.091 204.064C672.747 204.064 671.787 204.408 671.211 205.096C670.651 205.768 670.371 206.84 670.371 208.312C670.371 209.784 670.651 210.864 671.211 211.552C671.771 212.224 672.731 212.56 674.091 212.56ZM686.672 214.24C685.312 214.24 684.28 213.864 683.576 213.112C682.888 212.36 682.544 211.264 682.544 209.824V202.624H684.512V209.896C684.512 210.84 684.744 211.536 685.208 211.984C685.688 212.432 686.424 212.656 687.416 212.656C688.12 212.656 688.784 212.528 689.408 212.272C690.032 212.016 690.568 211.664 691.016 211.216V202.624H692.984V214H691.208L691.088 212.704C690.544 213.152 689.896 213.52 689.144 213.808C688.392 214.096 687.568 214.24 686.672 214.24ZM696.352 214V202.624H698.128L698.272 204.064C698.832 203.696 699.488 203.36 700.24 203.056C701.008 202.752 701.76 202.528 702.496 202.384V203.92C702.048 204.016 701.56 204.152 701.032 204.328C700.504 204.488 700 204.672 699.52 204.88C699.04 205.088 698.64 205.304 698.32 205.528V214H696.352ZM37.256 250.24C36.52 250.24 35.816 250.192 35.144 250.096C34.488 250 33.936 249.872 33.488 249.712V247.984C34.032 248.176 34.6 248.32 35.192 248.416C35.8 248.512 36.4 248.56 36.992 248.56C38 248.56 38.72 248.456 39.152 248.248C39.584 248.024 39.8 247.616 39.8 247.024C39.8 246.592 39.68 246.264 39.44 246.04C39.216 245.816 38.864 245.616 38.384 245.44C37.92 245.264 37.32 245.056 36.584 244.816C35.928 244.592 35.344 244.36 34.832 244.12C34.32 243.88 33.92 243.56 33.632 243.16C33.344 242.744 33.2 242.192 33.2 241.504C33.2 240.496 33.552 239.728 34.256 239.2C34.96 238.656 36.096 238.384 37.664 238.384C38.272 238.384 38.856 238.432 39.416 238.528C39.976 238.608 40.464 238.712 40.88 238.84V240.568C39.872 240.232 38.904 240.064 37.976 240.064C36.984 240.064 36.264 240.168 35.816 240.376C35.384 240.568 35.168 240.936 35.168 241.48C35.168 241.848 35.264 242.144 35.456 242.368C35.664 242.576 35.976 242.76 36.392 242.92C36.824 243.064 37.376 243.248 38.048 243.472C38.928 243.744 39.64 244.024 40.184 244.312C40.728 244.6 41.128 244.952 41.384 245.368C41.64 245.784 41.768 246.328 41.768 247C41.768 248.12 41.376 248.944 40.592 249.472C39.808 249.984 38.696 250.24 37.256 250.24ZM49.8892 250.24C47.8572 250.24 46.3372 249.752 45.3292 248.776C44.3212 247.8 43.8172 246.296 43.8172 244.264C43.8172 242.44 44.2492 241.008 45.1132 239.968C45.9932 238.912 47.3772 238.384 49.2652 238.384C50.3852 238.384 51.3052 238.592 52.0252 239.008C52.7612 239.408 53.3052 239.968 53.6572 240.688C54.0252 241.392 54.2092 242.192 54.2092 243.088V245.224H45.7852C45.8492 246.088 46.0332 246.768 46.3372 247.264C46.6572 247.76 47.1292 248.12 47.7532 248.344C48.3932 248.552 49.2332 248.656 50.2732 248.656C51.4412 248.656 52.5132 248.456 53.4892 248.056V249.592C52.9932 249.8 52.4332 249.96 51.8092 250.072C51.2012 250.184 50.5612 250.24 49.8892 250.24ZM45.7852 243.808H52.4572V242.872C52.4572 241.944 52.2092 241.232 51.7132 240.736C51.2332 240.224 50.4332 239.968 49.3132 239.968C47.9532 239.968 47.0252 240.288 46.5292 240.928C46.0332 241.568 45.7852 242.528 45.7852 243.808ZM57.0941 255.184V238.624H58.7741L58.9181 239.824C59.4461 239.328 60.0221 238.968 60.6461 238.744C61.2861 238.504 62.0301 238.384 62.8781 238.384C64.4781 238.384 65.7341 238.832 66.6461 239.728C67.5581 240.608 68.0141 242.08 68.0141 244.144C68.0141 246.192 67.5581 247.72 66.6461 248.728C65.7341 249.736 64.4701 250.24 62.8541 250.24C61.3661 250.24 60.1021 249.88 59.0621 249.16V255.184H57.0941ZM62.3261 248.656C63.6061 248.656 64.5421 248.296 65.1341 247.576C65.7421 246.84 66.0461 245.696 66.0461 244.144C66.0461 242.656 65.7661 241.592 65.2061 240.952C64.6461 240.296 63.7021 239.968 62.3741 239.968C61.7181 239.968 61.1101 240.08 60.5501 240.304C59.9901 240.528 59.4941 240.872 59.0621 241.336V247.528C59.4621 247.88 59.9341 248.16 60.4781 248.368C61.0221 248.56 61.6381 248.656 62.3261 248.656ZM74.3096 250.24C73.5896 250.24 72.9256 250.112 72.3176 249.856C71.7096 249.6 71.2216 249.224 70.8536 248.728C70.4856 248.216 70.3016 247.576 70.3016 246.808C70.3016 245.768 70.6456 244.92 71.3336 244.264C72.0216 243.592 73.1416 243.256 74.6936 243.256H78.6536V242.56C78.6536 241.936 78.5656 241.44 78.3896 241.072C78.2296 240.704 77.9176 240.44 77.4536 240.28C76.9896 240.12 76.3096 240.04 75.4136 240.04C74.7256 240.04 74.0616 240.096 73.4216 240.208C72.7816 240.32 72.1816 240.472 71.6216 240.664V239.032C72.1336 238.84 72.7336 238.688 73.4216 238.576C74.1256 238.448 74.8776 238.384 75.6776 238.384C77.2936 238.384 78.5016 238.712 79.3016 239.368C80.1176 240.024 80.5256 241.088 80.5256 242.56V250H78.8696L78.7256 248.704C78.2296 249.216 77.6296 249.6 76.9256 249.856C76.2216 250.112 75.3496 250.24 74.3096 250.24ZM74.8136 248.632C75.6456 248.632 76.3816 248.488 77.0216 248.2C77.6616 247.896 78.2056 247.488 78.6536 246.976V244.768H74.7416C73.8456 244.768 73.2056 244.936 72.8216 245.272C72.4376 245.608 72.2456 246.12 72.2456 246.808C72.2456 247.496 72.4776 247.976 72.9416 248.248C73.4056 248.504 74.0296 248.632 74.8136 248.632ZM83.7659 250V238.624H85.5419L85.6859 240.064C86.2459 239.696 86.9019 239.36 87.6539 239.056C88.4219 238.752 89.1739 238.528 89.9099 238.384V239.92C89.4619 240.016 88.9739 240.152 88.4459 240.328C87.9179 240.488 87.4139 240.672 86.9339 240.88C86.4539 241.088 86.0539 241.304 85.7339 241.528V250H83.7659ZM94.8643 250.24C94.1443 250.24 93.4803 250.112 92.8723 249.856C92.2643 249.6 91.7763 249.224 91.4083 248.728C91.0403 248.216 90.8563 247.576 90.8563 246.808C90.8563 245.768 91.2003 244.92 91.8883 244.264C92.5763 243.592 93.6963 243.256 95.2483 243.256H99.2083V242.56C99.2083 241.936 99.1203 241.44 98.9443 241.072C98.7843 240.704 98.4723 240.44 98.0083 240.28C97.5443 240.12 96.8643 240.04 95.9683 240.04C95.2803 240.04 94.6163 240.096 93.9763 240.208C93.3363 240.32 92.7363 240.472 92.1763 240.664V239.032C92.6883 238.84 93.2883 238.688 93.9763 238.576C94.6803 238.448 95.4323 238.384 96.2323 238.384C97.8483 238.384 99.0563 238.712 99.8563 239.368C100.672 240.024 101.08 241.088 101.08 242.56V250H99.4243L99.2803 248.704C98.7843 249.216 98.1843 249.6 97.4803 249.856C96.7763 250.112 95.9043 250.24 94.8643 250.24ZM95.3683 248.632C96.2003 248.632 96.9363 248.488 97.5763 248.2C98.2163 247.896 98.7603 247.488 99.2083 246.976V244.768H95.2963C94.4003 244.768 93.7603 244.936 93.3763 245.272C92.9923 245.608 92.8003 246.12 92.8003 246.808C92.8003 247.496 93.0323 247.976 93.4963 248.248C93.9603 248.504 94.5843 248.632 95.3683 248.632ZM108.473 250.24C107.353 250.24 106.505 249.944 105.929 249.352C105.369 248.744 105.089 247.904 105.089 246.832V240.184H103.361V238.624H105.089V235.816L107.057 235.216V238.624H110.201L110.081 240.184H107.057V246.736C107.057 247.424 107.209 247.92 107.513 248.224C107.833 248.512 108.377 248.656 109.145 248.656C109.561 248.656 110.017 248.576 110.513 248.416V249.904C109.921 250.128 109.241 250.24 108.473 250.24ZM118.374 250.24C116.342 250.24 114.822 249.752 113.814 248.776C112.806 247.8 112.302 246.296 112.302 244.264C112.302 242.44 112.734 241.008 113.598 239.968C114.478 238.912 115.862 238.384 117.75 238.384C118.87 238.384 119.79 238.592 120.51 239.008C121.246 239.408 121.79 239.968 122.142 240.688C122.51 241.392 122.694 242.192 122.694 243.088V245.224H114.27C114.334 246.088 114.518 246.768 114.822 247.264C115.142 247.76 115.614 248.12 116.238 248.344C116.878 248.552 117.718 248.656 118.758 248.656C119.926 248.656 120.998 248.456 121.974 248.056V249.592C121.478 249.8 120.918 249.96 120.294 250.072C119.686 250.184 119.046 250.24 118.374 250.24ZM114.27 243.808H120.942V242.872C120.942 241.944 120.694 241.232 120.198 240.736C119.718 240.224 118.918 239.968 117.798 239.968C116.438 239.968 115.51 240.288 115.014 240.928C114.518 241.568 114.27 242.528 114.27 243.808ZM135.262 250.24C134.142 250.24 133.294 249.944 132.718 249.352C132.158 248.744 131.878 247.904 131.878 246.832V240.184H130.15V238.624H131.878V235.816L133.846 235.216V238.624H136.99L136.87 240.184H133.846V246.736C133.846 247.424 133.998 247.92 134.302 248.224C134.622 248.512 135.166 248.656 135.934 248.656C136.35 248.656 136.806 248.576 137.302 248.416V249.904C136.71 250.128 136.03 250.24 135.262 250.24ZM139.571 250V238.624H141.347L141.491 240.064C142.051 239.696 142.707 239.36 143.459 239.056C144.227 238.752 144.979 238.528 145.715 238.384V239.92C145.267 240.016 144.779 240.152 144.251 240.328C143.723 240.488 143.219 240.672 142.739 240.88C142.259 241.088 141.859 241.304 141.539 241.528V250H139.571ZM150.669 250.24C149.949 250.24 149.285 250.112 148.677 249.856C148.069 249.6 147.581 249.224 147.213 248.728C146.845 248.216 146.661 247.576 146.661 246.808C146.661 245.768 147.005 244.92 147.693 244.264C148.381 243.592 149.501 243.256 151.053 243.256H155.013V242.56C155.013 241.936 154.925 241.44 154.749 241.072C154.589 240.704 154.277 240.44 153.813 240.28C153.349 240.12 152.669 240.04 151.773 240.04C151.085 240.04 150.421 240.096 149.781 240.208C149.141 240.32 148.541 240.472 147.981 240.664V239.032C148.493 238.84 149.093 238.688 149.781 238.576C150.485 238.448 151.237 238.384 152.037 238.384C153.653 238.384 154.861 238.712 155.661 239.368C156.477 240.024 156.885 241.088 156.885 242.56V250H155.229L155.085 248.704C154.589 249.216 153.989 249.6 153.285 249.856C152.581 250.112 151.709 250.24 150.669 250.24ZM151.173 248.632C152.005 248.632 152.741 248.488 153.381 248.2C154.021 247.896 154.565 247.488 155.013 246.976V244.768H151.101C150.205 244.768 149.565 244.936 149.181 245.272C148.797 245.608 148.605 246.12 148.605 246.808C148.605 247.496 148.837 247.976 149.301 248.248C149.765 248.504 150.389 248.632 151.173 248.632ZM160.125 250V238.624H161.901L162.021 239.92C162.565 239.472 163.197 239.104 163.917 238.816C164.653 238.528 165.493 238.384 166.437 238.384C167.877 238.384 168.925 238.72 169.581 239.392C170.237 240.064 170.565 241.12 170.565 242.56V250H168.597V242.632C168.597 241.64 168.397 240.952 167.997 240.568C167.597 240.168 166.829 239.968 165.693 239.968C164.989 239.968 164.325 240.096 163.701 240.352C163.077 240.608 162.541 240.96 162.093 241.408V250H160.125ZM177.389 250.24C176.653 250.24 175.949 250.192 175.277 250.096C174.621 250 174.069 249.872 173.621 249.712V247.984C174.165 248.176 174.733 248.32 175.325 248.416C175.933 248.512 176.533 248.56 177.125 248.56C178.133 248.56 178.853 248.456 179.285 248.248C179.717 248.024 179.933 247.616 179.933 247.024C179.933 246.592 179.813 246.264 179.573 246.04C179.349 245.816 178.997 245.616 178.517 245.44C178.053 245.264 177.453 245.056 176.717 244.816C176.061 244.592 175.477 244.36 174.965 244.12C174.453 243.88 174.053 243.56 173.765 243.16C173.477 242.744 173.333 242.192 173.333 241.504C173.333 240.496 173.685 239.728 174.389 239.2C175.093 238.656 176.229 238.384 177.797 238.384C178.405 238.384 178.989 238.432 179.549 238.528C180.109 238.608 180.597 238.712 181.013 238.84V240.568C180.005 240.232 179.037 240.064 178.109 240.064C177.117 240.064 176.397 240.168 175.949 240.376C175.517 240.568 175.301 240.936 175.301 241.48C175.301 241.848 175.397 242.144 175.589 242.368C175.797 242.576 176.109 242.76 176.525 242.92C176.957 243.064 177.509 243.248 178.181 243.472C179.061 243.744 179.773 244.024 180.317 244.312C180.861 244.6 181.261 244.952 181.517 245.368C181.773 245.784 181.901 246.328 181.901 247C181.901 248.12 181.509 248.944 180.725 249.472C179.941 249.984 178.829 250.24 177.389 250.24ZM184.782 255.184V238.624H186.462L186.606 239.824C187.134 239.328 187.71 238.968 188.334 238.744C188.974 238.504 189.718 238.384 190.566 238.384C192.166 238.384 193.422 238.832 194.334 239.728C195.246 240.608 195.702 242.08 195.702 244.144C195.702 246.192 195.246 247.72 194.334 248.728C193.422 249.736 192.158 250.24 190.542 250.24C189.054 250.24 187.79 249.88 186.75 249.16V255.184H184.782ZM190.014 248.656C191.294 248.656 192.23 248.296 192.822 247.576C193.43 246.84 193.734 245.696 193.734 244.144C193.734 242.656 193.454 241.592 192.894 240.952C192.334 240.296 191.39 239.968 190.062 239.968C189.406 239.968 188.798 240.08 188.238 240.304C187.678 240.528 187.182 240.872 186.75 241.336V247.528C187.15 247.88 187.622 248.16 188.166 248.368C188.71 248.56 189.326 248.656 190.014 248.656ZM201.997 250.24C201.277 250.24 200.613 250.112 200.005 249.856C199.397 249.6 198.909 249.224 198.541 248.728C198.173 248.216 197.989 247.576 197.989 246.808C197.989 245.768 198.333 244.92 199.021 244.264C199.709 243.592 200.829 243.256 202.381 243.256H206.341V242.56C206.341 241.936 206.253 241.44 206.077 241.072C205.917 240.704 205.605 240.44 205.141 240.28C204.677 240.12 203.997 240.04 203.101 240.04C202.413 240.04 201.749 240.096 201.109 240.208C200.469 240.32 199.869 240.472 199.309 240.664V239.032C199.821 238.84 200.421 238.688 201.109 238.576C201.813 238.448 202.565 238.384 203.365 238.384C204.981 238.384 206.189 238.712 206.989 239.368C207.805 240.024 208.213 241.088 208.213 242.56V250H206.557L206.413 248.704C205.917 249.216 205.317 249.6 204.613 249.856C203.909 250.112 203.037 250.24 201.997 250.24ZM202.501 248.632C203.333 248.632 204.069 248.488 204.709 248.2C205.349 247.896 205.893 247.488 206.341 246.976V244.768H202.429C201.533 244.768 200.893 244.936 200.509 245.272C200.125 245.608 199.933 246.12 199.933 246.808C199.933 247.496 200.165 247.976 200.629 248.248C201.093 248.504 201.717 248.632 202.501 248.632ZM211.453 250V238.624H213.229L213.373 240.064C213.933 239.696 214.589 239.36 215.341 239.056C216.109 238.752 216.861 238.528 217.597 238.384V239.92C217.149 240.016 216.661 240.152 216.133 240.328C215.605 240.488 215.101 240.672 214.621 240.88C214.141 241.088 213.741 241.304 213.421 241.528V250H211.453ZM224.874 250.24C222.842 250.24 221.322 249.752 220.314 248.776C219.306 247.8 218.802 246.296 218.802 244.264C218.802 242.44 219.234 241.008 220.098 239.968C220.978 238.912 222.362 238.384 224.25 238.384C225.37 238.384 226.29 238.592 227.01 239.008C227.746 239.408 228.29 239.968 228.642 240.688C229.01 241.392 229.194 242.192 229.194 243.088V245.224H220.77C220.834 246.088 221.018 246.768 221.322 247.264C221.642 247.76 222.114 248.12 222.738 248.344C223.378 248.552 224.218 248.656 225.258 248.656C226.426 248.656 227.498 248.456 228.474 248.056V249.592C227.978 249.8 227.418 249.96 226.794 250.072C226.186 250.184 225.546 250.24 224.874 250.24ZM220.77 243.808H227.442V242.872C227.442 241.944 227.194 241.232 226.698 240.736C226.218 240.224 225.418 239.968 224.298 239.968C222.938 239.968 222.01 240.288 221.514 240.928C221.018 241.568 220.77 242.528 220.77 243.808ZM232.078 250V238.624H233.854L233.974 239.92C234.518 239.472 235.15 239.104 235.87 238.816C236.606 238.528 237.446 238.384 238.39 238.384C239.83 238.384 240.878 238.72 241.534 239.392C242.19 240.064 242.518 241.12 242.518 242.56V250H240.55V242.632C240.55 241.64 240.35 240.952 239.95 240.568C239.55 240.168 238.782 239.968 237.646 239.968C236.942 239.968 236.278 240.096 235.654 240.352C235.03 240.608 234.494 240.96 234.046 241.408V250H232.078ZM249.918 250.24C248.798 250.24 247.95 249.944 247.374 249.352C246.814 248.744 246.534 247.904 246.534 246.832V240.184H244.806V238.624H246.534V235.816L248.502 235.216V238.624H251.646L251.526 240.184H248.502V246.736C248.502 247.424 248.654 247.92 248.958 248.224C249.278 248.512 249.822 248.656 250.59 248.656C251.006 248.656 251.462 248.576 251.958 248.416V249.904C251.366 250.128 250.686 250.24 249.918 250.24ZM259.758 255.184V238.624H261.438L261.582 239.824C262.11 239.328 262.686 238.968 263.31 238.744C263.95 238.504 264.694 238.384 265.542 238.384C267.142 238.384 268.398 238.832 269.31 239.728C270.222 240.608 270.678 242.08 270.678 244.144C270.678 246.192 270.222 247.72 269.31 248.728C268.398 249.736 267.134 250.24 265.518 250.24C264.03 250.24 262.766 249.88 261.726 249.16V255.184H259.758ZM264.99 248.656C266.27 248.656 267.206 248.296 267.798 247.576C268.406 246.84 268.71 245.696 268.71 244.144C268.71 242.656 268.43 241.592 267.87 240.952C267.31 240.296 266.366 239.968 265.038 239.968C264.382 239.968 263.774 240.08 263.214 240.304C262.654 240.528 262.158 240.872 261.726 241.336V247.528C262.126 247.88 262.598 248.16 263.142 248.368C263.686 248.56 264.302 248.656 264.99 248.656ZM276.035 250.24C275.267 250.24 274.659 250.04 274.211 249.64C273.779 249.224 273.563 248.528 273.563 247.552V233.824H275.531V247.336C275.531 247.816 275.611 248.144 275.771 248.32C275.931 248.496 276.179 248.584 276.515 248.584C276.883 248.584 277.243 248.536 277.595 248.44V250C277.339 250.096 277.083 250.16 276.827 250.192C276.571 250.224 276.307 250.24 276.035 250.24ZM283.396 250.24C282.676 250.24 282.012 250.112 281.404 249.856C280.796 249.6 280.308 249.224 279.94 248.728C279.572 248.216 279.388 247.576 279.388 246.808C279.388 245.768 279.732 244.92 280.42 244.264C281.108 243.592 282.228 243.256 283.78 243.256H287.74V242.56C287.74 241.936 287.652 241.44 287.476 241.072C287.316 240.704 287.004 240.44 286.54 240.28C286.076 240.12 285.396 240.04 284.5 240.04C283.812 240.04 283.148 240.096 282.508 240.208C281.868 240.32 281.268 240.472 280.708 240.664V239.032C281.22 238.84 281.82 238.688 282.508 238.576C283.212 238.448 283.964 238.384 284.764 238.384C286.38 238.384 287.588 238.712 288.388 239.368C289.204 240.024 289.612 241.088 289.612 242.56V250H287.956L287.812 248.704C287.316 249.216 286.716 249.6 286.012 249.856C285.308 250.112 284.436 250.24 283.396 250.24ZM283.9 248.632C284.732 248.632 285.468 248.488 286.108 248.2C286.748 247.896 287.292 247.488 287.74 246.976V244.768H283.828C282.932 244.768 282.292 244.936 281.908 245.272C281.524 245.608 281.332 246.12 281.332 246.808C281.332 247.496 281.564 247.976 282.028 248.248C282.492 248.504 283.116 248.632 283.9 248.632ZM298.228 250.24C296.244 250.24 294.772 249.728 293.812 248.704C292.852 247.664 292.372 246.2 292.372 244.312C292.372 242.312 292.916 240.824 294.004 239.848C295.092 238.872 296.556 238.384 298.396 238.384C299.148 238.384 299.772 238.44 300.268 238.552C300.764 238.648 301.244 238.808 301.708 239.032V240.592C300.844 240.176 299.86 239.968 298.756 239.968C297.348 239.968 296.26 240.304 295.492 240.976C294.724 241.632 294.34 242.744 294.34 244.312C294.34 245.816 294.676 246.92 295.348 247.624C296.02 248.312 297.132 248.656 298.684 248.656C299.788 248.656 300.804 248.448 301.732 248.032V249.616C301.236 249.824 300.7 249.976 300.124 250.072C299.564 250.184 298.932 250.24 298.228 250.24ZM309.53 250.24C307.498 250.24 305.978 249.752 304.97 248.776C303.962 247.8 303.458 246.296 303.458 244.264C303.458 242.44 303.89 241.008 304.754 239.968C305.634 238.912 307.018 238.384 308.906 238.384C310.026 238.384 310.946 238.592 311.666 239.008C312.402 239.408 312.946 239.968 313.298 240.688C313.666 241.392 313.85 242.192 313.85 243.088V245.224H305.426C305.49 246.088 305.674 246.768 305.978 247.264C306.298 247.76 306.77 248.12 307.394 248.344C308.034 248.552 308.874 248.656 309.914 248.656C311.082 248.656 312.154 248.456 313.13 248.056V249.592C312.634 249.8 312.074 249.96 311.45 250.072C310.842 250.184 310.202 250.24 309.53 250.24ZM305.426 243.808H312.098V242.872C312.098 241.944 311.85 241.232 311.354 240.736C310.874 240.224 310.074 239.968 308.954 239.968C307.594 239.968 306.666 240.288 306.17 240.928C305.674 241.568 305.426 242.528 305.426 243.808ZM316.735 250V233.824H318.703V239.848C319.231 239.416 319.847 239.064 320.551 238.792C321.271 238.52 322.103 238.384 323.047 238.384C324.423 238.384 325.455 238.72 326.143 239.392C326.831 240.064 327.175 241.12 327.175 242.56V250H325.207V242.632C325.207 241.64 324.983 240.952 324.535 240.568C324.103 240.168 323.383 239.968 322.375 239.968C321.735 239.968 321.071 240.112 320.383 240.4C319.711 240.672 319.151 241.032 318.703 241.48V250H316.735ZM335.255 250.24C333.271 250.24 331.823 249.736 330.911 248.728C330.015 247.704 329.567 246.232 329.567 244.312C329.567 242.408 330.023 240.944 330.935 239.92C331.847 238.896 333.287 238.384 335.255 238.384C337.223 238.384 338.663 238.896 339.575 239.92C340.487 240.944 340.943 242.408 340.943 244.312C340.943 246.232 340.495 247.704 339.599 248.728C338.703 249.736 337.255 250.24 335.255 250.24ZM335.255 248.56C336.615 248.56 337.575 248.224 338.135 247.552C338.695 246.864 338.975 245.784 338.975 244.312C338.975 242.84 338.687 241.768 338.111 241.096C337.551 240.408 336.599 240.064 335.255 240.064C333.911 240.064 332.951 240.408 332.375 241.096C331.815 241.768 331.535 242.84 331.535 244.312C331.535 245.784 331.815 246.864 332.375 247.552C332.935 248.224 333.895 248.56 335.255 248.56ZM346.3 250.24C345.532 250.24 344.924 250.04 344.476 249.64C344.044 249.224 343.828 248.528 343.828 247.552V233.824H345.796V247.336C345.796 247.816 345.876 248.144 346.036 248.32C346.196 248.496 346.444 248.584 346.78 248.584C347.148 248.584 347.508 248.536 347.86 248.44V250C347.604 250.096 347.348 250.16 347.092 250.192C346.836 250.224 346.572 250.24 346.3 250.24ZM354.789 250.24C353.189 250.24 351.933 249.8 351.021 248.92C350.109 248.024 349.653 246.544 349.653 244.48C349.653 242.432 350.125 240.904 351.069 239.896C352.029 238.888 353.309 238.384 354.909 238.384C356.333 238.384 357.565 238.744 358.605 239.464V233.824H360.573V250H358.893L358.749 248.8C358.221 249.296 357.637 249.664 356.997 249.904C356.373 250.128 355.637 250.24 354.789 250.24ZM355.293 248.656C355.949 248.656 356.557 248.544 357.117 248.32C357.677 248.096 358.173 247.752 358.605 247.288V241.096C358.205 240.744 357.733 240.472 357.189 240.28C356.645 240.072 356.029 239.968 355.341 239.968C354.077 239.968 353.141 240.336 352.533 241.072C351.925 241.792 351.621 242.928 351.621 244.48C351.621 245.968 351.901 247.04 352.461 247.696C353.021 248.336 353.965 248.656 355.293 248.656ZM369.295 250.24C367.263 250.24 365.743 249.752 364.735 248.776C363.727 247.8 363.223 246.296 363.223 244.264C363.223 242.44 363.655 241.008 364.519 239.968C365.399 238.912 366.783 238.384 368.671 238.384C369.791 238.384 370.711 238.592 371.431 239.008C372.167 239.408 372.711 239.968 373.063 240.688C373.431 241.392 373.615 242.192 373.615 243.088V245.224H365.191C365.255 246.088 365.439 246.768 365.743 247.264C366.063 247.76 366.535 248.12 367.159 248.344C367.799 248.552 368.639 248.656 369.679 248.656C370.847 248.656 371.919 248.456 372.895 248.056V249.592C372.399 249.8 371.839 249.96 371.215 250.072C370.607 250.184 369.967 250.24 369.295 250.24ZM365.191 243.808H371.863V242.872C371.863 241.944 371.615 241.232 371.119 240.736C370.639 240.224 369.839 239.968 368.719 239.968C367.359 239.968 366.431 240.288 365.935 240.928C365.439 241.568 365.191 242.528 365.191 243.808ZM376.5 250V238.624H378.276L378.42 240.064C378.98 239.696 379.636 239.36 380.388 239.056C381.156 238.752 381.908 238.528 382.644 238.384V239.92C382.196 240.016 381.708 240.152 381.18 240.328C380.652 240.488 380.148 240.672 379.668 240.88C379.188 241.088 378.788 241.304 378.468 241.528V250H376.5ZM388.256 250.24C387.52 250.24 386.816 250.192 386.144 250.096C385.488 250 384.936 249.872 384.488 249.712V247.984C385.032 248.176 385.6 248.32 386.192 248.416C386.8 248.512 387.4 248.56 387.992 248.56C389 248.56 389.72 248.456 390.152 248.248C390.584 248.024 390.8 247.616 390.8 247.024C390.8 246.592 390.68 246.264 390.44 246.04C390.216 245.816 389.864 245.616 389.384 245.44C388.92 245.264 388.32 245.056 387.584 244.816C386.928 244.592 386.344 244.36 385.832 244.12C385.32 243.88 384.92 243.56 384.632 243.16C384.344 242.744 384.2 242.192 384.2 241.504C384.2 240.496 384.552 239.728 385.256 239.2C385.96 238.656 387.096 238.384 388.664 238.384C389.272 238.384 389.856 238.432 390.416 238.528C390.976 238.608 391.464 238.712 391.88 238.84V240.568C390.872 240.232 389.904 240.064 388.976 240.064C387.984 240.064 387.264 240.168 386.816 240.376C386.384 240.568 386.168 240.936 386.168 241.48C386.168 241.848 386.264 242.144 386.456 242.368C386.664 242.576 386.976 242.76 387.392 242.92C387.824 243.064 388.376 243.248 389.048 243.472C389.928 243.744 390.64 244.024 391.184 244.312C391.728 244.6 392.128 244.952 392.384 245.368C392.64 245.784 392.768 246.328 392.768 247C392.768 248.12 392.376 248.944 391.592 249.472C390.808 249.984 389.696 250.24 388.256 250.24ZM405.332 250.24C404.212 250.24 403.364 249.944 402.788 249.352C402.228 248.744 401.948 247.904 401.948 246.832V240.184H400.22V238.624H401.948V235.816L403.916 235.216V238.624H407.06L406.94 240.184H403.916V246.736C403.916 247.424 404.068 247.92 404.372 248.224C404.692 248.512 405.236 248.656 406.004 248.656C406.42 248.656 406.876 248.576 407.372 248.416V249.904C406.78 250.128 406.1 250.24 405.332 250.24ZM414.849 250.24C412.865 250.24 411.417 249.736 410.505 248.728C409.609 247.704 409.161 246.232 409.161 244.312C409.161 242.408 409.617 240.944 410.529 239.92C411.441 238.896 412.881 238.384 414.849 238.384C416.817 238.384 418.257 238.896 419.169 239.92C420.081 240.944 420.537 242.408 420.537 244.312C420.537 246.232 420.089 247.704 419.193 248.728C418.297 249.736 416.849 250.24 414.849 250.24ZM414.849 248.56C416.209 248.56 417.169 248.224 417.729 247.552C418.289 246.864 418.569 245.784 418.569 244.312C418.569 242.84 418.281 241.768 417.705 241.096C417.145 240.408 416.193 240.064 414.849 240.064C413.505 240.064 412.545 240.408 411.969 241.096C411.409 241.768 411.129 242.84 411.129 244.312C411.129 245.784 411.409 246.864 411.969 247.552C412.529 248.224 413.489 248.56 414.849 248.56ZM434.737 250.24C433.889 250.24 433.145 250.128 432.505 249.904C431.881 249.664 431.305 249.296 430.777 248.8L430.633 250H428.953V233.824H430.921V239.464C431.961 238.744 433.225 238.384 434.713 238.384C436.329 238.384 437.593 238.848 438.505 239.776C439.417 240.688 439.873 242.168 439.873 244.216C439.873 246.28 439.417 247.8 438.505 248.776C437.593 249.752 436.337 250.24 434.737 250.24ZM434.233 248.656C435.561 248.656 436.505 248.288 437.065 247.552C437.625 246.816 437.905 245.704 437.905 244.216C437.905 242.664 437.601 241.568 436.993 240.928C436.401 240.288 435.465 239.968 434.185 239.968C433.497 239.968 432.881 240.072 432.337 240.28C431.793 240.472 431.321 240.744 430.921 241.096V247.288C431.353 247.752 431.849 248.096 432.409 248.32C432.969 248.544 433.577 248.656 434.233 248.656ZM448.35 250.24C446.318 250.24 444.798 249.752 443.79 248.776C442.782 247.8 442.278 246.296 442.278 244.264C442.278 242.44 442.71 241.008 443.574 239.968C444.454 238.912 445.838 238.384 447.726 238.384C448.846 238.384 449.766 238.592 450.486 239.008C451.222 239.408 451.766 239.968 452.118 240.688C452.486 241.392 452.67 242.192 452.67 243.088V245.224H444.246C444.31 246.088 444.494 246.768 444.798 247.264C445.118 247.76 445.59 248.12 446.214 248.344C446.854 248.552 447.694 248.656 448.734 248.656C449.902 248.656 450.974 248.456 451.95 248.056V249.592C451.454 249.8 450.894 249.96 450.27 250.072C449.662 250.184 449.022 250.24 448.35 250.24ZM444.246 243.808H450.918V242.872C450.918 241.944 450.67 241.232 450.174 240.736C449.694 240.224 448.894 239.968 447.774 239.968C446.414 239.968 445.486 240.288 444.99 240.928C444.494 241.568 444.246 242.528 444.246 243.808ZM460.931 250.24C458.947 250.24 457.475 249.728 456.515 248.704C455.555 247.664 455.075 246.2 455.075 244.312C455.075 242.312 455.619 240.824 456.707 239.848C457.795 238.872 459.259 238.384 461.099 238.384C461.851 238.384 462.475 238.44 462.971 238.552C463.467 238.648 463.947 238.808 464.411 239.032V240.592C463.547 240.176 462.563 239.968 461.459 239.968C460.051 239.968 458.963 240.304 458.195 240.976C457.427 241.632 457.043 242.744 457.043 244.312C457.043 245.816 457.379 246.92 458.051 247.624C458.723 248.312 459.835 248.656 461.387 248.656C462.491 248.656 463.507 248.448 464.435 248.032V249.616C463.939 249.824 463.403 249.976 462.827 250.072C462.267 250.184 461.635 250.24 460.931 250.24ZM471.849 250.24C469.865 250.24 468.417 249.736 467.505 248.728C466.609 247.704 466.161 246.232 466.161 244.312C466.161 242.408 466.617 240.944 467.529 239.92C468.441 238.896 469.881 238.384 471.849 238.384C473.817 238.384 475.257 238.896 476.169 239.92C477.081 240.944 477.537 242.408 477.537 244.312C477.537 246.232 477.089 247.704 476.193 248.728C475.297 249.736 473.849 250.24 471.849 250.24ZM471.849 248.56C473.209 248.56 474.169 248.224 474.729 247.552C475.289 246.864 475.569 245.784 475.569 244.312C475.569 242.84 475.281 241.768 474.705 241.096C474.145 240.408 473.193 240.064 471.849 240.064C470.505 240.064 469.545 240.408 468.969 241.096C468.409 241.768 468.129 242.84 468.129 244.312C468.129 245.784 468.409 246.864 468.969 247.552C469.529 248.224 470.489 248.56 471.849 248.56ZM480.422 250V238.624H482.198L482.318 239.92C482.926 239.44 483.566 239.064 484.238 238.792C484.926 238.52 485.662 238.384 486.446 238.384C487.294 238.384 487.95 238.52 488.414 238.792C488.894 239.064 489.246 239.448 489.47 239.944C490.014 239.496 490.638 239.128 491.342 238.84C492.046 238.536 492.886 238.384 493.862 238.384C495.158 238.384 496.118 238.72 496.742 239.392C497.382 240.048 497.702 241.064 497.702 242.44V250H495.758V242.632C495.758 241.624 495.542 240.928 495.11 240.544C494.694 240.16 494.014 239.968 493.07 239.968C492.446 239.968 491.846 240.072 491.27 240.28C490.71 240.488 490.23 240.808 489.83 241.24C489.926 241.64 489.974 242.104 489.974 242.632V250H488.126V242.68C488.126 241.72 487.966 241.032 487.646 240.616C487.326 240.184 486.694 239.968 485.75 239.968C485.11 239.968 484.494 240.112 483.902 240.4C483.326 240.672 482.814 241.016 482.366 241.432V250H480.422ZM506.17 250.24C504.138 250.24 502.618 249.752 501.61 248.776C500.602 247.8 500.098 246.296 500.098 244.264C500.098 242.44 500.53 241.008 501.394 239.968C502.274 238.912 503.658 238.384 505.546 238.384C506.666 238.384 507.586 238.592 508.306 239.008C509.042 239.408 509.586 239.968 509.938 240.688C510.306 241.392 510.49 242.192 510.49 243.088V245.224H502.066C502.13 246.088 502.314 246.768 502.618 247.264C502.938 247.76 503.41 248.12 504.034 248.344C504.674 248.552 505.514 248.656 506.554 248.656C507.722 248.656 508.794 248.456 509.77 248.056V249.592C509.274 249.8 508.714 249.96 508.09 250.072C507.482 250.184 506.842 250.24 506.17 250.24ZM502.066 243.808H508.738V242.872C508.738 241.944 508.49 241.232 507.994 240.736C507.514 240.224 506.714 239.968 505.594 239.968C504.234 239.968 503.306 240.288 502.81 240.928C502.314 241.568 502.066 242.528 502.066 243.808ZM524.115 250.24C522.131 250.24 520.683 249.736 519.771 248.728C518.875 247.704 518.427 246.232 518.427 244.312C518.427 242.408 518.883 240.944 519.795 239.92C520.707 238.896 522.147 238.384 524.115 238.384C526.083 238.384 527.523 238.896 528.435 239.92C529.347 240.944 529.803 242.408 529.803 244.312C529.803 246.232 529.355 247.704 528.459 248.728C527.563 249.736 526.115 250.24 524.115 250.24ZM524.115 248.56C525.475 248.56 526.435 248.224 526.995 247.552C527.555 246.864 527.835 245.784 527.835 244.312C527.835 242.84 527.547 241.768 526.971 241.096C526.411 240.408 525.459 240.064 524.115 240.064C522.771 240.064 521.811 240.408 521.235 241.096C520.675 241.768 520.395 242.84 520.395 244.312C520.395 245.784 520.675 246.864 521.235 247.552C521.795 248.224 522.755 248.56 524.115 248.56ZM532.688 250V238.624H534.464L534.584 239.92C535.128 239.472 535.76 239.104 536.48 238.816C537.216 238.528 538.056 238.384 539 238.384C540.44 238.384 541.488 238.72 542.144 239.392C542.8 240.064 543.128 241.12 543.128 242.56V250H541.16V242.632C541.16 241.64 540.96 240.952 540.56 240.568C540.16 240.168 539.392 239.968 538.256 239.968C537.552 239.968 536.888 240.096 536.264 240.352C535.64 240.608 535.104 240.96 534.656 241.408V250H532.688ZM551.592 250.24C549.56 250.24 548.04 249.752 547.032 248.776C546.024 247.8 545.52 246.296 545.52 244.264C545.52 242.44 545.952 241.008 546.816 239.968C547.696 238.912 549.08 238.384 550.968 238.384C552.088 238.384 553.008 238.592 553.728 239.008C554.464 239.408 555.008 239.968 555.36 240.688C555.728 241.392 555.912 242.192 555.912 243.088V245.224H547.488C547.552 246.088 547.736 246.768 548.04 247.264C548.36 247.76 548.832 248.12 549.456 248.344C550.096 248.552 550.936 248.656 551.976 248.656C553.144 248.656 554.216 248.456 555.192 248.056V249.592C554.696 249.8 554.136 249.96 553.512 250.072C552.904 250.184 552.264 250.24 551.592 250.24ZM547.488 243.808H554.16V242.872C554.16 241.944 553.912 241.232 553.416 240.736C552.936 240.224 552.136 239.968 551.016 239.968C549.656 239.968 548.728 240.288 548.232 240.928C547.736 241.568 547.488 242.528 547.488 243.808ZM569.536 250.24C567.552 250.24 566.104 249.736 565.192 248.728C564.296 247.704 563.848 246.232 563.848 244.312C563.848 242.408 564.304 240.944 565.216 239.92C566.128 238.896 567.568 238.384 569.536 238.384C571.504 238.384 572.944 238.896 573.856 239.92C574.768 240.944 575.224 242.408 575.224 244.312C575.224 246.232 574.776 247.704 573.88 248.728C572.984 249.736 571.536 250.24 569.536 250.24ZM569.536 248.56C570.896 248.56 571.856 248.224 572.416 247.552C572.976 246.864 573.256 245.784 573.256 244.312C573.256 242.84 572.968 241.768 572.392 241.096C571.832 240.408 570.88 240.064 569.536 240.064C568.192 240.064 567.232 240.408 566.656 241.096C566.096 241.768 565.816 242.84 565.816 244.312C565.816 245.784 566.096 246.864 566.656 247.552C567.216 248.224 568.176 248.56 569.536 248.56ZM578.854 250V240.184H577.15V238.624H578.854V236.968C578.854 235.88 579.15 235.024 579.742 234.4C580.35 233.76 581.238 233.44 582.406 233.44C582.822 233.44 583.198 233.472 583.534 233.536C583.886 233.6 584.206 233.688 584.494 233.8V235.288C583.998 235.112 583.47 235.024 582.91 235.024C582.094 235.024 581.542 235.176 581.254 235.48C580.966 235.768 580.822 236.264 580.822 236.968V238.624H583.894L583.798 240.184H580.822V250H578.854ZM596.277 250.24C595.157 250.24 594.309 249.944 593.733 249.352C593.173 248.744 592.893 247.904 592.893 246.832V240.184H591.165V238.624H592.893V235.816L594.861 235.216V238.624H598.005L597.885 240.184H594.861V246.736C594.861 247.424 595.013 247.92 595.317 248.224C595.637 248.512 596.181 248.656 596.949 248.656C597.365 248.656 597.821 248.576 598.317 248.416V249.904C597.725 250.128 597.045 250.24 596.277 250.24ZM600.586 250V233.824H602.554V239.848C603.082 239.416 603.698 239.064 604.402 238.792C605.122 238.52 605.954 238.384 606.898 238.384C608.274 238.384 609.306 238.72 609.994 239.392C610.682 240.064 611.026 241.12 611.026 242.56V250H609.058V242.632C609.058 241.64 608.834 240.952 608.386 240.568C607.954 240.168 607.234 239.968 606.226 239.968C605.586 239.968 604.922 240.112 604.234 240.4C603.562 240.672 603.002 241.032 602.554 241.48V250H600.586ZM619.491 250.24C617.459 250.24 615.939 249.752 614.931 248.776C613.923 247.8 613.419 246.296 613.419 244.264C613.419 242.44 613.851 241.008 614.715 239.968C615.595 238.912 616.979 238.384 618.867 238.384C619.987 238.384 620.907 238.592 621.627 239.008C622.363 239.408 622.907 239.968 623.259 240.688C623.627 241.392 623.811 242.192 623.811 243.088V245.224H615.387C615.451 246.088 615.635 246.768 615.939 247.264C616.259 247.76 616.731 248.12 617.355 248.344C617.995 248.552 618.835 248.656 619.875 248.656C621.043 248.656 622.115 248.456 623.091 248.056V249.592C622.595 249.8 622.035 249.96 621.411 250.072C620.803 250.184 620.163 250.24 619.491 250.24ZM615.387 243.808H622.059V242.872C622.059 241.944 621.811 241.232 621.315 240.736C620.835 240.224 620.035 239.968 618.915 239.968C617.555 239.968 616.627 240.288 616.131 240.928C615.635 241.568 615.387 242.528 615.387 243.808ZM36.176 286L33.2 274.624H35.168L37.4 283.768L39.944 275.944V274.624H41.456L44.264 283.768L46.496 274.624H48.464L45.488 286H43.52L40.856 277.744L38.144 286H36.176ZM51.5881 271.96V270.16H53.7721V271.96H51.5881ZM51.7801 286V276.184H50.0281L50.2201 274.624H53.7481V286H51.7801ZM57.1409 286V274.624H58.9169L59.0369 275.92C59.5809 275.472 60.2129 275.104 60.9329 274.816C61.6689 274.528 62.5089 274.384 63.4529 274.384C64.8929 274.384 65.9409 274.72 66.5969 275.392C67.2529 276.064 67.5809 277.12 67.5809 278.56V286H65.6129V278.632C65.6129 277.64 65.4129 276.952 65.0129 276.568C64.6129 276.168 63.8449 275.968 62.7089 275.968C62.0049 275.968 61.3409 276.096 60.7169 276.352C60.0929 276.608 59.5569 276.96 59.1089 277.408V286H57.1409ZM70.8284 286V274.624H72.6044L72.7244 275.92C73.2684 275.472 73.9004 275.104 74.6204 274.816C75.3564 274.528 76.1964 274.384 77.1404 274.384C78.5804 274.384 79.6284 274.72 80.2844 275.392C80.9404 276.064 81.2684 277.12 81.2684 278.56V286H79.3004V278.632C79.3004 277.64 79.1004 276.952 78.7004 276.568C78.3004 276.168 77.5324 275.968 76.3964 275.968C75.6924 275.968 75.0284 276.096 74.4044 276.352C73.7804 276.608 73.2444 276.96 72.7964 277.408V286H70.8284ZM84.8694 271.96V270.16H87.0534V271.96H84.8694ZM85.0614 286V276.184H83.3094L83.5014 274.624H87.0294V286H85.0614ZM90.4222 286V274.624H92.1982L92.3182 275.92C92.8622 275.472 93.4942 275.104 94.2142 274.816C94.9502 274.528 95.7902 274.384 96.7342 274.384C98.1742 274.384 99.2222 274.72 99.8782 275.392C100.534 276.064 100.862 277.12 100.862 278.56V286H98.8942V278.632C98.8942 277.64 98.6942 276.952 98.2942 276.568C97.8942 276.168 97.1262 275.968 95.9902 275.968C95.2862 275.968 94.6222 276.096 93.9982 276.352C93.3742 276.608 92.8382 276.96 92.3902 277.408V286H90.4222ZM108.526 290.224C107.678 290.224 106.846 290.176 106.03 290.08C105.23 289.984 104.542 289.832 103.966 289.624V287.992C104.606 288.2 105.326 288.36 106.126 288.472C106.926 288.584 107.694 288.64 108.43 288.64C109.63 288.64 110.51 288.568 111.07 288.424C111.63 288.28 111.91 287.912 111.91 287.32C111.91 286.904 111.758 286.608 111.454 286.432C111.166 286.256 110.646 286.168 109.894 286.168H106.87C104.774 286.168 103.726 285.464 103.726 284.056C103.726 283.592 103.87 283.152 104.158 282.736C104.462 282.304 104.91 282 105.502 281.824C104.862 281.504 104.39 281.064 104.086 280.504C103.782 279.928 103.63 279.248 103.63 278.464C103.63 277.04 104.038 276.008 104.854 275.368C105.686 274.712 106.95 274.384 108.646 274.384C108.998 274.384 109.358 274.416 109.726 274.48C110.11 274.528 110.406 274.576 110.614 274.624H114.718L114.646 275.968H112.582C112.95 276.272 113.214 276.64 113.374 277.072C113.534 277.488 113.614 277.952 113.614 278.464C113.614 279.728 113.246 280.712 112.51 281.416C111.774 282.104 110.646 282.448 109.126 282.448C108.87 282.448 108.638 282.44 108.43 282.424C108.238 282.392 108.006 282.36 107.734 282.328C107.238 282.344 106.774 282.488 106.342 282.76C105.91 283.016 105.694 283.352 105.694 283.768C105.694 284.04 105.798 284.24 106.006 284.368C106.23 284.496 106.63 284.56 107.206 284.56H110.35C111.486 284.56 112.358 284.792 112.966 285.256C113.574 285.704 113.878 286.368 113.878 287.248C113.878 288.368 113.414 289.144 112.486 289.576C111.558 290.008 110.238 290.224 108.526 290.224ZM108.646 280.96C109.782 280.96 110.566 280.776 110.998 280.408C111.43 280.04 111.646 279.392 111.646 278.464C111.646 277.536 111.414 276.864 110.95 276.448C110.502 276.032 109.734 275.824 108.646 275.824C107.574 275.824 106.798 276.024 106.318 276.424C105.838 276.824 105.598 277.504 105.598 278.464C105.598 279.344 105.822 279.984 106.27 280.384C106.734 280.768 107.526 280.96 108.646 280.96ZM122.766 286V274.624H124.542L124.662 275.92C125.206 275.472 125.838 275.104 126.558 274.816C127.294 274.528 128.134 274.384 129.078 274.384C130.518 274.384 131.566 274.72 132.222 275.392C132.878 276.064 133.206 277.12 133.206 278.56V286H131.238V278.632C131.238 277.64 131.038 276.952 130.638 276.568C130.238 276.168 129.47 275.968 128.334 275.968C127.63 275.968 126.966 276.096 126.342 276.352C125.718 276.608 125.182 276.96 124.734 277.408V286H122.766ZM140.461 286.24C139.101 286.24 138.069 285.864 137.365 285.112C136.677 284.36 136.333 283.264 136.333 281.824V274.624H138.301V281.896C138.301 282.84 138.533 283.536 138.997 283.984C139.477 284.432 140.213 284.656 141.205 284.656C141.909 284.656 142.573 284.528 143.197 284.272C143.821 284.016 144.357 283.664 144.805 283.216V274.624H146.773V286H144.997L144.877 284.704C144.333 285.152 143.685 285.52 142.933 285.808C142.181 286.096 141.357 286.24 140.461 286.24ZM150.141 286V274.624H151.917L152.037 275.92C152.645 275.44 153.285 275.064 153.957 274.792C154.645 274.52 155.381 274.384 156.165 274.384C157.013 274.384 157.669 274.52 158.133 274.792C158.613 275.064 158.965 275.448 159.189 275.944C159.733 275.496 160.357 275.128 161.061 274.84C161.765 274.536 162.605 274.384 163.581 274.384C164.877 274.384 165.837 274.72 166.461 275.392C167.101 276.048 167.421 277.064 167.421 278.44V286H165.477V278.632C165.477 277.624 165.261 276.928 164.829 276.544C164.413 276.16 163.733 275.968 162.789 275.968C162.165 275.968 161.565 276.072 160.989 276.28C160.429 276.488 159.949 276.808 159.549 277.24C159.645 277.64 159.693 278.104 159.693 278.632V286H157.845V278.68C157.845 277.72 157.685 277.032 157.365 276.616C157.045 276.184 156.413 275.968 155.469 275.968C154.829 275.968 154.213 276.112 153.621 276.4C153.045 276.672 152.533 277.016 152.085 277.432V286H150.141ZM176.456 286.24C175.608 286.24 174.864 286.128 174.224 285.904C173.6 285.664 173.024 285.296 172.496 284.8L172.352 286H170.672V269.824H172.64V275.464C173.68 274.744 174.944 274.384 176.432 274.384C178.048 274.384 179.312 274.848 180.224 275.776C181.136 276.688 181.592 278.168 181.592 280.216C181.592 282.28 181.136 283.8 180.224 284.776C179.312 285.752 178.056 286.24 176.456 286.24ZM175.952 284.656C177.28 284.656 178.224 284.288 178.784 283.552C179.344 282.816 179.624 281.704 179.624 280.216C179.624 278.664 179.32 277.568 178.712 276.928C178.12 276.288 177.184 275.968 175.904 275.968C175.216 275.968 174.6 276.072 174.056 276.28C173.512 276.472 173.04 276.744 172.64 277.096V283.288C173.072 283.752 173.568 284.096 174.128 284.32C174.688 284.544 175.296 284.656 175.952 284.656ZM190.069 286.24C188.037 286.24 186.517 285.752 185.509 284.776C184.501 283.8 183.997 282.296 183.997 280.264C183.997 278.44 184.429 277.008 185.293 275.968C186.173 274.912 187.557 274.384 189.445 274.384C190.565 274.384 191.485 274.592 192.205 275.008C192.941 275.408 193.485 275.968 193.837 276.688C194.205 277.392 194.389 278.192 194.389 279.088V281.224H185.965C186.029 282.088 186.213 282.768 186.517 283.264C186.837 283.76 187.309 284.12 187.933 284.344C188.573 284.552 189.413 284.656 190.453 284.656C191.621 284.656 192.693 284.456 193.669 284.056V285.592C193.173 285.8 192.613 285.96 191.989 286.072C191.381 286.184 190.741 286.24 190.069 286.24ZM185.965 279.808H192.637V278.872C192.637 277.944 192.389 277.232 191.893 276.736C191.413 276.224 190.613 275.968 189.493 275.968C188.133 275.968 187.205 276.288 186.709 276.928C186.213 277.568 185.965 278.528 185.965 279.808ZM197.274 286V274.624H199.05L199.194 276.064C199.754 275.696 200.41 275.36 201.162 275.056C201.93 274.752 202.682 274.528 203.418 274.384V275.92C202.97 276.016 202.482 276.152 201.954 276.328C201.426 276.488 200.922 276.672 200.442 276.88C199.962 277.088 199.562 277.304 199.242 277.528V286H197.274ZM209.029 286.24C208.293 286.24 207.589 286.192 206.917 286.096C206.261 286 205.709 285.872 205.261 285.712V283.984C205.805 284.176 206.373 284.32 206.965 284.416C207.573 284.512 208.173 284.56 208.765 284.56C209.773 284.56 210.493 284.456 210.925 284.248C211.357 284.024 211.573 283.616 211.573 283.024C211.573 282.592 211.453 282.264 211.213 282.04C210.989 281.816 210.637 281.616 210.157 281.44C209.693 281.264 209.093 281.056 208.357 280.816C207.701 280.592 207.117 280.36 206.605 280.12C206.093 279.88 205.693 279.56 205.405 279.16C205.117 278.744 204.973 278.192 204.973 277.504C204.973 276.496 205.325 275.728 206.029 275.2C206.733 274.656 207.869 274.384 209.437 274.384C210.045 274.384 210.629 274.432 211.189 274.528C211.749 274.608 212.237 274.712 212.653 274.84V276.568C211.645 276.232 210.677 276.064 209.749 276.064C208.757 276.064 208.037 276.168 207.589 276.376C207.157 276.568 206.941 276.936 206.941 277.48C206.941 277.848 207.037 278.144 207.229 278.368C207.437 278.576 207.749 278.76 208.165 278.92C208.597 279.064 209.149 279.248 209.821 279.472C210.701 279.744 211.413 280.024 211.957 280.312C212.501 280.6 212.901 280.952 213.157 281.368C213.413 281.784 213.541 282.328 213.541 283C213.541 284.12 213.149 284.944 212.365 285.472C211.581 285.984 210.469 286.24 209.029 286.24ZM215.942 286V284.344H217.718V286H215.942Z" fill="#011335" fill-opacity="0.8"/>
</g>
<defs>
<clipPath id="clip0_1_9379">
<rect width="735" height="328" rx="4" fill="white"/>
</clipPath>
</defs>
</svg>
