<svg width="735" height="328" viewBox="0 0 735 328" fill="none" xmlns="http://www.w3.org/2000/svg">
<g clip-path="url(#clip0_1_9386)">
<rect width="735" height="328" rx="2" fill="white"/>
<rect x="32" y="32" width="77" height="76" rx="2" fill="#DE1E35"/>
<path d="M59.12 85.04C56.2933 85.04 54.0267 84.5067 52.32 83.44C50.6133 82.3733 49.3733 80.8267 48.6 78.8C47.8533 76.7467 47.48 74.2933 47.48 71.44C47.48 68.56 47.8533 66.1067 48.6 64.08C49.3733 62.0533 50.6133 60.5067 52.32 59.44C54.0267 58.3733 56.2933 57.84 59.12 57.84C61.9467 57.84 64.2133 58.3733 65.92 59.44C67.6267 60.5067 68.8533 62.0533 69.6 64.08C70.3733 66.1067 70.76 68.56 70.76 71.44C70.76 74.2933 70.3733 76.7467 69.6 78.8C68.8533 80.8267 67.6267 82.3733 65.92 83.44C64.2133 84.5067 61.9467 85.04 59.12 85.04ZM59.12 80.4C61.44 80.4 63.04 79.6267 63.92 78.08C64.8267 76.5333 65.28 74.32 65.28 71.44C65.28 68.56 64.8267 66.3467 63.92 64.8C63.04 63.2533 61.44 62.48 59.12 62.48C56.8 62.48 55.1867 63.2533 54.28 64.8C53.4 66.3467 52.96 68.56 52.96 71.44C52.96 74.32 53.4 76.5333 54.28 78.08C55.1867 79.6267 56.8 80.4 59.12 80.4ZM85.41 84V78.6H72.93V74.92L86.09 58.24H90.81V74.24H93.33V78.6H90.81V84H85.41ZM78.09 74.44H86.33V64.2L78.09 74.44Z" fill="white"/>
<path d="M34.28 166V140.24H52.76V144.44H39.68V151.04H51.28V155.2H39.68V161.84H52.76V166H34.28ZM56.5066 166V147.04H61.5066L61.7066 148.84C62.4799 148.253 63.4532 147.747 64.6266 147.32C65.8266 146.867 67.0799 146.64 68.3866 146.64C70.8932 146.64 72.7199 147.227 73.8666 148.4C75.0132 149.573 75.5866 151.387 75.5866 153.84V166H70.1866V154.12C70.1866 152.84 69.9199 151.933 69.3866 151.4C68.8799 150.867 67.9199 150.6 66.5066 150.6C65.6799 150.6 64.8399 150.787 63.9866 151.16C63.1599 151.533 62.4666 152 61.9066 152.56V166H56.5066ZM82.4631 143.56V139.32H88.3431V143.56H82.4631ZM81.7831 175.36C80.1031 175.36 78.6631 175.12 77.4631 174.64V170.92C77.8898 171.053 78.3031 171.147 78.7031 171.2C79.1298 171.28 79.5165 171.32 79.8631 171.32C80.9565 171.32 81.7431 171.093 82.2231 170.64C82.7031 170.213 82.9431 169.52 82.9431 168.56V151.04H80.1031L80.5831 147.04H88.3431V169.08C88.3431 170.947 87.7965 172.453 86.7031 173.6C85.6365 174.773 83.9965 175.36 81.7831 175.36ZM102.432 166.4C98.8852 166.4 96.2852 165.547 94.6319 163.84C92.9785 162.107 92.1519 159.667 92.1519 156.52C92.1519 153.373 92.9785 150.947 94.6319 149.24C96.3119 147.507 98.9119 146.64 102.432 146.64C105.979 146.64 108.579 147.507 110.232 149.24C111.912 150.947 112.752 153.373 112.752 156.52C112.752 159.667 111.925 162.107 110.272 163.84C108.619 165.547 106.005 166.4 102.432 166.4ZM102.432 161.8C104.165 161.8 105.405 161.413 106.152 160.64C106.899 159.84 107.272 158.467 107.272 156.52C107.272 154.573 106.899 153.213 106.152 152.44C105.405 151.64 104.165 151.24 102.432 151.24C100.725 151.24 99.4985 151.64 98.7519 152.44C98.0052 153.213 97.6319 154.573 97.6319 156.52C97.6319 158.467 98.0052 159.84 98.7519 160.64C99.4985 161.413 100.725 161.8 102.432 161.8ZM119.279 173.04C118.452 173.04 117.719 172.987 117.079 172.88C116.439 172.8 115.812 172.64 115.199 172.4V168.6C115.652 168.76 116.066 168.867 116.439 168.92C116.839 168.973 117.239 169 117.639 169C118.732 169 119.572 168.747 120.159 168.24C120.772 167.733 121.386 166.88 121.999 165.68L113.519 147.04H119.159L124.719 159.92L130.239 147.04H135.839L128.359 164.68C127.666 166.333 126.906 167.787 126.079 169.04C125.279 170.32 124.332 171.307 123.239 172C122.146 172.693 120.826 173.04 119.279 173.04ZM156.079 166V156.48L146.839 140.24H152.479L158.799 151.88L165.119 140.24H170.719L161.479 156.48V166H156.079ZM178.955 166.4C175.409 166.4 172.809 165.547 171.155 163.84C169.502 162.107 168.675 159.667 168.675 156.52C168.675 153.373 169.502 150.947 171.155 149.24C172.835 147.507 175.435 146.64 178.955 146.64C182.502 146.64 185.102 147.507 186.755 149.24C188.435 150.947 189.275 153.373 189.275 156.52C189.275 159.667 188.449 162.107 186.795 163.84C185.142 165.547 182.529 166.4 178.955 166.4ZM178.955 161.8C180.689 161.8 181.929 161.413 182.675 160.64C183.422 159.84 183.795 158.467 183.795 156.52C183.795 154.573 183.422 153.213 182.675 152.44C181.929 151.64 180.689 151.24 178.955 151.24C177.249 151.24 176.022 151.64 175.275 152.44C174.529 153.213 174.155 154.573 174.155 156.52C174.155 158.467 174.529 159.84 175.275 160.64C176.022 161.413 177.249 161.8 178.955 161.8ZM200.03 166.4C197.763 166.4 195.99 165.773 194.71 164.52C193.457 163.24 192.83 161.373 192.83 158.92V147.04H198.23V158.8C198.23 160.08 198.537 161.013 199.15 161.6C199.763 162.16 200.683 162.44 201.91 162.44C202.843 162.44 203.697 162.253 204.47 161.88C205.27 161.507 205.95 161.04 206.51 160.48V147.04H211.91V166H206.91L206.71 164.2C205.91 164.84 204.963 165.373 203.87 165.8C202.803 166.2 201.523 166.4 200.03 166.4ZM216.507 166V147.04H221.507L221.747 149C222.6 148.467 223.653 147.987 224.907 147.56C226.187 147.107 227.44 146.8 228.667 146.64V150.72C227.947 150.827 227.16 150.987 226.307 151.2C225.453 151.413 224.64 151.653 223.867 151.92C223.093 152.187 222.44 152.467 221.907 152.76V166H216.507ZM240.218 166V140.24H245.618V161.84H258.298V166H240.218ZM269.737 166.4C266.19 166.4 263.59 165.547 261.937 163.84C260.283 162.107 259.457 159.667 259.457 156.52C259.457 153.373 260.283 150.947 261.937 149.24C263.617 147.507 266.217 146.64 269.737 146.64C273.283 146.64 275.883 147.507 277.537 149.24C279.217 150.947 280.057 153.373 280.057 156.52C280.057 159.667 279.23 162.107 277.577 163.84C275.923 165.547 273.31 166.4 269.737 166.4ZM269.737 161.8C271.47 161.8 272.71 161.413 273.457 160.64C274.203 159.84 274.577 158.467 274.577 156.52C274.577 154.573 274.203 153.213 273.457 152.44C272.71 151.64 271.47 151.24 269.737 151.24C268.03 151.24 266.803 151.64 266.057 152.44C265.31 153.213 264.937 154.573 264.937 156.52C264.937 158.467 265.31 159.84 266.057 160.64C266.803 161.413 268.03 161.8 269.737 161.8ZM291.331 166.4C289.145 166.4 287.518 165.827 286.451 164.68C285.411 163.533 284.891 161.973 284.891 160V151.2H282.211V147.04H284.891V142.96L290.291 141.36V147.04H295.091L294.771 151.2H290.291V159.64C290.291 160.68 290.531 161.4 291.011 161.8C291.491 162.173 292.238 162.36 293.251 162.36C293.998 162.36 294.771 162.227 295.571 161.96V165.68C294.985 165.92 294.345 166.093 293.651 166.2C292.958 166.333 292.185 166.4 291.331 166.4ZM305.863 166.4C303.676 166.4 302.049 165.827 300.983 164.68C299.943 163.533 299.423 161.973 299.423 160V151.2H296.743V147.04H299.423V142.96L304.823 141.36V147.04H309.623L309.303 151.2H304.823V159.64C304.823 160.68 305.063 161.4 305.543 161.8C306.023 162.173 306.769 162.36 307.783 162.36C308.529 162.36 309.303 162.227 310.103 161.96V165.68C309.516 165.92 308.876 166.093 308.183 166.2C307.489 166.333 306.716 166.4 305.863 166.4ZM322.754 166.4C319.474 166.4 316.874 165.587 314.954 163.96C313.034 162.307 312.074 159.813 312.074 156.48C312.074 153.467 312.874 151.08 314.474 149.32C316.1 147.533 318.514 146.64 321.714 146.64C324.647 146.64 326.887 147.413 328.434 148.96C330.007 150.48 330.794 152.48 330.794 154.96V158.4H317.074C317.367 159.92 318.06 160.96 319.154 161.52C320.274 162.08 321.847 162.36 323.874 162.36C324.887 162.36 325.914 162.267 326.954 162.08C328.02 161.893 328.927 161.653 329.674 161.36V165.2C328.794 165.6 327.767 165.893 326.594 166.08C325.42 166.293 324.14 166.4 322.754 166.4ZM317.074 155.08H326.074V154.04C326.074 152.947 325.754 152.093 325.114 151.48C324.474 150.84 323.394 150.52 321.874 150.52C320.087 150.52 318.834 150.88 318.114 151.6C317.42 152.32 317.074 153.48 317.074 155.08ZM334.553 166V147.04H339.553L339.793 149C340.647 148.467 341.7 147.987 342.953 147.56C344.233 147.107 345.487 146.8 346.713 146.64V150.72C345.993 150.827 345.207 150.987 344.353 151.2C343.5 151.413 342.687 151.653 341.913 151.92C341.14 152.187 340.487 152.467 339.953 152.76V166H334.553ZM353.029 173.04C352.202 173.04 351.469 172.987 350.829 172.88C350.189 172.8 349.562 172.64 348.949 172.4V168.6C349.402 168.76 349.816 168.867 350.189 168.92C350.589 168.973 350.989 169 351.389 169C352.482 169 353.322 168.747 353.909 168.24C354.522 167.733 355.136 166.88 355.749 165.68L347.269 147.04H352.909L358.469 159.92L363.989 147.04H369.589L362.109 164.68C361.416 166.333 360.656 167.787 359.829 169.04C359.029 170.32 358.082 171.307 356.989 172C355.896 172.693 354.576 173.04 353.029 173.04Z" fill="#011335"/>
<path d="M37.856 214V200.104H32.72V198.544H44.96V200.104H39.824V214H37.856ZM47.3675 214V197.824H49.3355V203.848C49.8635 203.416 50.4795 203.064 51.1835 202.792C51.9035 202.52 52.7355 202.384 53.6795 202.384C55.0555 202.384 56.0875 202.72 56.7755 203.392C57.4635 204.064 57.8075 205.12 57.8075 206.56V214H55.8395V206.632C55.8395 205.64 55.6155 204.952 55.1675 204.568C54.7355 204.168 54.0155 203.968 53.0075 203.968C52.3675 203.968 51.7035 204.112 51.0155 204.4C50.3435 204.672 49.7835 205.032 49.3355 205.48V214H47.3675ZM66.272 214.24C64.24 214.24 62.72 213.752 61.712 212.776C60.704 211.8 60.2 210.296 60.2 208.264C60.2 206.44 60.632 205.008 61.496 203.968C62.376 202.912 63.76 202.384 65.648 202.384C66.768 202.384 67.688 202.592 68.408 203.008C69.144 203.408 69.688 203.968 70.04 204.688C70.408 205.392 70.592 206.192 70.592 207.088V209.224H62.168C62.232 210.088 62.416 210.768 62.72 211.264C63.04 211.76 63.512 212.12 64.136 212.344C64.776 212.552 65.616 212.656 66.656 212.656C67.824 212.656 68.896 212.456 69.872 212.056V213.592C69.376 213.8 68.816 213.96 68.192 214.072C67.584 214.184 66.944 214.24 66.272 214.24ZM62.168 207.808H68.84V206.872C68.84 205.944 68.592 205.232 68.096 204.736C67.616 204.224 66.816 203.968 65.696 203.968C64.336 203.968 63.408 204.288 62.912 204.928C62.416 205.568 62.168 206.528 62.168 207.808ZM81.5041 214L78.5281 202.624H80.4961L82.7281 211.768L85.2721 203.944V202.624H86.7841L89.5921 211.768L91.8241 202.624H93.7921L90.8161 214H88.8481L86.1841 205.744L83.4721 214H81.5041ZM96.68 214V197.824H98.648V203.848C99.176 203.416 99.792 203.064 100.496 202.792C101.216 202.52 102.048 202.384 102.992 202.384C104.368 202.384 105.4 202.72 106.088 203.392C106.776 204.064 107.12 205.12 107.12 206.56V214H105.152V206.632C105.152 205.64 104.928 204.952 104.48 204.568C104.048 204.168 103.328 203.968 102.32 203.968C101.68 203.968 101.016 204.112 100.328 204.4C99.656 204.672 99.096 205.032 98.648 205.48V214H96.68ZM115.201 214.24C113.217 214.24 111.769 213.736 110.857 212.728C109.961 211.704 109.513 210.232 109.513 208.312C109.513 206.408 109.969 204.944 110.881 203.92C111.793 202.896 113.233 202.384 115.201 202.384C117.169 202.384 118.609 202.896 119.521 203.92C120.433 204.944 120.889 206.408 120.889 208.312C120.889 210.232 120.441 211.704 119.545 212.728C118.649 213.736 117.201 214.24 115.201 214.24ZM115.201 212.56C116.561 212.56 117.521 212.224 118.081 211.552C118.641 210.864 118.921 209.784 118.921 208.312C118.921 206.84 118.633 205.768 118.057 205.096C117.497 204.408 116.545 204.064 115.201 204.064C113.857 204.064 112.897 204.408 112.321 205.096C111.761 205.768 111.48 206.84 111.48 208.312C111.48 209.784 111.761 210.864 112.321 211.552C112.881 212.224 113.841 212.56 115.201 212.56ZM126.246 214.24C125.478 214.24 124.87 214.04 124.422 213.64C123.99 213.224 123.774 212.528 123.774 211.552V197.824H125.742V211.336C125.742 211.816 125.822 212.144 125.982 212.32C126.142 212.496 126.39 212.584 126.726 212.584C127.094 212.584 127.454 212.536 127.806 212.44V214C127.55 214.096 127.294 214.16 127.038 214.192C126.782 214.224 126.518 214.24 126.246 214.24ZM135.67 214.24C133.638 214.24 132.118 213.752 131.11 212.776C130.102 211.8 129.598 210.296 129.598 208.264C129.598 206.44 130.03 205.008 130.894 203.968C131.774 202.912 133.158 202.384 135.046 202.384C136.166 202.384 137.086 202.592 137.806 203.008C138.542 203.408 139.086 203.968 139.438 204.688C139.806 205.392 139.99 206.192 139.99 207.088V209.224H131.566C131.63 210.088 131.814 210.768 132.118 211.264C132.438 211.76 132.91 212.12 133.534 212.344C134.174 212.552 135.014 212.656 136.054 212.656C137.222 212.656 138.294 212.456 139.27 212.056V213.592C138.774 213.8 138.214 213.96 137.59 214.072C136.982 214.184 136.342 214.24 135.67 214.24ZM131.566 207.808H138.238V206.872C138.238 205.944 137.99 205.232 137.494 204.736C137.014 204.224 136.214 203.968 135.094 203.968C133.734 203.968 132.806 204.288 132.31 204.928C131.814 205.568 131.566 206.528 131.566 207.808ZM148.407 219.184V202.624H150.087L150.231 203.824C150.759 203.328 151.335 202.968 151.959 202.744C152.599 202.504 153.343 202.384 154.191 202.384C155.791 202.384 157.047 202.832 157.959 203.728C158.871 204.608 159.327 206.08 159.327 208.144C159.327 210.192 158.871 211.72 157.959 212.728C157.047 213.736 155.783 214.24 154.167 214.24C152.679 214.24 151.415 213.88 150.375 213.16V219.184H148.407ZM153.639 212.656C154.919 212.656 155.855 212.296 156.447 211.576C157.055 210.84 157.359 209.696 157.359 208.144C157.359 206.656 157.079 205.592 156.519 204.952C155.959 204.296 155.015 203.968 153.687 203.968C153.031 203.968 152.423 204.08 151.863 204.304C151.303 204.528 150.807 204.872 150.375 205.336V211.528C150.775 211.88 151.247 212.16 151.791 212.368C152.335 212.56 152.951 212.656 153.639 212.656ZM162.211 214V202.624H163.987L164.131 204.064C164.691 203.696 165.347 203.36 166.099 203.056C166.867 202.752 167.619 202.528 168.355 202.384V203.92C167.907 204.016 167.419 204.152 166.891 204.328C166.363 204.488 165.859 204.672 165.379 204.88C164.899 205.088 164.499 205.304 164.179 205.528V214H162.211ZM175.247 214.24C173.263 214.24 171.815 213.736 170.903 212.728C170.007 211.704 169.559 210.232 169.559 208.312C169.559 206.408 170.015 204.944 170.927 203.92C171.839 202.896 173.279 202.384 175.247 202.384C177.215 202.384 178.655 202.896 179.567 203.92C180.479 204.944 180.935 206.408 180.935 208.312C180.935 210.232 180.487 211.704 179.591 212.728C178.695 213.736 177.247 214.24 175.247 214.24ZM175.247 212.56C176.607 212.56 177.567 212.224 178.127 211.552C178.687 210.864 178.967 209.784 178.967 208.312C178.967 206.84 178.679 205.768 178.103 205.096C177.543 204.408 176.591 204.064 175.247 204.064C173.903 204.064 172.943 204.408 172.367 205.096C171.807 205.768 171.527 206.84 171.527 208.312C171.527 209.784 171.807 210.864 172.367 211.552C172.927 212.224 173.887 212.56 175.247 212.56ZM189.197 214.24C187.213 214.24 185.741 213.728 184.781 212.704C183.821 211.664 183.341 210.2 183.341 208.312C183.341 206.312 183.885 204.824 184.973 203.848C186.061 202.872 187.525 202.384 189.365 202.384C190.117 202.384 190.741 202.44 191.237 202.552C191.733 202.648 192.213 202.808 192.677 203.032V204.592C191.813 204.176 190.829 203.968 189.725 203.968C188.317 203.968 187.229 204.304 186.461 204.976C185.693 205.632 185.309 206.744 185.309 208.312C185.309 209.816 185.645 210.92 186.317 211.624C186.989 212.312 188.101 212.656 189.653 212.656C190.757 212.656 191.773 212.448 192.701 212.032V213.616C192.205 213.824 191.669 213.976 191.093 214.072C190.533 214.184 189.901 214.24 189.197 214.24ZM200.499 214.24C198.467 214.24 196.947 213.752 195.939 212.776C194.931 211.8 194.427 210.296 194.427 208.264C194.427 206.44 194.859 205.008 195.723 203.968C196.603 202.912 197.987 202.384 199.875 202.384C200.995 202.384 201.915 202.592 202.635 203.008C203.371 203.408 203.915 203.968 204.267 204.688C204.635 205.392 204.819 206.192 204.819 207.088V209.224H196.395C196.459 210.088 196.643 210.768 196.947 211.264C197.267 211.76 197.739 212.12 198.363 212.344C199.003 212.552 199.843 212.656 200.883 212.656C202.051 212.656 203.123 212.456 204.099 212.056V213.592C203.603 213.8 203.043 213.96 202.419 214.072C201.811 214.184 201.171 214.24 200.499 214.24ZM196.395 207.808H203.067V206.872C203.067 205.944 202.819 205.232 202.323 204.736C201.843 204.224 201.043 203.968 199.923 203.968C198.563 203.968 197.635 204.288 197.139 204.928C196.643 205.568 196.395 206.528 196.395 207.808ZM211.162 214.24C210.426 214.24 209.722 214.192 209.05 214.096C208.394 214 207.842 213.872 207.394 213.712V211.984C207.938 212.176 208.506 212.32 209.098 212.416C209.706 212.512 210.306 212.56 210.898 212.56C211.906 212.56 212.626 212.456 213.058 212.248C213.49 212.024 213.706 211.616 213.706 211.024C213.706 210.592 213.586 210.264 213.346 210.04C213.122 209.816 212.77 209.616 212.29 209.44C211.826 209.264 211.226 209.056 210.49 208.816C209.834 208.592 209.25 208.36 208.738 208.12C208.226 207.88 207.826 207.56 207.538 207.16C207.25 206.744 207.106 206.192 207.106 205.504C207.106 204.496 207.458 203.728 208.162 203.2C208.866 202.656 210.002 202.384 211.57 202.384C212.178 202.384 212.762 202.432 213.322 202.528C213.882 202.608 214.37 202.712 214.786 202.84V204.568C213.778 204.232 212.81 204.064 211.882 204.064C210.89 204.064 210.17 204.168 209.722 204.376C209.29 204.568 209.074 204.936 209.074 205.48C209.074 205.848 209.17 206.144 209.362 206.368C209.57 206.576 209.882 206.76 210.298 206.92C210.73 207.064 211.282 207.248 211.954 207.472C212.834 207.744 213.546 208.024 214.09 208.312C214.634 208.6 215.034 208.952 215.29 209.368C215.546 209.784 215.674 210.328 215.674 211C215.674 212.12 215.282 212.944 214.498 213.472C213.714 213.984 212.602 214.24 211.162 214.24ZM221.522 214.24C220.786 214.24 220.082 214.192 219.41 214.096C218.754 214 218.202 213.872 217.754 213.712V211.984C218.298 212.176 218.866 212.32 219.458 212.416C220.066 212.512 220.666 212.56 221.258 212.56C222.266 212.56 222.986 212.456 223.418 212.248C223.85 212.024 224.066 211.616 224.066 211.024C224.066 210.592 223.946 210.264 223.706 210.04C223.482 209.816 223.13 209.616 222.65 209.44C222.186 209.264 221.586 209.056 220.85 208.816C220.194 208.592 219.61 208.36 219.098 208.12C218.586 207.88 218.186 207.56 217.898 207.16C217.61 206.744 217.466 206.192 217.466 205.504C217.466 204.496 217.818 203.728 218.522 203.2C219.226 202.656 220.362 202.384 221.93 202.384C222.538 202.384 223.122 202.432 223.682 202.528C224.242 202.608 224.73 202.712 225.146 202.84V204.568C224.138 204.232 223.17 204.064 222.242 204.064C221.25 204.064 220.53 204.168 220.082 204.376C219.65 204.568 219.434 204.936 219.434 205.48C219.434 205.848 219.53 206.144 219.722 206.368C219.93 206.576 220.242 206.76 220.658 206.92C221.09 207.064 221.642 207.248 222.314 207.472C223.194 207.744 223.906 208.024 224.45 208.312C224.994 208.6 225.394 208.952 225.65 209.368C225.906 209.784 226.034 210.328 226.034 211C226.034 212.12 225.642 212.944 224.858 213.472C224.074 213.984 222.962 214.24 221.522 214.24ZM239.654 214.24C237.67 214.24 236.222 213.736 235.31 212.728C234.414 211.704 233.966 210.232 233.966 208.312C233.966 206.408 234.422 204.944 235.334 203.92C236.246 202.896 237.686 202.384 239.654 202.384C241.622 202.384 243.062 202.896 243.974 203.92C244.886 204.944 245.342 206.408 245.342 208.312C245.342 210.232 244.894 211.704 243.998 212.728C243.102 213.736 241.654 214.24 239.654 214.24ZM239.654 212.56C241.014 212.56 241.974 212.224 242.534 211.552C243.094 210.864 243.374 209.784 243.374 208.312C243.374 206.84 243.086 205.768 242.51 205.096C241.95 204.408 240.998 204.064 239.654 204.064C238.31 204.064 237.35 204.408 236.774 205.096C236.214 205.768 235.934 206.84 235.934 208.312C235.934 209.784 236.214 210.864 236.774 211.552C237.334 212.224 238.294 212.56 239.654 212.56ZM248.971 214V204.184H247.267V202.624H248.971V200.968C248.971 199.88 249.267 199.024 249.859 198.4C250.467 197.76 251.355 197.44 252.523 197.44C252.939 197.44 253.315 197.472 253.651 197.536C254.003 197.6 254.323 197.688 254.611 197.8V199.288C254.115 199.112 253.587 199.024 253.027 199.024C252.211 199.024 251.659 199.176 251.371 199.48C251.083 199.768 250.939 200.264 250.939 200.968V202.624H254.011L253.915 204.184H250.939V214H248.971ZM266.395 214.24C265.275 214.24 264.427 213.944 263.851 213.352C263.291 212.744 263.011 211.904 263.011 210.832V204.184H261.283V202.624H263.011V199.816L264.979 199.216V202.624H268.123L268.003 204.184H264.979V210.736C264.979 211.424 265.131 211.92 265.435 212.224C265.755 212.512 266.299 212.656 267.067 212.656C267.483 212.656 267.939 212.576 268.435 212.416V213.904C267.843 214.128 267.163 214.24 266.395 214.24ZM270.703 214V197.824H272.671V203.848C273.199 203.416 273.815 203.064 274.519 202.792C275.239 202.52 276.071 202.384 277.015 202.384C278.391 202.384 279.423 202.72 280.111 203.392C280.799 204.064 281.143 205.12 281.143 206.56V214H279.175V206.632C279.175 205.64 278.951 204.952 278.503 204.568C278.071 204.168 277.351 203.968 276.343 203.968C275.703 203.968 275.039 204.112 274.351 204.4C273.679 204.672 273.119 205.032 272.671 205.48V214H270.703ZM289.608 214.24C287.576 214.24 286.056 213.752 285.048 212.776C284.04 211.8 283.536 210.296 283.536 208.264C283.536 206.44 283.968 205.008 284.832 203.968C285.712 202.912 287.096 202.384 288.984 202.384C290.104 202.384 291.024 202.592 291.744 203.008C292.48 203.408 293.024 203.968 293.376 204.688C293.744 205.392 293.928 206.192 293.928 207.088V209.224H285.504C285.568 210.088 285.752 210.768 286.056 211.264C286.376 211.76 286.848 212.12 287.472 212.344C288.112 212.552 288.952 212.656 289.992 212.656C291.16 212.656 292.232 212.456 293.208 212.056V213.592C292.712 213.8 292.152 213.96 291.528 214.072C290.92 214.184 290.28 214.24 289.608 214.24ZM285.504 207.808H292.176V206.872C292.176 205.944 291.928 205.232 291.432 204.736C290.952 204.224 290.152 203.968 289.032 203.968C287.672 203.968 286.744 204.288 286.248 204.928C285.752 205.568 285.504 206.528 285.504 207.808ZM304.816 214.24C304.048 214.24 303.44 214.04 302.992 213.64C302.56 213.224 302.344 212.528 302.344 211.552V197.824H304.312V211.336C304.312 211.816 304.392 212.144 304.552 212.32C304.712 212.496 304.96 212.584 305.296 212.584C305.664 212.584 306.024 212.536 306.376 212.44V214C306.12 214.096 305.864 214.16 305.608 214.192C305.352 214.224 305.088 214.24 304.816 214.24ZM313.857 214.24C311.873 214.24 310.425 213.736 309.513 212.728C308.617 211.704 308.169 210.232 308.169 208.312C308.169 206.408 308.625 204.944 309.537 203.92C310.449 202.896 311.889 202.384 313.857 202.384C315.825 202.384 317.265 202.896 318.177 203.92C319.089 204.944 319.545 206.408 319.545 208.312C319.545 210.232 319.097 211.704 318.201 212.728C317.305 213.736 315.857 214.24 313.857 214.24ZM313.857 212.56C315.217 212.56 316.177 212.224 316.737 211.552C317.297 210.864 317.577 209.784 317.577 208.312C317.577 206.84 317.289 205.768 316.713 205.096C316.153 204.408 315.201 204.064 313.857 204.064C312.513 204.064 311.553 204.408 310.977 205.096C310.417 205.768 310.137 206.84 310.137 208.312C310.137 209.784 310.417 210.864 310.977 211.552C311.537 212.224 312.497 212.56 313.857 212.56ZM326.582 214.24C325.462 214.24 324.614 213.944 324.038 213.352C323.478 212.744 323.198 211.904 323.198 210.832V204.184H321.47V202.624H323.198V199.816L325.166 199.216V202.624H328.31L328.19 204.184H325.166V210.736C325.166 211.424 325.318 211.92 325.622 212.224C325.942 212.512 326.486 212.656 327.254 212.656C327.67 212.656 328.126 212.576 328.622 212.416V213.904C328.03 214.128 327.35 214.24 326.582 214.24ZM335.043 214.24C333.923 214.24 333.075 213.944 332.499 213.352C331.939 212.744 331.659 211.904 331.659 210.832V204.184H329.931V202.624H331.659V199.816L333.627 199.216V202.624H336.771L336.651 204.184H333.627V210.736C333.627 211.424 333.779 211.92 334.083 212.224C334.403 212.512 334.947 212.656 335.715 212.656C336.131 212.656 336.587 212.576 337.083 212.416V213.904C336.491 214.128 335.811 214.24 335.043 214.24ZM344.944 214.24C342.912 214.24 341.392 213.752 340.384 212.776C339.376 211.8 338.872 210.296 338.872 208.264C338.872 206.44 339.304 205.008 340.168 203.968C341.048 202.912 342.432 202.384 344.32 202.384C345.44 202.384 346.36 202.592 347.08 203.008C347.816 203.408 348.36 203.968 348.712 204.688C349.08 205.392 349.264 206.192 349.264 207.088V209.224H340.84C340.904 210.088 341.088 210.768 341.392 211.264C341.712 211.76 342.184 212.12 342.808 212.344C343.448 212.552 344.288 212.656 345.328 212.656C346.496 212.656 347.568 212.456 348.544 212.056V213.592C348.048 213.8 347.488 213.96 346.864 214.072C346.256 214.184 345.616 214.24 344.944 214.24ZM340.84 207.808H347.512V206.872C347.512 205.944 347.264 205.232 346.768 204.736C346.288 204.224 345.488 203.968 344.368 203.968C343.008 203.968 342.08 204.288 341.584 204.928C341.088 205.568 340.84 206.528 340.84 207.808ZM352.149 214V202.624H353.925L354.069 204.064C354.629 203.696 355.285 203.36 356.037 203.056C356.805 202.752 357.557 202.528 358.293 202.384V203.92C357.845 204.016 357.357 204.152 356.829 204.328C356.301 204.488 355.797 204.672 355.317 204.88C354.837 205.088 354.437 205.304 354.117 205.528V214H352.149ZM361.738 218.224C360.986 218.224 360.33 218.12 359.77 217.912V216.328C360.042 216.424 360.29 216.488 360.514 216.52C360.754 216.552 360.994 216.568 361.234 216.568C361.778 216.568 362.202 216.472 362.506 216.28C362.826 216.088 363.106 215.792 363.346 215.392C363.586 215.008 363.85 214.504 364.138 213.88L359.122 202.624H361.162L365.122 211.792L369.202 202.624H371.218L366.442 213.496C366.042 214.408 365.634 215.216 365.218 215.92C364.802 216.64 364.322 217.2 363.778 217.6C363.234 218.016 362.554 218.224 361.738 218.224ZM384.525 214.24C382.541 214.24 381.069 213.728 380.109 212.704C379.149 211.664 378.669 210.2 378.669 208.312C378.669 206.312 379.213 204.824 380.301 203.848C381.389 202.872 382.853 202.384 384.693 202.384C385.445 202.384 386.069 202.44 386.565 202.552C387.061 202.648 387.541 202.808 388.005 203.032V204.592C387.141 204.176 386.157 203.968 385.053 203.968C383.645 203.968 382.557 204.304 381.789 204.976C381.021 205.632 380.637 206.744 380.637 208.312C380.637 209.816 380.973 210.92 381.645 211.624C382.317 212.312 383.429 212.656 384.981 212.656C386.085 212.656 387.101 212.448 388.029 212.032V213.616C387.533 213.824 386.997 213.976 386.421 214.072C385.861 214.184 385.229 214.24 384.525 214.24ZM393.763 214.24C393.043 214.24 392.379 214.112 391.771 213.856C391.163 213.6 390.675 213.224 390.307 212.728C389.939 212.216 389.755 211.576 389.755 210.808C389.755 209.768 390.099 208.92 390.787 208.264C391.475 207.592 392.595 207.256 394.147 207.256H398.107V206.56C398.107 205.936 398.019 205.44 397.843 205.072C397.683 204.704 397.371 204.44 396.907 204.28C396.443 204.12 395.763 204.04 394.867 204.04C394.179 204.04 393.515 204.096 392.875 204.208C392.235 204.32 391.635 204.472 391.075 204.664V203.032C391.587 202.84 392.187 202.688 392.875 202.576C393.579 202.448 394.331 202.384 395.131 202.384C396.747 202.384 397.955 202.712 398.755 203.368C399.571 204.024 399.979 205.088 399.979 206.56V214H398.323L398.179 212.704C397.683 213.216 397.083 213.6 396.379 213.856C395.675 214.112 394.803 214.24 393.763 214.24ZM394.267 212.632C395.099 212.632 395.835 212.488 396.475 212.2C397.115 211.896 397.659 211.488 398.107 210.976V208.768H394.195C393.299 208.768 392.659 208.936 392.275 209.272C391.891 209.608 391.699 210.12 391.699 210.808C391.699 211.496 391.931 211.976 392.395 212.248C392.859 212.504 393.483 212.632 394.267 212.632ZM403.219 214V202.624H404.995L405.115 203.92C405.659 203.472 406.291 203.104 407.011 202.816C407.747 202.528 408.587 202.384 409.531 202.384C410.971 202.384 412.019 202.72 412.675 203.392C413.331 204.064 413.659 205.12 413.659 206.56V214H411.691V206.632C411.691 205.64 411.491 204.952 411.091 204.568C410.691 204.168 409.923 203.968 408.787 203.968C408.083 203.968 407.419 204.096 406.795 204.352C406.171 204.608 405.635 204.96 405.187 205.408V214H403.219ZM428.222 214.24C427.374 214.24 426.63 214.128 425.99 213.904C425.366 213.664 424.79 213.296 424.262 212.8L424.118 214H422.438V197.824H424.406V203.464C425.446 202.744 426.71 202.384 428.198 202.384C429.814 202.384 431.078 202.848 431.99 203.776C432.902 204.688 433.358 206.168 433.358 208.216C433.358 210.28 432.902 211.8 431.99 212.776C431.078 213.752 429.822 214.24 428.222 214.24ZM427.718 212.656C429.046 212.656 429.99 212.288 430.55 211.552C431.11 210.816 431.39 209.704 431.39 208.216C431.39 206.664 431.086 205.568 430.478 204.928C429.886 204.288 428.95 203.968 427.67 203.968C426.982 203.968 426.366 204.072 425.822 204.28C425.278 204.472 424.806 204.744 424.406 205.096V211.288C424.838 211.752 425.334 212.096 425.894 212.32C426.454 212.544 427.062 212.656 427.718 212.656ZM441.835 214.24C439.803 214.24 438.283 213.752 437.275 212.776C436.267 211.8 435.763 210.296 435.763 208.264C435.763 206.44 436.195 205.008 437.059 203.968C437.939 202.912 439.323 202.384 441.211 202.384C442.331 202.384 443.251 202.592 443.971 203.008C444.707 203.408 445.251 203.968 445.603 204.688C445.971 205.392 446.155 206.192 446.155 207.088V209.224H437.73C437.795 210.088 437.979 210.768 438.283 211.264C438.603 211.76 439.075 212.12 439.699 212.344C440.339 212.552 441.179 212.656 442.219 212.656C443.387 212.656 444.459 212.456 445.435 212.056V213.592C444.939 213.8 444.379 213.96 443.755 214.072C443.147 214.184 442.507 214.24 441.835 214.24ZM437.73 207.808H444.403V206.872C444.403 205.944 444.155 205.232 443.659 204.736C443.179 204.224 442.379 203.968 441.259 203.968C439.899 203.968 438.971 204.288 438.475 204.928C437.979 205.568 437.73 206.528 437.73 207.808ZM458.555 214L454.091 202.624H456.131L459.659 212.176L463.187 202.624H465.227L460.763 214H458.555ZM468.354 199.96V198.16H470.538V199.96H468.354ZM468.546 214V204.184H466.794L466.986 202.624H470.514V214H468.546ZM479.499 214.24C477.467 214.24 475.947 213.752 474.939 212.776C473.931 211.8 473.427 210.296 473.427 208.264C473.427 206.44 473.859 205.008 474.723 203.968C475.603 202.912 476.987 202.384 478.875 202.384C479.995 202.384 480.915 202.592 481.635 203.008C482.371 203.408 482.915 203.968 483.267 204.688C483.635 205.392 483.819 206.192 483.819 207.088V209.224H475.395C475.459 210.088 475.643 210.768 475.947 211.264C476.267 211.76 476.739 212.12 477.363 212.344C478.003 212.552 478.843 212.656 479.883 212.656C481.051 212.656 482.123 212.456 483.099 212.056V213.592C482.603 213.8 482.043 213.96 481.419 214.072C480.811 214.184 480.171 214.24 479.499 214.24ZM475.395 207.808H482.067V206.872C482.067 205.944 481.819 205.232 481.323 204.736C480.843 204.224 480.043 203.968 478.923 203.968C477.563 203.968 476.635 204.288 476.139 204.928C475.643 205.568 475.395 206.528 475.395 207.808ZM488.121 214L485.145 202.624H487.113L489.345 211.768L491.889 203.944V202.624H493.401L496.209 211.768L498.441 202.624H500.409L497.433 214H495.465L492.801 205.744L490.089 214H488.121ZM507.811 214.24C505.779 214.24 504.259 213.752 503.251 212.776C502.243 211.8 501.739 210.296 501.739 208.264C501.739 206.44 502.171 205.008 503.035 203.968C503.915 202.912 505.299 202.384 507.187 202.384C508.307 202.384 509.227 202.592 509.947 203.008C510.683 203.408 511.227 203.968 511.579 204.688C511.947 205.392 512.131 206.192 512.131 207.088V209.224H503.707C503.771 210.088 503.955 210.768 504.259 211.264C504.579 211.76 505.051 212.12 505.675 212.344C506.315 212.552 507.155 212.656 508.195 212.656C509.363 212.656 510.435 212.456 511.411 212.056V213.592C510.915 213.8 510.355 213.96 509.731 214.072C509.123 214.184 508.483 214.24 507.811 214.24ZM503.707 207.808H510.379V206.872C510.379 205.944 510.131 205.232 509.635 204.736C509.155 204.224 508.355 203.968 507.235 203.968C505.875 203.968 504.947 204.288 504.451 204.928C503.955 205.568 503.707 206.528 503.707 207.808ZM519.672 214.24C518.072 214.24 516.816 213.8 515.904 212.92C514.992 212.024 514.536 210.544 514.536 208.48C514.536 206.432 515.008 204.904 515.952 203.896C516.912 202.888 518.192 202.384 519.792 202.384C521.216 202.384 522.448 202.744 523.488 203.464V197.824H525.456V214H523.776L523.632 212.8C523.104 213.296 522.52 213.664 521.88 213.904C521.256 214.128 520.52 214.24 519.672 214.24ZM520.176 212.656C520.832 212.656 521.44 212.544 522 212.32C522.56 212.096 523.056 211.752 523.488 211.288V205.096C523.088 204.744 522.616 204.472 522.072 204.28C521.528 204.072 520.912 203.968 520.224 203.968C518.96 203.968 518.024 204.336 517.416 205.072C516.808 205.792 516.504 206.928 516.504 208.48C516.504 209.968 516.784 211.04 517.344 211.696C517.904 212.336 518.848 212.656 520.176 212.656ZM539.56 214.24C537.576 214.24 536.128 213.736 535.216 212.728C534.32 211.704 533.872 210.232 533.872 208.312C533.872 206.408 534.328 204.944 535.24 203.92C536.152 202.896 537.592 202.384 539.56 202.384C541.528 202.384 542.968 202.896 543.88 203.92C544.792 204.944 545.248 206.408 545.248 208.312C545.248 210.232 544.8 211.704 543.904 212.728C543.008 213.736 541.56 214.24 539.56 214.24ZM539.56 212.56C540.92 212.56 541.88 212.224 542.44 211.552C543 210.864 543.28 209.784 543.28 208.312C543.28 206.84 542.992 205.768 542.416 205.096C541.856 204.408 540.904 204.064 539.56 204.064C538.216 204.064 537.256 204.408 536.68 205.096C536.12 205.768 535.84 206.84 535.84 208.312C535.84 209.784 536.12 210.864 536.68 211.552C537.24 212.224 538.2 212.56 539.56 212.56ZM548.133 214V202.624H549.909L550.029 203.92C550.573 203.472 551.205 203.104 551.925 202.816C552.661 202.528 553.501 202.384 554.445 202.384C555.885 202.384 556.933 202.72 557.589 203.392C558.245 204.064 558.573 205.12 558.573 206.56V214H556.605V206.632C556.605 205.64 556.405 204.952 556.005 204.568C555.605 204.168 554.837 203.968 553.701 203.968C552.997 203.968 552.333 204.096 551.709 204.352C551.085 204.608 550.549 204.96 550.101 205.408V214H548.133ZM571.504 214.24C570.384 214.24 569.536 213.944 568.96 213.352C568.4 212.744 568.12 211.904 568.12 210.832V204.184H566.392V202.624H568.12V199.816L570.088 199.216V202.624H573.232L573.112 204.184H570.088V210.736C570.088 211.424 570.24 211.92 570.544 212.224C570.864 212.512 571.408 212.656 572.176 212.656C572.592 212.656 573.048 212.576 573.544 212.416V213.904C572.952 214.128 572.272 214.24 571.504 214.24ZM575.813 214V197.824H577.781V203.848C578.309 203.416 578.925 203.064 579.629 202.792C580.349 202.52 581.181 202.384 582.125 202.384C583.501 202.384 584.533 202.72 585.221 203.392C585.909 204.064 586.253 205.12 586.253 206.56V214H584.285V206.632C584.285 205.64 584.061 204.952 583.613 204.568C583.181 204.168 582.461 203.968 581.453 203.968C580.813 203.968 580.149 204.112 579.461 204.4C578.789 204.672 578.229 205.032 577.781 205.48V214H575.813ZM594.717 214.24C592.685 214.24 591.165 213.752 590.157 212.776C589.149 211.8 588.645 210.296 588.645 208.264C588.645 206.44 589.077 205.008 589.941 203.968C590.821 202.912 592.205 202.384 594.093 202.384C595.213 202.384 596.133 202.592 596.853 203.008C597.589 203.408 598.133 203.968 598.485 204.688C598.853 205.392 599.037 206.192 599.037 207.088V209.224H590.613C590.677 210.088 590.861 210.768 591.165 211.264C591.485 211.76 591.957 212.12 592.581 212.344C593.221 212.552 594.061 212.656 595.101 212.656C596.269 212.656 597.341 212.456 598.317 212.056V213.592C597.821 213.8 597.261 213.96 596.637 214.072C596.029 214.184 595.389 214.24 594.717 214.24ZM590.613 207.808H597.285V206.872C597.285 205.944 597.037 205.232 596.541 204.736C596.061 204.224 595.261 203.968 594.141 203.968C592.781 203.968 591.853 204.288 591.357 204.928C590.861 205.568 590.613 206.528 590.613 207.808ZM611.989 214.24C610.069 214.24 608.517 214 607.333 213.52V211.768C608.005 212.024 608.717 212.224 609.469 212.368C610.237 212.496 611.021 212.56 611.821 212.56C613.197 212.56 614.229 212.376 614.917 212.008C615.605 211.624 615.949 210.944 615.949 209.968C615.949 209.36 615.805 208.88 615.517 208.528C615.245 208.16 614.789 207.856 614.149 207.616C613.509 207.36 612.653 207.104 611.581 206.848C609.885 206.432 608.693 205.896 608.005 205.24C607.317 204.568 606.973 203.672 606.973 202.552C606.973 201.24 607.445 200.208 608.389 199.456C609.333 198.688 610.773 198.304 612.709 198.304C613.605 198.304 614.437 198.368 615.205 198.496C615.973 198.624 616.565 198.76 616.981 198.904V200.632C616.405 200.424 615.781 200.264 615.109 200.152C614.437 200.04 613.741 199.984 613.021 199.984C611.709 199.984 610.701 200.176 609.997 200.56C609.293 200.944 608.941 201.608 608.941 202.552C608.941 203.08 609.061 203.512 609.301 203.848C609.557 204.168 609.981 204.448 610.573 204.688C611.165 204.912 611.989 205.152 613.045 205.408C614.309 205.712 615.293 206.08 615.997 206.512C616.701 206.928 617.197 207.424 617.485 208C617.773 208.576 617.917 209.232 617.917 209.968C617.917 211.328 617.421 212.384 616.429 213.136C615.437 213.872 613.957 214.24 611.989 214.24ZM621.847 218.224C621.095 218.224 620.439 218.12 619.879 217.912V216.328C620.151 216.424 620.399 216.488 620.623 216.52C620.863 216.552 621.103 216.568 621.343 216.568C621.887 216.568 622.311 216.472 622.615 216.28C622.935 216.088 623.215 215.792 623.455 215.392C623.695 215.008 623.959 214.504 624.247 213.88L619.231 202.624H621.271L625.231 211.792L629.311 202.624H631.327L626.551 213.496C626.151 214.408 625.743 215.216 625.327 215.92C624.911 216.64 624.431 217.2 623.887 217.6C623.343 218.016 622.663 218.224 621.847 218.224ZM637.305 214.24C635.705 214.24 634.449 213.8 633.537 212.92C632.625 212.024 632.169 210.544 632.169 208.48C632.169 206.432 632.641 204.904 633.585 203.896C634.545 202.888 635.825 202.384 637.425 202.384C638.849 202.384 640.081 202.744 641.121 203.464V197.824H643.089V214H641.409L641.265 212.8C640.737 213.296 640.153 213.664 639.513 213.904C638.889 214.128 638.153 214.24 637.305 214.24ZM637.809 212.656C638.465 212.656 639.073 212.544 639.633 212.32C640.193 212.096 640.689 211.752 641.121 211.288V205.096C640.721 204.744 640.249 204.472 639.705 204.28C639.161 204.072 638.545 203.968 637.857 203.968C636.593 203.968 635.657 204.336 635.049 205.072C634.441 205.792 634.137 206.928 634.137 208.48C634.137 209.968 634.417 211.04 634.977 211.696C635.537 212.336 636.481 212.656 637.809 212.656ZM646.453 214V202.624H648.229L648.349 203.92C648.893 203.472 649.525 203.104 650.245 202.816C650.981 202.528 651.821 202.384 652.765 202.384C654.205 202.384 655.253 202.72 655.909 203.392C656.565 204.064 656.893 205.12 656.893 206.56V214H654.925V206.632C654.925 205.64 654.725 204.952 654.325 204.568C653.925 204.168 653.157 203.968 652.021 203.968C651.317 203.968 650.653 204.096 650.029 204.352C649.405 204.608 648.869 204.96 648.421 205.408V214H646.453ZM665.358 214.24C663.326 214.24 661.806 213.752 660.798 212.776C659.79 211.8 659.286 210.296 659.286 208.264C659.286 206.44 659.718 205.008 660.582 203.968C661.462 202.912 662.846 202.384 664.734 202.384C665.854 202.384 666.774 202.592 667.494 203.008C668.23 203.408 668.774 203.968 669.126 204.688C669.494 205.392 669.678 206.192 669.678 207.088V209.224H661.254C661.318 210.088 661.502 210.768 661.806 211.264C662.126 211.76 662.598 212.12 663.222 212.344C663.862 212.552 664.702 212.656 665.742 212.656C666.91 212.656 667.982 212.456 668.958 212.056V213.592C668.462 213.8 667.902 213.96 667.278 214.072C666.67 214.184 666.03 214.24 665.358 214.24ZM661.254 207.808H667.926V206.872C667.926 205.944 667.678 205.232 667.182 204.736C666.702 204.224 665.902 203.968 664.782 203.968C663.422 203.968 662.494 204.288 661.998 204.928C661.502 205.568 661.254 206.528 661.254 207.808ZM673.386 218.224C672.634 218.224 671.978 218.12 671.418 217.912V216.328C671.69 216.424 671.938 216.488 672.162 216.52C672.402 216.552 672.642 216.568 672.882 216.568C673.426 216.568 673.85 216.472 674.154 216.28C674.474 216.088 674.754 215.792 674.994 215.392C675.234 215.008 675.498 214.504 675.786 213.88L670.77 202.624H672.81L676.77 211.792L680.85 202.624H682.866L678.09 213.496C677.69 214.408 677.282 215.216 676.866 215.92C676.45 216.64 675.97 217.2 675.426 217.6C674.882 218.016 674.202 218.224 673.386 218.224ZM33.68 250V234.544H35.648V248.464H43.88V250H33.68ZM50.6536 250.24C48.6696 250.24 47.2216 249.736 46.3096 248.728C45.4136 247.704 44.9656 246.232 44.9656 244.312C44.9656 242.408 45.4216 240.944 46.3336 239.92C47.2456 238.896 48.6856 238.384 50.6536 238.384C52.6216 238.384 54.0616 238.896 54.9736 239.92C55.8856 240.944 56.3416 242.408 56.3416 244.312C56.3416 246.232 55.8936 247.704 54.9976 248.728C54.1016 249.736 52.6536 250.24 50.6536 250.24ZM50.6536 248.56C52.0136 248.56 52.9736 248.224 53.5336 247.552C54.0936 246.864 54.3736 245.784 54.3736 244.312C54.3736 242.84 54.0856 241.768 53.5096 241.096C52.9496 240.408 51.9976 240.064 50.6536 240.064C49.3096 240.064 48.3496 240.408 47.7736 241.096C47.2136 241.768 46.9336 242.84 46.9336 244.312C46.9336 245.784 47.2136 246.864 47.7736 247.552C48.3336 248.224 49.2936 248.56 50.6536 248.56ZM63.3789 250.24C62.2589 250.24 61.4109 249.944 60.8349 249.352C60.2749 248.744 59.9949 247.904 59.9949 246.832V240.184H58.2669V238.624H59.9949V235.816L61.9629 235.216V238.624H65.1069L64.9869 240.184H61.9629V246.736C61.9629 247.424 62.1149 247.92 62.4189 248.224C62.7389 248.512 63.2829 248.656 64.0509 248.656C64.4669 248.656 64.9229 248.576 65.4189 248.416V249.904C64.8269 250.128 64.1469 250.24 63.3789 250.24ZM71.8398 250.24C70.7198 250.24 69.8718 249.944 69.2958 249.352C68.7358 248.744 68.4558 247.904 68.4558 246.832V240.184H66.7278V238.624H68.4558V235.816L70.4238 235.216V238.624H73.5678L73.4478 240.184H70.4238V246.736C70.4238 247.424 70.5758 247.92 70.8798 248.224C71.1998 248.512 71.7438 248.656 72.5118 248.656C72.9278 248.656 73.3838 248.576 73.8798 248.416V249.904C73.2878 250.128 72.6078 250.24 71.8398 250.24ZM81.3568 250.24C79.3728 250.24 77.9248 249.736 77.0128 248.728C76.1168 247.704 75.6688 246.232 75.6688 244.312C75.6688 242.408 76.1248 240.944 77.0368 239.92C77.9488 238.896 79.3888 238.384 81.3568 238.384C83.3248 238.384 84.7648 238.896 85.6768 239.92C86.5888 240.944 87.0448 242.408 87.0448 244.312C87.0448 246.232 86.5968 247.704 85.7008 248.728C84.8048 249.736 83.3568 250.24 81.3568 250.24ZM81.3568 248.56C82.7168 248.56 83.6768 248.224 84.2368 247.552C84.7968 246.864 85.0768 245.784 85.0768 244.312C85.0768 242.84 84.7888 241.768 84.2128 241.096C83.6528 240.408 82.7008 240.064 81.3568 240.064C80.0128 240.064 79.0528 240.408 78.4768 241.096C77.9168 241.768 77.6367 242.84 77.6367 244.312C77.6367 245.784 77.9168 246.864 78.4768 247.552C79.0368 248.224 79.9968 248.56 81.3568 248.56ZM100.669 250.24C98.6853 250.24 97.2373 249.736 96.3253 248.728C95.4293 247.704 94.9813 246.232 94.9813 244.312C94.9813 242.408 95.4373 240.944 96.3493 239.92C97.2613 238.896 98.7013 238.384 100.669 238.384C102.637 238.384 104.077 238.896 104.989 239.92C105.901 240.944 106.357 242.408 106.357 244.312C106.357 246.232 105.909 247.704 105.013 248.728C104.117 249.736 102.669 250.24 100.669 250.24ZM100.669 248.56C102.029 248.56 102.989 248.224 103.549 247.552C104.109 246.864 104.389 245.784 104.389 244.312C104.389 242.84 104.101 241.768 103.525 241.096C102.965 240.408 102.013 240.064 100.669 240.064C99.3253 240.064 98.3653 240.408 97.7893 241.096C97.2293 241.768 96.9492 242.84 96.9492 244.312C96.9492 245.784 97.2293 246.864 97.7893 247.552C98.3493 248.224 99.3093 248.56 100.669 248.56ZM109.987 250V240.184H108.283V238.624H109.987V236.968C109.987 235.88 110.283 235.024 110.875 234.4C111.483 233.76 112.371 233.44 113.539 233.44C113.955 233.44 114.331 233.472 114.667 233.536C115.019 233.6 115.339 233.688 115.627 233.8V235.288C115.131 235.112 114.603 235.024 114.043 235.024C113.227 235.024 112.675 235.176 112.387 235.48C112.099 235.768 111.955 236.264 111.955 236.968V238.624H115.027L114.931 240.184H111.955V250H109.987ZM117.51 250V240.184H115.806V238.624H117.51V237.304C117.51 236.168 117.902 235.24 118.686 234.52C119.486 233.8 120.518 233.44 121.782 233.44C122.854 233.44 123.71 233.56 124.35 233.8V235.288C124.11 235.208 123.798 235.144 123.414 235.096C123.046 235.048 122.67 235.024 122.286 235.024C120.414 235.024 119.478 235.784 119.478 237.304V238.624H125.742V250H123.774V240.184H119.478V250H117.51ZM134.47 250.24C132.486 250.24 131.014 249.728 130.054 248.704C129.094 247.664 128.614 246.2 128.614 244.312C128.614 242.312 129.158 240.824 130.246 239.848C131.334 238.872 132.798 238.384 134.638 238.384C135.39 238.384 136.014 238.44 136.51 238.552C137.006 238.648 137.486 238.808 137.95 239.032V240.592C137.086 240.176 136.102 239.968 134.998 239.968C133.59 239.968 132.502 240.304 131.734 240.976C130.966 241.632 130.582 242.744 130.582 244.312C130.582 245.816 130.918 246.92 131.59 247.624C132.262 248.312 133.374 248.656 134.926 248.656C136.03 248.656 137.046 248.448 137.974 248.032V249.616C137.478 249.824 136.942 249.976 136.366 250.072C135.806 250.184 135.174 250.24 134.47 250.24ZM141.26 235.96V234.16H143.444V235.96H141.26ZM141.452 250V240.184H139.7L139.892 238.624H143.42V250H141.452ZM150.341 250.24C149.621 250.24 148.957 250.112 148.349 249.856C147.741 249.6 147.253 249.224 146.885 248.728C146.517 248.216 146.333 247.576 146.333 246.808C146.333 245.768 146.677 244.92 147.365 244.264C148.053 243.592 149.173 243.256 150.725 243.256H154.685V242.56C154.685 241.936 154.597 241.44 154.421 241.072C154.261 240.704 153.949 240.44 153.485 240.28C153.021 240.12 152.341 240.04 151.445 240.04C150.757 240.04 150.093 240.096 149.453 240.208C148.813 240.32 148.213 240.472 147.653 240.664V239.032C148.165 238.84 148.765 238.688 149.453 238.576C150.157 238.448 150.909 238.384 151.709 238.384C153.325 238.384 154.533 238.712 155.333 239.368C156.149 240.024 156.557 241.088 156.557 242.56V250H154.901L154.757 248.704C154.261 249.216 153.661 249.6 152.957 249.856C152.253 250.112 151.381 250.24 150.341 250.24ZM150.845 248.632C151.677 248.632 152.413 248.488 153.053 248.2C153.693 247.896 154.237 247.488 154.685 246.976V244.768H150.773C149.877 244.768 149.237 244.936 148.853 245.272C148.469 245.608 148.277 246.12 148.277 246.808C148.277 247.496 148.509 247.976 148.973 248.248C149.437 248.504 150.061 248.632 150.845 248.632ZM162.269 250.24C161.501 250.24 160.893 250.04 160.445 249.64C160.013 249.224 159.797 248.528 159.797 247.552V233.824H161.765V247.336C161.765 247.816 161.845 248.144 162.005 248.32C162.165 248.496 162.413 248.584 162.749 248.584C163.117 248.584 163.477 248.536 163.829 248.44V250C163.573 250.096 163.317 250.16 163.061 250.192C162.805 250.224 162.541 250.24 162.269 250.24ZM174.129 250L171.153 238.624H173.121L175.353 247.768L177.897 239.944V238.624H179.409L182.217 247.768L184.449 238.624H186.417L183.441 250H181.473L178.809 241.744L176.097 250H174.129ZM193.819 250.24C191.787 250.24 190.267 249.752 189.259 248.776C188.251 247.8 187.747 246.296 187.747 244.264C187.747 242.44 188.179 241.008 189.043 239.968C189.923 238.912 191.307 238.384 193.195 238.384C194.315 238.384 195.235 238.592 195.955 239.008C196.691 239.408 197.235 239.968 197.587 240.688C197.955 241.392 198.139 242.192 198.139 243.088V245.224H189.715C189.779 246.088 189.963 246.768 190.267 247.264C190.587 247.76 191.059 248.12 191.683 248.344C192.323 248.552 193.163 248.656 194.203 248.656C195.371 248.656 196.443 248.456 197.419 248.056V249.592C196.923 249.8 196.363 249.96 195.739 250.072C195.131 250.184 194.491 250.24 193.819 250.24ZM189.715 243.808H196.387V242.872C196.387 241.944 196.139 241.232 195.643 240.736C195.163 240.224 194.363 239.968 193.243 239.968C191.883 239.968 190.955 240.288 190.459 240.928C189.963 241.568 189.715 242.528 189.715 243.808ZM206.808 250.24C205.96 250.24 205.216 250.128 204.576 249.904C203.952 249.664 203.376 249.296 202.848 248.8L202.704 250H201.024V233.824H202.992V239.464C204.032 238.744 205.296 238.384 206.784 238.384C208.4 238.384 209.664 238.848 210.576 239.776C211.488 240.688 211.944 242.168 211.944 244.216C211.944 246.28 211.488 247.8 210.576 248.776C209.664 249.752 208.408 250.24 206.808 250.24ZM206.304 248.656C207.632 248.656 208.576 248.288 209.136 247.552C209.696 246.816 209.976 245.704 209.976 244.216C209.976 242.664 209.672 241.568 209.064 240.928C208.472 240.288 207.536 239.968 206.256 239.968C205.568 239.968 204.952 240.072 204.408 240.28C203.864 240.472 203.392 240.744 202.992 241.096V247.288C203.424 247.752 203.92 248.096 204.48 248.32C205.04 248.544 205.648 248.656 206.304 248.656ZM218.287 250.24C217.551 250.24 216.847 250.192 216.175 250.096C215.519 250 214.967 249.872 214.519 249.712V247.984C215.063 248.176 215.631 248.32 216.223 248.416C216.831 248.512 217.431 248.56 218.023 248.56C219.031 248.56 219.751 248.456 220.183 248.248C220.615 248.024 220.831 247.616 220.831 247.024C220.831 246.592 220.711 246.264 220.471 246.04C220.247 245.816 219.895 245.616 219.415 245.44C218.951 245.264 218.351 245.056 217.615 244.816C216.959 244.592 216.375 244.36 215.863 244.12C215.351 243.88 214.951 243.56 214.663 243.16C214.375 242.744 214.231 242.192 214.231 241.504C214.231 240.496 214.583 239.728 215.287 239.2C215.991 238.656 217.127 238.384 218.695 238.384C219.303 238.384 219.887 238.432 220.447 238.528C221.007 238.608 221.495 238.712 221.911 238.84V240.568C220.903 240.232 219.935 240.064 219.007 240.064C218.015 240.064 217.295 240.168 216.847 240.376C216.415 240.568 216.199 240.936 216.199 241.48C216.199 241.848 216.295 242.144 216.487 242.368C216.695 242.576 217.007 242.76 217.423 242.92C217.855 243.064 218.407 243.248 219.079 243.472C219.959 243.744 220.671 244.024 221.215 244.312C221.759 244.6 222.159 244.952 222.415 245.368C222.671 245.784 222.799 246.328 222.799 247C222.799 248.12 222.407 248.944 221.623 249.472C220.839 249.984 219.727 250.24 218.287 250.24ZM226.033 235.96V234.16H228.217V235.96H226.033ZM226.225 250V240.184H224.473L224.665 238.624H228.193V250H226.225ZM235.738 250.24C234.618 250.24 233.77 249.944 233.194 249.352C232.634 248.744 232.354 247.904 232.354 246.832V240.184H230.626V238.624H232.354V235.816L234.322 235.216V238.624H237.466L237.346 240.184H234.322V246.736C234.322 247.424 234.474 247.92 234.778 248.224C235.098 248.512 235.642 248.656 236.41 248.656C236.826 248.656 237.282 248.576 237.778 248.416V249.904C237.186 250.128 236.506 250.24 235.738 250.24ZM245.639 250.24C243.607 250.24 242.087 249.752 241.079 248.776C240.071 247.8 239.567 246.296 239.567 244.264C239.567 242.44 239.999 241.008 240.863 239.968C241.743 238.912 243.127 238.384 245.015 238.384C246.135 238.384 247.055 238.592 247.775 239.008C248.511 239.408 249.055 239.968 249.407 240.688C249.775 241.392 249.959 242.192 249.959 243.088V245.224H241.535C241.599 246.088 241.783 246.768 242.087 247.264C242.407 247.76 242.879 248.12 243.503 248.344C244.143 248.552 244.983 248.656 246.023 248.656C247.191 248.656 248.263 248.456 249.239 248.056V249.592C248.743 249.8 248.183 249.96 247.559 250.072C246.951 250.184 246.311 250.24 245.639 250.24ZM241.535 243.808H248.207V242.872C248.207 241.944 247.959 241.232 247.463 240.736C246.983 240.224 246.183 239.968 245.063 239.968C243.703 239.968 242.775 240.288 242.279 240.928C241.783 241.568 241.535 242.528 241.535 243.808ZM252.364 250V248.344H254.14V250H252.364Z" fill="#011335" fill-opacity="0.8"/>
</g>
<defs>
<clipPath id="clip0_1_9386">
<rect width="735" height="328" fill="white"/>
</clipPath>
</defs>
</svg>
