<svg width="100" height="100" viewBox="0 0 100 100" fill="none" xmlns="http://www.w3.org/2000/svg">
<path d="M92.5781 31.7188H7.42188V84.375H92.5781V31.7188Z" fill="#DE1E35"/>
<path d="M0 8.20312V91.7969H100V8.20312H0ZM96.875 11.3281V24.2969H3.125V11.3281H96.875ZM3.125 88.6719V27.4219H96.875V88.6719H3.125Z" fill="#011335"/>
<path d="M89.2578 16.25H73.6328V19.375H89.2578V16.25Z" fill="#011335"/>
<path d="M57.6172 52.3437C57.626 44.2449 51.0678 37.6726 42.969 37.6638C34.8701 37.655 28.2979 44.2132 28.2891 52.3121C28.2803 60.4109 34.8385 66.9832 42.9373 66.992C46.318 66.9957 49.5961 65.831 52.2168 63.6953L66.0996 77.5781L68.3086 75.3691L54.4121 61.4726C56.4891 58.8836 57.6199 55.6628 57.6172 52.3437ZM42.9688 63.8671C36.6045 63.8671 31.4453 58.708 31.4453 52.3437C31.4453 45.9795 36.6045 40.8203 42.9688 40.8203C49.333 40.8203 54.4922 45.9795 54.4922 52.3437C54.4846 58.7048 49.3299 63.8595 42.9688 63.8671Z" fill="#011335"/>
</svg>
