<svg width="735" height="328" viewBox="0 0 735 328" fill="none" xmlns="http://www.w3.org/2000/svg">
<g clip-path="url(#clip0_1_9363)">
<rect width="735" height="328" rx="2" fill="white"/>
<rect x="32" y="32" width="75" height="76" rx="2" fill="#DE1E35"/>
<path d="M62.62 85.04C59.7933 85.04 57.5267 84.5067 55.82 83.44C54.1133 82.3733 52.8733 80.8267 52.1 78.8C51.3533 76.7467 50.98 74.2933 50.98 71.44C50.98 68.56 51.3533 66.1067 52.1 64.08C52.8733 62.0533 54.1133 60.5067 55.82 59.44C57.5267 58.3733 59.7933 57.84 62.62 57.84C65.4467 57.84 67.7133 58.3733 69.42 59.44C71.1267 60.5067 72.3533 62.0533 73.1 64.08C73.8733 66.1067 74.26 68.56 74.26 71.44C74.26 74.2933 73.8733 76.7467 73.1 78.8C72.3533 80.8267 71.1267 82.3733 69.42 83.44C67.7133 84.5067 65.4467 85.04 62.62 85.04ZM62.62 80.4C64.94 80.4 66.54 79.6267 67.42 78.08C68.3267 76.5333 68.78 74.32 68.78 71.44C68.78 68.56 68.3267 66.3467 67.42 64.8C66.54 63.2533 64.94 62.48 62.62 62.48C60.3 62.48 58.6867 63.2533 57.78 64.8C56.9 66.3467 56.46 68.56 56.46 71.44C56.46 74.32 56.9 76.5333 57.78 78.08C58.6867 79.6267 60.3 80.4 62.62 80.4ZM81.43 84V63.12L77.23 63.8V59.28L86.83 57.84V84H81.43Z" fill="white"/>
<path d="M42.28 166.4C40.6267 166.4 39.08 166.28 37.64 166.04C36.2267 165.8 35 165.453 33.96 165V160.24C35.1333 160.72 36.4 161.107 37.76 161.4C39.12 161.693 40.4533 161.84 41.76 161.84C43.6267 161.84 45 161.667 45.88 161.32C46.76 160.973 47.2 160.187 47.2 158.96C47.2 158.187 47.0133 157.573 46.64 157.12C46.2667 156.667 45.6133 156.267 44.68 155.92C43.7733 155.547 42.48 155.133 40.8 154.68C38.1067 153.933 36.2133 153 35.12 151.88C34.0267 150.76 33.48 149.213 33.48 147.24C33.48 144.867 34.3467 143.04 36.08 141.76C37.8133 140.48 40.3333 139.84 43.64 139.84C45.1867 139.84 46.6267 139.947 47.96 140.16C49.2933 140.373 50.3733 140.627 51.2 140.92V145.68C49.0133 144.853 46.7333 144.44 44.36 144.44C42.68 144.44 41.36 144.627 40.4 145C39.44 145.347 38.96 146.093 38.96 147.24C38.96 147.907 39.1333 148.44 39.48 148.84C39.8267 149.24 40.4133 149.6 41.24 149.92C42.0933 150.24 43.28 150.6 44.8 151C46.9067 151.56 48.5333 152.227 49.68 153C50.8267 153.773 51.6133 154.653 52.04 155.64C52.4933 156.627 52.72 157.733 52.72 158.96C52.72 161.2 51.8667 163 50.16 164.36C48.4533 165.72 45.8267 166.4 42.28 166.4ZM63.4016 166.4C61.2149 166.4 59.5882 165.827 58.5216 164.68C57.4816 163.533 56.9616 161.973 56.9616 160V151.2H54.2816V147.04H56.9616V142.96L62.3616 141.36V147.04H67.1616L66.8416 151.2H62.3616V159.64C62.3616 160.68 62.6016 161.4 63.0816 161.8C63.5616 162.173 64.3082 162.36 65.3216 162.36C66.0682 162.36 66.8416 162.227 67.6416 161.96V165.68C67.0549 165.92 66.4149 166.093 65.7216 166.2C65.0282 166.333 64.2549 166.4 63.4016 166.4ZM76.3728 166.4C75.1728 166.4 74.0528 166.187 73.0128 165.76C71.9995 165.307 71.1728 164.653 70.5328 163.8C69.9195 162.92 69.6128 161.827 69.6128 160.52C69.6128 158.653 70.2661 157.16 71.5728 156.04C72.9061 154.92 74.8661 154.36 77.4528 154.36H83.0528V153.84C83.0528 152.667 82.7195 151.84 82.0528 151.36C81.4128 150.88 80.1061 150.64 78.1328 150.64C75.9728 150.64 73.8928 150.973 71.8928 151.64V147.84C72.7728 147.493 73.8395 147.213 75.0928 147C76.3728 146.76 77.7595 146.64 79.2528 146.64C82.1061 146.64 84.3061 147.227 85.8528 148.4C87.4261 149.547 88.2128 151.4 88.2128 153.96V166H83.5328L83.2528 164.28C82.5061 164.947 81.5861 165.467 80.4928 165.84C79.3995 166.213 78.0261 166.4 76.3728 166.4ZM77.8528 162.84C79.0528 162.84 80.0928 162.64 80.9728 162.24C81.8528 161.84 82.5461 161.333 83.0528 160.72V157.72H77.5728C75.4661 157.72 74.4128 158.587 74.4128 160.32C74.4128 162 75.5595 162.84 77.8528 162.84ZM93.5613 166V151.2H90.9213V147.04H93.5613V145.12C93.5613 143.147 94.1213 141.533 95.2413 140.28C96.3613 139.027 98.0146 138.4 100.201 138.4C101.081 138.4 101.868 138.467 102.561 138.6C103.255 138.733 103.895 138.92 104.481 139.16V142.88C104.081 142.747 103.695 142.64 103.321 142.56C102.948 142.48 102.535 142.44 102.081 142.44C100.935 142.44 100.121 142.653 99.6413 143.08C99.1879 143.48 98.9613 144.187 98.9613 145.2V147.04H103.761L103.521 151.2H98.9613V166H93.5613ZM106.803 166V151.2H104.163V147.04H106.803V145.12C106.803 143.147 107.363 141.533 108.483 140.28C109.603 139.027 111.257 138.4 113.443 138.4C114.323 138.4 115.11 138.467 115.803 138.6C116.497 138.733 117.137 138.92 117.723 139.16V142.88C117.323 142.747 116.937 142.64 116.563 142.56C116.19 142.48 115.777 142.44 115.323 142.44C114.177 142.44 113.363 142.653 112.883 143.08C112.43 143.48 112.203 144.187 112.203 145.2V147.04H117.003L116.763 151.2H112.203V166H106.803ZM137.436 166.4C135.783 166.4 134.236 166.28 132.796 166.04C131.383 165.8 130.156 165.453 129.116 165V160.24C130.29 160.72 131.556 161.107 132.916 161.4C134.276 161.693 135.61 161.84 136.916 161.84C138.783 161.84 140.156 161.667 141.036 161.32C141.916 160.973 142.356 160.187 142.356 158.96C142.356 158.187 142.17 157.573 141.796 157.12C141.423 156.667 140.77 156.267 139.836 155.92C138.93 155.547 137.636 155.133 135.956 154.68C133.263 153.933 131.37 153 130.276 151.88C129.183 150.76 128.636 149.213 128.636 147.24C128.636 144.867 129.503 143.04 131.236 141.76C132.97 140.48 135.49 139.84 138.796 139.84C140.343 139.84 141.783 139.947 143.116 140.16C144.45 140.373 145.53 140.627 146.356 140.92V145.68C144.17 144.853 141.89 144.44 139.516 144.44C137.836 144.44 136.516 144.627 135.556 145C134.596 145.347 134.116 146.093 134.116 147.24C134.116 147.907 134.29 148.44 134.636 148.84C134.983 149.24 135.57 149.6 136.396 149.92C137.25 150.24 138.436 150.6 139.956 151C142.063 151.56 143.69 152.227 144.836 153C145.983 153.773 146.77 154.653 147.196 155.64C147.65 156.627 147.876 157.733 147.876 158.96C147.876 161.2 147.023 163 145.316 164.36C143.61 165.72 140.983 166.4 137.436 166.4ZM151.624 166V139.04H157.024V148.64C157.797 148.053 158.744 147.573 159.864 147.2C160.984 146.827 162.197 146.64 163.504 146.64C166.01 146.64 167.837 147.227 168.984 148.4C170.13 149.573 170.704 151.387 170.704 153.84V166H165.304V154.12C165.304 152.84 165.037 151.933 164.504 151.4C163.997 150.867 163.037 150.6 161.624 150.6C160.797 150.6 159.957 150.787 159.104 151.16C158.277 151.533 157.584 152 157.024 152.56V166H151.624ZM183.955 166.4C180.409 166.4 177.809 165.547 176.155 163.84C174.502 162.107 173.675 159.667 173.675 156.52C173.675 153.373 174.502 150.947 176.155 149.24C177.835 147.507 180.435 146.64 183.955 146.64C187.502 146.64 190.102 147.507 191.755 149.24C193.435 150.947 194.275 153.373 194.275 156.52C194.275 159.667 193.449 162.107 191.795 163.84C190.142 165.547 187.529 166.4 183.955 166.4ZM183.955 161.8C185.689 161.8 186.929 161.413 187.675 160.64C188.422 159.84 188.795 158.467 188.795 156.52C188.795 154.573 188.422 153.213 187.675 152.44C186.929 151.64 185.689 151.24 183.955 151.24C182.249 151.24 181.022 151.64 180.275 152.44C179.529 153.213 179.155 154.573 179.155 156.52C179.155 158.467 179.529 159.84 180.275 160.64C181.022 161.413 182.249 161.8 183.955 161.8ZM200.433 166L195.433 147.04H200.833L203.713 159.36L206.873 149.48V147.04H210.993L214.593 159.36L217.393 147.04H222.753L217.793 166H212.833L209.193 154.92L205.473 166H200.433ZM242.816 166.4C240.629 166.4 239.002 165.827 237.936 164.68C236.896 163.533 236.376 161.973 236.376 160V151.2H233.696V147.04H236.376V142.96L241.776 141.36V147.04H246.576L246.256 151.2H241.776V159.64C241.776 160.68 242.016 161.4 242.496 161.8C242.976 162.173 243.722 162.36 244.736 162.36C245.482 162.36 246.256 162.227 247.056 161.96V165.68C246.469 165.92 245.829 166.093 245.136 166.2C244.442 166.333 243.669 166.4 242.816 166.4ZM249.827 166V139.04H255.227V148.64C256 148.053 256.947 147.573 258.067 147.2C259.187 146.827 260.4 146.64 261.707 146.64C264.214 146.64 266.04 147.227 267.187 148.4C268.334 149.573 268.907 151.387 268.907 153.84V166H263.507V154.12C263.507 152.84 263.24 151.933 262.707 151.4C262.2 150.867 261.24 150.6 259.827 150.6C259 150.6 258.16 150.787 257.307 151.16C256.48 151.533 255.787 152 255.227 152.56V166H249.827ZM282.558 166.4C279.278 166.4 276.678 165.587 274.758 163.96C272.838 162.307 271.878 159.813 271.878 156.48C271.878 153.467 272.678 151.08 274.278 149.32C275.905 147.533 278.318 146.64 281.518 146.64C284.452 146.64 286.692 147.413 288.238 148.96C289.812 150.48 290.598 152.48 290.598 154.96V158.4H276.878C277.172 159.92 277.865 160.96 278.958 161.52C280.078 162.08 281.652 162.36 283.678 162.36C284.692 162.36 285.718 162.267 286.758 162.08C287.825 161.893 288.732 161.653 289.478 161.36V165.2C288.598 165.6 287.572 165.893 286.398 166.08C285.225 166.293 283.945 166.4 282.558 166.4ZM276.878 155.08H285.878V154.04C285.878 152.947 285.558 152.093 284.918 151.48C284.278 150.84 283.198 150.52 281.678 150.52C279.892 150.52 278.638 150.88 277.918 151.6C277.225 152.32 276.878 153.48 276.878 155.08ZM303.147 166V140.24H313.947C317.814 140.24 320.721 141.24 322.667 143.24C324.641 145.213 325.627 148.547 325.627 153.24C325.627 157.667 324.654 160.907 322.707 162.96C320.787 164.987 317.867 166 313.947 166H303.147ZM308.547 161.84H313.187C314.707 161.84 315.987 161.613 317.027 161.16C318.067 160.68 318.841 159.827 319.347 158.6C319.881 157.347 320.147 155.56 320.147 153.24C320.147 150.92 319.907 149.147 319.427 147.92C318.947 146.693 318.201 145.853 317.187 145.4C316.174 144.947 314.841 144.72 313.187 144.72H308.547V161.84ZM329.397 166V147.04H334.397L334.637 149C335.491 148.467 336.544 147.987 337.797 147.56C339.077 147.107 340.331 146.8 341.557 146.64V150.72C340.837 150.827 340.051 150.987 339.197 151.2C338.344 151.413 337.531 151.653 336.757 151.92C335.984 152.187 335.331 152.467 334.797 152.76V166H329.397ZM349.068 166.4C347.868 166.4 346.748 166.187 345.708 165.76C344.695 165.307 343.868 164.653 343.228 163.8C342.615 162.92 342.308 161.827 342.308 160.52C342.308 158.653 342.961 157.16 344.268 156.04C345.601 154.92 347.561 154.36 350.148 154.36H355.748V153.84C355.748 152.667 355.415 151.84 354.748 151.36C354.108 150.88 352.801 150.64 350.828 150.64C348.668 150.64 346.588 150.973 344.588 151.64V147.84C345.468 147.493 346.535 147.213 347.788 147C349.068 146.76 350.455 146.64 351.948 146.64C354.801 146.64 357.001 147.227 358.548 148.4C360.121 149.547 360.908 151.4 360.908 153.96V166H356.228L355.948 164.28C355.201 164.947 354.281 165.467 353.188 165.84C352.095 166.213 350.721 166.4 349.068 166.4ZM350.548 162.84C351.748 162.84 352.788 162.64 353.668 162.24C354.548 161.84 355.241 161.333 355.748 160.72V157.72H350.268C348.161 157.72 347.108 158.587 347.108 160.32C347.108 162 348.255 162.84 350.548 162.84ZM368.441 166L363.441 147.04H368.841L371.721 159.36L374.881 149.48V147.04H379.001L382.601 159.36L385.401 147.04H390.761L385.801 166H380.841L377.201 154.92L373.481 166H368.441ZM409.623 166V144.4H401.703V140.24H422.903V144.4H415.023V166H409.623ZM431.572 166.4C428.026 166.4 425.426 165.547 423.773 163.84C422.119 162.107 421.293 159.667 421.293 156.52C421.293 153.373 422.119 150.947 423.773 149.24C425.453 147.507 428.053 146.64 431.572 146.64C435.119 146.64 437.719 147.507 439.373 149.24C441.053 150.947 441.893 153.373 441.893 156.52C441.893 159.667 441.066 162.107 439.413 163.84C437.759 165.547 435.146 166.4 431.572 166.4ZM431.572 161.8C433.306 161.8 434.546 161.413 435.293 160.64C436.039 159.84 436.413 158.467 436.413 156.52C436.413 154.573 436.039 153.213 435.293 152.44C434.546 151.64 433.306 151.24 431.572 151.24C429.866 151.24 428.639 151.64 427.893 152.44C427.146 153.213 426.773 154.573 426.773 156.52C426.773 158.467 427.146 159.84 427.893 160.64C428.639 161.413 429.866 161.8 431.572 161.8ZM455.127 166.4C451.581 166.4 448.981 165.547 447.327 163.84C445.674 162.107 444.847 159.667 444.847 156.52C444.847 153.373 445.674 150.947 447.327 149.24C449.007 147.507 451.607 146.64 455.127 146.64C458.674 146.64 461.274 147.507 462.927 149.24C464.607 150.947 465.447 153.373 465.447 156.52C465.447 159.667 464.621 162.107 462.967 163.84C461.314 165.547 458.701 166.4 455.127 166.4ZM455.127 161.8C456.861 161.8 458.101 161.413 458.847 160.64C459.594 159.84 459.967 158.467 459.967 156.52C459.967 154.573 459.594 153.213 458.847 152.44C458.101 151.64 456.861 151.24 455.127 151.24C453.421 151.24 452.194 151.64 451.447 152.44C450.701 153.213 450.327 154.573 450.327 156.52C450.327 158.467 450.701 159.84 451.447 160.64C452.194 161.413 453.421 161.8 455.127 161.8ZM474.482 166.4C472.642 166.4 471.295 165.973 470.442 165.12C469.615 164.267 469.202 162.907 469.202 161.04V139.04H474.602V160.6C474.602 161.267 474.735 161.733 475.002 162C475.269 162.24 475.655 162.36 476.162 162.36C476.855 162.36 477.482 162.267 478.042 162.08V165.8C477.029 166.2 475.842 166.4 474.482 166.4ZM487.796 166.4C486.383 166.4 485.036 166.293 483.756 166.08C482.476 165.893 481.449 165.653 480.676 165.36V160.88C481.609 161.253 482.663 161.547 483.836 161.76C485.009 161.947 486.089 162.04 487.076 162.04C488.409 162.04 489.343 161.96 489.876 161.8C490.436 161.64 490.716 161.28 490.716 160.72C490.716 160.08 490.289 159.613 489.436 159.32C488.609 159.027 487.369 158.613 485.716 158.08C483.983 157.493 482.649 156.787 481.716 155.96C480.783 155.133 480.316 153.907 480.316 152.28C480.316 150.467 480.969 149.08 482.276 148.12C483.609 147.133 485.743 146.64 488.676 146.64C489.849 146.64 490.956 146.733 491.996 146.92C493.036 147.08 493.916 147.28 494.636 147.52V151.96C493.916 151.613 493.089 151.36 492.156 151.2C491.223 151.013 490.356 150.92 489.556 150.92C488.409 150.92 487.489 151 486.796 151.16C486.129 151.32 485.796 151.667 485.796 152.2C485.796 152.787 486.156 153.2 486.876 153.44C487.623 153.68 488.769 154.04 490.316 154.52C491.836 154.973 493.023 155.467 493.876 156C494.729 156.533 495.329 157.173 495.676 157.92C496.023 158.64 496.196 159.547 496.196 160.64C496.196 164.48 493.396 166.4 487.796 166.4Z" fill="#011335"/>
<path d="M38.216 214.24C36.296 214.24 34.744 214 33.56 213.52V211.768C34.232 212.024 34.944 212.224 35.696 212.368C36.464 212.496 37.248 212.56 38.048 212.56C39.424 212.56 40.456 212.376 41.144 212.008C41.832 211.624 42.176 210.944 42.176 209.968C42.176 209.36 42.032 208.88 41.744 208.528C41.472 208.16 41.016 207.856 40.376 207.616C39.736 207.36 38.88 207.104 37.808 206.848C36.112 206.432 34.92 205.896 34.232 205.24C33.544 204.568 33.2 203.672 33.2 202.552C33.2 201.24 33.672 200.208 34.616 199.456C35.56 198.688 37 198.304 38.936 198.304C39.832 198.304 40.664 198.368 41.432 198.496C42.2 198.624 42.792 198.76 43.208 198.904V200.632C42.632 200.424 42.008 200.264 41.336 200.152C40.664 200.04 39.968 199.984 39.248 199.984C37.936 199.984 36.928 200.176 36.224 200.56C35.52 200.944 35.168 201.608 35.168 202.552C35.168 203.08 35.288 203.512 35.528 203.848C35.784 204.168 36.208 204.448 36.8 204.688C37.392 204.912 38.216 205.152 39.272 205.408C40.536 205.712 41.52 206.08 42.224 206.512C42.928 206.928 43.424 207.424 43.712 208C44 208.576 44.144 209.232 44.144 209.968C44.144 211.328 43.648 212.384 42.656 213.136C41.664 213.872 40.184 214.24 38.216 214.24ZM48.0738 218.224C47.3218 218.224 46.6658 218.12 46.1058 217.912V216.328C46.3778 216.424 46.6258 216.488 46.8498 216.52C47.0898 216.552 47.3298 216.568 47.5698 216.568C48.1138 216.568 48.5378 216.472 48.8418 216.28C49.1618 216.088 49.4418 215.792 49.6818 215.392C49.9218 215.008 50.1858 214.504 50.4738 213.88L45.4578 202.624H47.4978L51.4578 211.792L55.5378 202.624H57.5538L52.7778 213.496C52.3778 214.408 51.9698 215.216 51.5538 215.92C51.1378 216.64 50.6578 217.2 50.1138 217.6C49.5698 218.016 48.8898 218.224 48.0738 218.224ZM63.5313 214.24C61.9313 214.24 60.6753 213.8 59.7633 212.92C58.8513 212.024 58.3953 210.544 58.3953 208.48C58.3953 206.432 58.8673 204.904 59.8113 203.896C60.7713 202.888 62.0513 202.384 63.6513 202.384C65.0753 202.384 66.3073 202.744 67.3473 203.464V197.824H69.3153V214H67.6353L67.4913 212.8C66.9633 213.296 66.3793 213.664 65.7393 213.904C65.1153 214.128 64.3793 214.24 63.5313 214.24ZM64.0353 212.656C64.6913 212.656 65.2993 212.544 65.8593 212.32C66.4193 212.096 66.9153 211.752 67.3473 211.288V205.096C66.9473 204.744 66.4753 204.472 65.9313 204.28C65.3873 204.072 64.7713 203.968 64.0833 203.968C62.8193 203.968 61.8833 204.336 61.2753 205.072C60.6673 205.792 60.3633 206.928 60.3633 208.48C60.3633 209.968 60.6433 211.04 61.2033 211.696C61.7633 212.336 62.7073 212.656 64.0353 212.656ZM72.68 214V202.624H74.456L74.576 203.92C75.12 203.472 75.752 203.104 76.472 202.816C77.208 202.528 78.048 202.384 78.992 202.384C80.432 202.384 81.48 202.72 82.136 203.392C82.792 204.064 83.12 205.12 83.12 206.56V214H81.152V206.632C81.152 205.64 80.952 204.952 80.552 204.568C80.152 204.168 79.384 203.968 78.248 203.968C77.544 203.968 76.88 204.096 76.256 204.352C75.632 204.608 75.096 204.96 74.648 205.408V214H72.68ZM91.5845 214.24C89.5525 214.24 88.0325 213.752 87.0245 212.776C86.0165 211.8 85.5125 210.296 85.5125 208.264C85.5125 206.44 85.9445 205.008 86.8085 203.968C87.6885 202.912 89.0725 202.384 90.9605 202.384C92.0805 202.384 93.0005 202.592 93.7205 203.008C94.4565 203.408 95.0005 203.968 95.3525 204.688C95.7205 205.392 95.9045 206.192 95.9045 207.088V209.224H87.4805C87.5445 210.088 87.7285 210.768 88.0325 211.264C88.3525 211.76 88.8245 212.12 89.4485 212.344C90.0885 212.552 90.9285 212.656 91.9685 212.656C93.1365 212.656 94.2085 212.456 95.1845 212.056V213.592C94.6885 213.8 94.1285 213.96 93.5045 214.072C92.8965 214.184 92.2565 214.24 91.5845 214.24ZM87.4805 207.808H94.1525V206.872C94.1525 205.944 93.9045 205.232 93.4085 204.736C92.9285 204.224 92.1285 203.968 91.0085 203.968C89.6485 203.968 88.7205 204.288 88.2245 204.928C87.7285 205.568 87.4805 206.528 87.4805 207.808ZM99.6129 218.224C98.8609 218.224 98.2049 218.12 97.6449 217.912V216.328C97.9169 216.424 98.1649 216.488 98.3889 216.52C98.6289 216.552 98.8689 216.568 99.1089 216.568C99.6529 216.568 100.077 216.472 100.381 216.28C100.701 216.088 100.981 215.792 101.221 215.392C101.461 215.008 101.725 214.504 102.013 213.88L96.9969 202.624H99.0369L102.997 211.792L107.077 202.624H109.093L104.317 213.496C103.917 214.408 103.509 215.216 103.093 215.92C102.677 216.64 102.197 217.2 101.653 217.6C101.109 218.016 100.429 218.224 99.6129 218.224ZM117.024 214V198.544H118.992V212.464H127.224V214H117.024ZM133.997 214.24C132.013 214.24 130.565 213.736 129.653 212.728C128.757 211.704 128.309 210.232 128.309 208.312C128.309 206.408 128.765 204.944 129.677 203.92C130.589 202.896 132.029 202.384 133.997 202.384C135.965 202.384 137.405 202.896 138.317 203.92C139.229 204.944 139.685 206.408 139.685 208.312C139.685 210.232 139.237 211.704 138.341 212.728C137.445 213.736 135.997 214.24 133.997 214.24ZM133.997 212.56C135.357 212.56 136.317 212.224 136.877 211.552C137.437 210.864 137.717 209.784 137.717 208.312C137.717 206.84 137.429 205.768 136.853 205.096C136.293 204.408 135.341 204.064 133.997 204.064C132.653 204.064 131.693 204.408 131.117 205.096C130.557 205.768 130.277 206.84 130.277 208.312C130.277 209.784 130.557 210.864 131.117 211.552C131.677 212.224 132.637 212.56 133.997 212.56ZM146.723 214.24C145.603 214.24 144.755 213.944 144.179 213.352C143.619 212.744 143.339 211.904 143.339 210.832V204.184H141.611V202.624H143.339V199.816L145.307 199.216V202.624H148.451L148.331 204.184H145.307V210.736C145.307 211.424 145.459 211.92 145.763 212.224C146.083 212.512 146.627 212.656 147.395 212.656C147.811 212.656 148.267 212.576 148.763 212.416V213.904C148.171 214.128 147.491 214.24 146.723 214.24ZM155.184 214.24C154.064 214.24 153.216 213.944 152.64 213.352C152.08 212.744 151.8 211.904 151.8 210.832V204.184H150.072V202.624H151.8V199.816L153.768 199.216V202.624H156.912L156.792 204.184H153.768V210.736C153.768 211.424 153.92 211.92 154.224 212.224C154.544 212.512 155.088 212.656 155.856 212.656C156.272 212.656 156.728 212.576 157.224 212.416V213.904C156.632 214.128 155.952 214.24 155.184 214.24ZM164.701 214.24C162.717 214.24 161.269 213.736 160.357 212.728C159.461 211.704 159.013 210.232 159.013 208.312C159.013 206.408 159.469 204.944 160.381 203.92C161.293 202.896 162.733 202.384 164.701 202.384C166.669 202.384 168.109 202.896 169.021 203.92C169.933 204.944 170.389 206.408 170.389 208.312C170.389 210.232 169.941 211.704 169.045 212.728C168.149 213.736 166.701 214.24 164.701 214.24ZM164.701 212.56C166.061 212.56 167.021 212.224 167.581 211.552C168.141 210.864 168.421 209.784 168.421 208.312C168.421 206.84 168.133 205.768 167.557 205.096C166.997 204.408 166.045 204.064 164.701 204.064C163.357 204.064 162.397 204.408 161.821 205.096C161.261 205.768 160.98 206.84 160.98 208.312C160.98 209.784 161.261 210.864 161.821 211.552C162.381 212.224 163.341 212.56 164.701 212.56ZM182.381 214.24C181.645 214.24 180.941 214.192 180.269 214.096C179.613 214 179.061 213.872 178.613 213.712V211.984C179.157 212.176 179.725 212.32 180.317 212.416C180.925 212.512 181.525 212.56 182.117 212.56C183.125 212.56 183.845 212.456 184.277 212.248C184.709 212.024 184.925 211.616 184.925 211.024C184.925 210.592 184.805 210.264 184.565 210.04C184.341 209.816 183.989 209.616 183.509 209.44C183.045 209.264 182.445 209.056 181.709 208.816C181.053 208.592 180.469 208.36 179.957 208.12C179.445 207.88 179.045 207.56 178.757 207.16C178.469 206.744 178.325 206.192 178.325 205.504C178.325 204.496 178.677 203.728 179.381 203.2C180.085 202.656 181.221 202.384 182.789 202.384C183.397 202.384 183.981 202.432 184.541 202.528C185.101 202.608 185.589 202.712 186.005 202.84V204.568C184.997 204.232 184.029 204.064 183.101 204.064C182.109 204.064 181.389 204.168 180.941 204.376C180.509 204.568 180.293 204.936 180.293 205.48C180.293 205.848 180.389 206.144 180.581 206.368C180.789 206.576 181.101 206.76 181.517 206.92C181.949 207.064 182.501 207.248 183.173 207.472C184.053 207.744 184.765 208.024 185.309 208.312C185.853 208.6 186.253 208.952 186.509 209.368C186.765 209.784 186.893 210.328 186.893 211C186.893 212.12 186.501 212.944 185.717 213.472C184.933 213.984 183.821 214.24 182.381 214.24ZM193.574 214.24C192.454 214.24 191.606 213.944 191.03 213.352C190.47 212.744 190.19 211.904 190.19 210.832V204.184H188.462V202.624H190.19V199.816L192.158 199.216V202.624H195.302L195.182 204.184H192.158V210.736C192.158 211.424 192.31 211.92 192.614 212.224C192.934 212.512 193.478 212.656 194.246 212.656C194.662 212.656 195.118 212.576 195.614 212.416V213.904C195.022 214.128 194.342 214.24 193.574 214.24ZM201.411 214.24C200.691 214.24 200.027 214.112 199.419 213.856C198.811 213.6 198.323 213.224 197.955 212.728C197.587 212.216 197.403 211.576 197.403 210.808C197.403 209.768 197.747 208.92 198.435 208.264C199.123 207.592 200.243 207.256 201.795 207.256H205.755V206.56C205.755 205.936 205.667 205.44 205.491 205.072C205.331 204.704 205.019 204.44 204.555 204.28C204.091 204.12 203.411 204.04 202.515 204.04C201.827 204.04 201.163 204.096 200.523 204.208C199.883 204.32 199.283 204.472 198.723 204.664V203.032C199.235 202.84 199.835 202.688 200.523 202.576C201.227 202.448 201.979 202.384 202.779 202.384C204.395 202.384 205.603 202.712 206.403 203.368C207.219 204.024 207.627 205.088 207.627 206.56V214H205.971L205.827 212.704C205.331 213.216 204.731 213.6 204.027 213.856C203.323 214.112 202.451 214.24 201.411 214.24ZM201.915 212.632C202.747 212.632 203.483 212.488 204.123 212.2C204.763 211.896 205.307 211.488 205.755 210.976V208.768H201.843C200.947 208.768 200.307 208.936 199.923 209.272C199.539 209.608 199.347 210.12 199.347 210.808C199.347 211.496 199.579 211.976 200.043 212.248C200.507 212.504 201.131 212.632 201.915 212.632ZM211.612 214V204.184H209.908V202.624H211.612V200.968C211.612 199.88 211.908 199.024 212.5 198.4C213.108 197.76 213.996 197.44 215.164 197.44C215.58 197.44 215.956 197.472 216.292 197.536C216.644 197.6 216.964 197.688 217.252 197.8V199.288C216.756 199.112 216.228 199.024 215.668 199.024C214.852 199.024 214.3 199.176 214.012 199.48C213.724 199.768 213.58 200.264 213.58 200.968V202.624H216.652L216.556 204.184H213.58V214H211.612ZM219.135 214V204.184H217.431V202.624H219.135V200.968C219.135 199.88 219.431 199.024 220.023 198.4C220.631 197.76 221.519 197.44 222.687 197.44C223.103 197.44 223.479 197.472 223.815 197.536C224.167 197.6 224.487 197.688 224.775 197.8V199.288C224.279 199.112 223.751 199.024 223.191 199.024C222.375 199.024 221.823 199.176 221.535 199.48C221.247 199.768 221.103 200.264 221.103 200.968V202.624H224.175L224.079 204.184H221.103V214H219.135ZM234.903 214L231.927 202.624H233.895L236.127 211.768L238.671 203.944V202.624H240.183L242.991 211.768L245.223 202.624H247.191L244.215 214H242.247L239.583 205.744L236.871 214H234.903ZM250.315 199.96V198.16H252.499V199.96H250.315ZM250.507 214V204.184H248.755L248.947 202.624H252.475V214H250.507ZM258.34 214.24C257.572 214.24 256.964 214.04 256.516 213.64C256.084 213.224 255.868 212.528 255.868 211.552V197.824H257.836V211.336C257.836 211.816 257.916 212.144 258.076 212.32C258.236 212.496 258.484 212.584 258.82 212.584C259.188 212.584 259.548 212.536 259.9 212.44V214C259.644 214.096 259.388 214.16 259.132 214.192C258.876 214.224 258.612 214.24 258.34 214.24ZM264.035 214.24C263.267 214.24 262.659 214.04 262.211 213.64C261.779 213.224 261.563 212.528 261.563 211.552V197.824H263.531V211.336C263.531 211.816 263.611 212.144 263.771 212.32C263.931 212.496 264.179 212.584 264.515 212.584C264.883 212.584 265.243 212.536 265.595 212.44V214C265.339 214.096 265.083 214.16 264.827 214.192C264.571 214.224 264.307 214.24 264.035 214.24ZM276.975 214.24C276.239 214.24 275.535 214.192 274.863 214.096C274.207 214 273.655 213.872 273.207 213.712V211.984C273.751 212.176 274.319 212.32 274.911 212.416C275.519 212.512 276.119 212.56 276.711 212.56C277.719 212.56 278.439 212.456 278.871 212.248C279.303 212.024 279.519 211.616 279.519 211.024C279.519 210.592 279.399 210.264 279.159 210.04C278.935 209.816 278.583 209.616 278.103 209.44C277.639 209.264 277.039 209.056 276.303 208.816C275.647 208.592 275.063 208.36 274.551 208.12C274.039 207.88 273.639 207.56 273.351 207.16C273.063 206.744 272.919 206.192 272.919 205.504C272.919 204.496 273.271 203.728 273.975 203.2C274.679 202.656 275.815 202.384 277.383 202.384C277.991 202.384 278.575 202.432 279.135 202.528C279.695 202.608 280.183 202.712 280.599 202.84V204.568C279.591 204.232 278.623 204.064 277.695 204.064C276.703 204.064 275.983 204.168 275.535 204.376C275.103 204.568 274.887 204.936 274.887 205.48C274.887 205.848 274.983 206.144 275.175 206.368C275.383 206.576 275.695 206.76 276.111 206.92C276.543 207.064 277.095 207.248 277.767 207.472C278.647 207.744 279.359 208.024 279.903 208.312C280.447 208.6 280.847 208.952 281.103 209.368C281.359 209.784 281.487 210.328 281.487 211C281.487 212.12 281.095 212.944 280.311 213.472C279.527 213.984 278.415 214.24 276.975 214.24ZM284.368 214V197.824H286.336V203.848C286.864 203.416 287.48 203.064 288.184 202.792C288.904 202.52 289.736 202.384 290.68 202.384C292.056 202.384 293.088 202.72 293.776 203.392C294.464 204.064 294.807 205.12 294.807 206.56V214H292.84V206.632C292.84 205.64 292.616 204.952 292.168 204.568C291.736 204.168 291.016 203.968 290.008 203.968C289.368 203.968 288.704 204.112 288.016 204.4C287.344 204.672 286.784 205.032 286.336 205.48V214H284.368ZM302.888 214.24C300.904 214.24 299.456 213.736 298.544 212.728C297.648 211.704 297.2 210.232 297.2 208.312C297.2 206.408 297.656 204.944 298.568 203.92C299.48 202.896 300.92 202.384 302.888 202.384C304.856 202.384 306.296 202.896 307.208 203.92C308.12 204.944 308.576 206.408 308.576 208.312C308.576 210.232 308.128 211.704 307.232 212.728C306.336 213.736 304.888 214.24 302.888 214.24ZM302.888 212.56C304.248 212.56 305.208 212.224 305.768 211.552C306.328 210.864 306.608 209.784 306.608 208.312C306.608 206.84 306.32 205.768 305.744 205.096C305.184 204.408 304.232 204.064 302.888 204.064C301.544 204.064 300.584 204.408 300.008 205.096C299.448 205.768 299.168 206.84 299.168 208.312C299.168 209.784 299.448 210.864 300.008 211.552C300.568 212.224 301.528 212.56 302.888 212.56ZM312.879 214L309.903 202.624H311.871L314.103 211.768L316.647 203.944V202.624H318.159L320.967 211.768L323.199 202.624H325.167L322.191 214H320.223L317.559 205.744L314.847 214H312.879ZM337.114 214.24C336.394 214.24 335.73 214.112 335.122 213.856C334.514 213.6 334.026 213.224 333.658 212.728C333.29 212.216 333.106 211.576 333.106 210.808C333.106 209.768 333.45 208.92 334.138 208.264C334.826 207.592 335.946 207.256 337.498 207.256H341.458V206.56C341.458 205.936 341.37 205.44 341.194 205.072C341.034 204.704 340.722 204.44 340.258 204.28C339.794 204.12 339.114 204.04 338.218 204.04C337.53 204.04 336.866 204.096 336.226 204.208C335.586 204.32 334.986 204.472 334.426 204.664V203.032C334.938 202.84 335.538 202.688 336.226 202.576C336.93 202.448 337.682 202.384 338.482 202.384C340.098 202.384 341.306 202.712 342.106 203.368C342.922 204.024 343.33 205.088 343.33 206.56V214H341.674L341.53 212.704C341.034 213.216 340.434 213.6 339.73 213.856C339.026 214.112 338.154 214.24 337.114 214.24ZM337.618 212.632C338.45 212.632 339.186 212.488 339.826 212.2C340.466 211.896 341.01 211.488 341.458 210.976V208.768H337.546C336.65 208.768 336.01 208.936 335.626 209.272C335.242 209.608 335.05 210.12 335.05 210.808C335.05 211.496 335.282 211.976 335.746 212.248C336.21 212.504 336.834 212.632 337.618 212.632ZM349.043 214.24C348.275 214.24 347.667 214.04 347.219 213.64C346.787 213.224 346.571 212.528 346.571 211.552V197.824H348.539V211.336C348.539 211.816 348.619 212.144 348.779 212.32C348.939 212.496 349.187 212.584 349.523 212.584C349.891 212.584 350.251 212.536 350.603 212.44V214C350.347 214.096 350.091 214.16 349.835 214.192C349.579 214.224 349.315 214.24 349.043 214.24ZM354.738 214.24C353.97 214.24 353.362 214.04 352.914 213.64C352.482 213.224 352.266 212.528 352.266 211.552V197.824H354.234V211.336C354.234 211.816 354.314 212.144 354.474 212.32C354.634 212.496 354.882 212.584 355.218 212.584C355.586 212.584 355.946 212.536 356.298 212.44V214C356.042 214.096 355.786 214.16 355.53 214.192C355.274 214.224 355.01 214.24 354.738 214.24ZM368.254 214.24C367.134 214.24 366.286 213.944 365.71 213.352C365.15 212.744 364.87 211.904 364.87 210.832V204.184H363.142V202.624H364.87V199.816L366.838 199.216V202.624H369.982L369.862 204.184H366.838V210.736C366.838 211.424 366.99 211.92 367.294 212.224C367.614 212.512 368.158 212.656 368.926 212.656C369.342 212.656 369.798 212.576 370.294 212.416V213.904C369.702 214.128 369.022 214.24 368.254 214.24ZM372.563 214V197.824H374.531V203.848C375.059 203.416 375.675 203.064 376.379 202.792C377.099 202.52 377.931 202.384 378.875 202.384C380.251 202.384 381.283 202.72 381.971 203.392C382.659 204.064 383.003 205.12 383.003 206.56V214H381.035V206.632C381.035 205.64 380.811 204.952 380.363 204.568C379.931 204.168 379.211 203.968 378.203 203.968C377.563 203.968 376.899 204.112 376.211 204.4C375.539 204.672 374.979 205.032 374.531 205.48V214H372.563ZM391.467 214.24C389.435 214.24 387.915 213.752 386.907 212.776C385.899 211.8 385.395 210.296 385.395 208.264C385.395 206.44 385.827 205.008 386.691 203.968C387.571 202.912 388.955 202.384 390.843 202.384C391.963 202.384 392.883 202.592 393.603 203.008C394.339 203.408 394.883 203.968 395.235 204.688C395.603 205.392 395.787 206.192 395.787 207.088V209.224H387.363C387.427 210.088 387.611 210.768 387.915 211.264C388.235 211.76 388.707 212.12 389.331 212.344C389.971 212.552 390.811 212.656 391.851 212.656C393.019 212.656 394.091 212.456 395.067 212.056V213.592C394.571 213.8 394.011 213.96 393.387 214.072C392.779 214.184 392.139 214.24 391.467 214.24ZM387.363 207.808H394.035V206.872C394.035 205.944 393.787 205.232 393.291 204.736C392.811 204.224 392.011 203.968 390.891 203.968C389.531 203.968 388.603 204.288 388.107 204.928C387.611 205.568 387.363 206.528 387.363 207.808ZM406.675 214.24C405.907 214.24 405.299 214.04 404.851 213.64C404.419 213.224 404.203 212.528 404.203 211.552V197.824H406.171V211.336C406.171 211.816 406.251 212.144 406.411 212.32C406.571 212.496 406.819 212.584 407.155 212.584C407.523 212.584 407.883 212.536 408.235 212.44V214C407.979 214.096 407.723 214.16 407.467 214.192C407.211 214.224 406.947 214.24 406.675 214.24ZM410.744 199.96V198.16H412.928V199.96H410.744ZM410.936 214V204.184H409.184L409.376 202.624H412.904V214H410.936ZM419.812 214L415.348 202.624H417.388L420.916 212.176L424.444 202.624H426.484L422.02 214H419.812ZM433.655 214.24C431.623 214.24 430.103 213.752 429.095 212.776C428.087 211.8 427.583 210.296 427.583 208.264C427.583 206.44 428.015 205.008 428.879 203.968C429.759 202.912 431.143 202.384 433.031 202.384C434.151 202.384 435.071 202.592 435.791 203.008C436.527 203.408 437.071 203.968 437.423 204.688C437.791 205.392 437.975 206.192 437.975 207.088V209.224H429.551C429.615 210.088 429.799 210.768 430.103 211.264C430.423 211.76 430.895 212.12 431.519 212.344C432.159 212.552 432.999 212.656 434.039 212.656C435.207 212.656 436.279 212.456 437.255 212.056V213.592C436.759 213.8 436.199 213.96 435.575 214.072C434.967 214.184 434.327 214.24 433.655 214.24ZM429.551 207.808H436.223V206.872C436.223 205.944 435.975 205.232 435.479 204.736C434.999 204.224 434.199 203.968 433.079 203.968C431.719 203.968 430.791 204.288 430.295 204.928C429.799 205.568 429.551 206.528 429.551 207.808ZM451.047 214.24C449.447 214.24 448.191 213.8 447.279 212.92C446.367 212.024 445.911 210.544 445.911 208.48C445.911 206.432 446.383 204.904 447.327 203.896C448.287 202.888 449.567 202.384 451.167 202.384C452.591 202.384 453.823 202.744 454.863 203.464V197.824H456.831V214H455.151L455.007 212.8C454.479 213.296 453.895 213.664 453.255 213.904C452.631 214.128 451.895 214.24 451.047 214.24ZM451.551 212.656C452.207 212.656 452.815 212.544 453.375 212.32C453.935 212.096 454.431 211.752 454.863 211.288V205.096C454.463 204.744 453.991 204.472 453.447 204.28C452.903 204.072 452.287 203.968 451.599 203.968C450.335 203.968 449.399 204.336 448.791 205.072C448.183 205.792 447.879 206.928 447.879 208.48C447.879 209.968 448.159 211.04 448.719 211.696C449.279 212.336 450.223 212.656 451.551 212.656ZM460.196 214V202.624H461.972L462.116 204.064C462.676 203.696 463.332 203.36 464.084 203.056C464.852 202.752 465.604 202.528 466.34 202.384V203.92C465.892 204.016 465.404 204.152 464.876 204.328C464.348 204.488 463.844 204.672 463.364 204.88C462.884 205.088 462.484 205.304 462.164 205.528V214H460.196ZM471.294 214.24C470.574 214.24 469.91 214.112 469.302 213.856C468.694 213.6 468.206 213.224 467.838 212.728C467.47 212.216 467.286 211.576 467.286 210.808C467.286 209.768 467.63 208.92 468.318 208.264C469.006 207.592 470.126 207.256 471.678 207.256H475.638V206.56C475.638 205.936 475.55 205.44 475.374 205.072C475.214 204.704 474.902 204.44 474.438 204.28C473.974 204.12 473.294 204.04 472.398 204.04C471.71 204.04 471.046 204.096 470.406 204.208C469.766 204.32 469.166 204.472 468.606 204.664V203.032C469.118 202.84 469.718 202.688 470.406 202.576C471.11 202.448 471.862 202.384 472.662 202.384C474.278 202.384 475.486 202.712 476.286 203.368C477.102 204.024 477.51 205.088 477.51 206.56V214H475.854L475.71 212.704C475.214 213.216 474.614 213.6 473.91 213.856C473.206 214.112 472.334 214.24 471.294 214.24ZM471.798 212.632C472.63 212.632 473.366 212.488 474.006 212.2C474.646 211.896 475.19 211.488 475.638 210.976V208.768H471.726C470.83 208.768 470.19 208.936 469.806 209.272C469.422 209.608 469.23 210.12 469.23 210.808C469.23 211.496 469.462 211.976 469.926 212.248C470.39 212.504 471.014 212.632 471.798 212.632ZM482.637 214L479.661 202.624H481.629L483.861 211.768L486.405 203.944V202.624H487.917L490.725 211.768L492.957 202.624H494.925L491.949 214H489.981L487.317 205.744L484.605 214H482.637ZM507.496 214.24C506.376 214.24 505.528 213.944 504.952 213.352C504.392 212.744 504.112 211.904 504.112 210.832V204.184H502.384V202.624H504.112V199.816L506.08 199.216V202.624H509.224L509.104 204.184H506.08V210.736C506.08 211.424 506.232 211.92 506.536 212.224C506.856 212.512 507.4 212.656 508.168 212.656C508.584 212.656 509.04 212.576 509.536 212.416V213.904C508.944 214.128 508.264 214.24 507.496 214.24ZM517.013 214.24C515.029 214.24 513.581 213.736 512.669 212.728C511.773 211.704 511.325 210.232 511.325 208.312C511.325 206.408 511.781 204.944 512.693 203.92C513.605 202.896 515.045 202.384 517.013 202.384C518.981 202.384 520.421 202.896 521.333 203.92C522.245 204.944 522.701 206.408 522.701 208.312C522.701 210.232 522.253 211.704 521.357 212.728C520.461 213.736 519.013 214.24 517.013 214.24ZM517.013 212.56C518.373 212.56 519.333 212.224 519.893 211.552C520.453 210.864 520.733 209.784 520.733 208.312C520.733 206.84 520.445 205.768 519.869 205.096C519.309 204.408 518.357 204.064 517.013 204.064C515.669 204.064 514.709 204.408 514.133 205.096C513.573 205.768 513.293 206.84 513.293 208.312C513.293 209.784 513.573 210.864 514.133 211.552C514.693 212.224 515.653 212.56 517.013 212.56ZM530.794 214.24C528.81 214.24 527.362 213.736 526.45 212.728C525.554 211.704 525.106 210.232 525.106 208.312C525.106 206.408 525.562 204.944 526.474 203.92C527.386 202.896 528.826 202.384 530.794 202.384C532.762 202.384 534.202 202.896 535.114 203.92C536.026 204.944 536.482 206.408 536.482 208.312C536.482 210.232 536.034 211.704 535.138 212.728C534.242 213.736 532.794 214.24 530.794 214.24ZM530.794 212.56C532.154 212.56 533.114 212.224 533.674 211.552C534.234 210.864 534.514 209.784 534.514 208.312C534.514 206.84 534.226 205.768 533.65 205.096C533.09 204.408 532.138 204.064 530.794 204.064C529.45 204.064 528.49 204.408 527.914 205.096C527.354 205.768 527.074 206.84 527.074 208.312C527.074 209.784 527.354 210.864 527.914 211.552C528.474 212.224 529.434 212.56 530.794 212.56ZM541.84 214.24C541.072 214.24 540.464 214.04 540.016 213.64C539.584 213.224 539.368 212.528 539.368 211.552V197.824H541.336V211.336C541.336 211.816 541.416 212.144 541.576 212.32C541.736 212.496 541.984 212.584 542.32 212.584C542.688 212.584 543.048 212.536 543.4 212.44V214C543.144 214.096 542.888 214.16 542.632 214.192C542.376 214.224 542.112 214.24 541.84 214.24ZM549.248 214.24C548.512 214.24 547.808 214.192 547.136 214.096C546.48 214 545.928 213.872 545.48 213.712V211.984C546.024 212.176 546.592 212.32 547.184 212.416C547.792 212.512 548.392 212.56 548.984 212.56C549.992 212.56 550.712 212.456 551.144 212.248C551.576 212.024 551.792 211.616 551.792 211.024C551.792 210.592 551.672 210.264 551.432 210.04C551.208 209.816 550.856 209.616 550.376 209.44C549.912 209.264 549.312 209.056 548.576 208.816C547.92 208.592 547.336 208.36 546.824 208.12C546.312 207.88 545.912 207.56 545.624 207.16C545.336 206.744 545.192 206.192 545.192 205.504C545.192 204.496 545.544 203.728 546.248 203.2C546.952 202.656 548.088 202.384 549.656 202.384C550.264 202.384 550.848 202.432 551.408 202.528C551.968 202.608 552.456 202.712 552.872 202.84V204.568C551.864 204.232 550.896 204.064 549.968 204.064C548.976 204.064 548.256 204.168 547.808 204.376C547.376 204.568 547.16 204.936 547.16 205.48C547.16 205.848 547.256 206.144 547.448 206.368C547.656 206.576 547.968 206.76 548.384 206.92C548.816 207.064 549.368 207.248 550.04 207.472C550.92 207.744 551.632 208.024 552.176 208.312C552.72 208.6 553.12 208.952 553.376 209.368C553.632 209.784 553.76 210.328 553.76 211C553.76 212.12 553.368 212.944 552.584 213.472C551.8 213.984 550.688 214.24 549.248 214.24ZM563.252 199.96V198.16H565.436V199.96H563.252ZM563.444 214V204.184H561.692L561.884 202.624H565.412V214H563.444ZM568.805 214V202.624H570.581L570.701 203.92C571.245 203.472 571.877 203.104 572.597 202.816C573.333 202.528 574.173 202.384 575.117 202.384C576.557 202.384 577.605 202.72 578.261 203.392C578.917 204.064 579.245 205.12 579.245 206.56V214H577.277V206.632C577.277 205.64 577.077 204.952 576.677 204.568C576.277 204.168 575.509 203.968 574.373 203.968C573.669 203.968 573.005 204.096 572.381 204.352C571.757 204.608 571.221 204.96 570.773 205.408V214H568.805ZM588.768 214V204.184H587.064V202.624H588.768V200.968C588.768 199.88 589.064 199.024 589.656 198.4C590.264 197.76 591.152 197.44 592.32 197.44C592.736 197.44 593.112 197.472 593.448 197.536C593.8 197.6 594.12 197.688 594.408 197.8V199.288C593.912 199.112 593.384 199.024 592.824 199.024C592.008 199.024 591.456 199.176 591.168 199.48C590.88 199.768 590.736 200.264 590.736 200.968V202.624H593.808L593.712 204.184H590.736V214H588.768ZM595.899 214V202.624H597.675L597.819 204.064C598.379 203.696 599.035 203.36 599.787 203.056C600.555 202.752 601.307 202.528 602.043 202.384V203.92C601.595 204.016 601.107 204.152 600.579 204.328C600.051 204.488 599.547 204.672 599.067 204.88C598.587 205.088 598.187 205.304 597.867 205.528V214H595.899ZM608.935 214.24C606.951 214.24 605.503 213.736 604.591 212.728C603.695 211.704 603.247 210.232 603.247 208.312C603.247 206.408 603.703 204.944 604.615 203.92C605.527 202.896 606.967 202.384 608.935 202.384C610.903 202.384 612.343 202.896 613.255 203.92C614.167 204.944 614.623 206.408 614.623 208.312C614.623 210.232 614.175 211.704 613.279 212.728C612.383 213.736 610.935 214.24 608.935 214.24ZM608.935 212.56C610.295 212.56 611.255 212.224 611.815 211.552C612.375 210.864 612.655 209.784 612.655 208.312C612.655 206.84 612.367 205.768 611.791 205.096C611.231 204.408 610.279 204.064 608.935 204.064C607.591 204.064 606.631 204.408 606.055 205.096C605.495 205.768 605.215 206.84 605.215 208.312C605.215 209.784 605.495 210.864 606.055 211.552C606.615 212.224 607.575 212.56 608.935 212.56ZM617.508 214V202.624H619.284L619.404 203.92C619.948 203.472 620.58 203.104 621.3 202.816C622.036 202.528 622.876 202.384 623.82 202.384C625.26 202.384 626.308 202.72 626.964 203.392C627.62 204.064 627.948 205.12 627.948 206.56V214H625.98V206.632C625.98 205.64 625.78 204.952 625.38 204.568C624.98 204.168 624.212 203.968 623.076 203.968C622.372 203.968 621.708 204.096 621.084 204.352C620.46 204.608 619.924 204.96 619.476 205.408V214H617.508ZM635.348 214.24C634.228 214.24 633.38 213.944 632.804 213.352C632.244 212.744 631.964 211.904 631.964 210.832V204.184H630.236V202.624H631.964V199.816L633.932 199.216V202.624H637.076L636.956 204.184H633.932V210.736C633.932 211.424 634.084 211.92 634.388 212.224C634.708 212.512 635.252 212.656 636.02 212.656C636.436 212.656 636.892 212.576 637.388 212.416V213.904C636.796 214.128 636.116 214.24 635.348 214.24ZM650.396 214.24C648.412 214.24 646.964 213.736 646.052 212.728C645.156 211.704 644.708 210.232 644.708 208.312C644.708 206.408 645.164 204.944 646.076 203.92C646.988 202.896 648.428 202.384 650.396 202.384C652.364 202.384 653.804 202.896 654.716 203.92C655.628 204.944 656.084 206.408 656.084 208.312C656.084 210.232 655.636 211.704 654.74 212.728C653.844 213.736 652.396 214.24 650.396 214.24ZM650.396 212.56C651.756 212.56 652.716 212.224 653.276 211.552C653.836 210.864 654.116 209.784 654.116 208.312C654.116 206.84 653.828 205.768 653.252 205.096C652.692 204.408 651.74 204.064 650.396 204.064C649.052 204.064 648.092 204.408 647.516 205.096C646.956 205.768 646.676 206.84 646.676 208.312C646.676 209.784 646.956 210.864 647.516 211.552C648.076 212.224 649.036 212.56 650.396 212.56ZM659.713 214V204.184H658.009V202.624H659.713V200.968C659.713 199.88 660.009 199.024 660.601 198.4C661.209 197.76 662.097 197.44 663.265 197.44C663.681 197.44 664.057 197.472 664.393 197.536C664.745 197.6 665.065 197.688 665.353 197.8V199.288C664.857 199.112 664.329 199.024 663.769 199.024C662.953 199.024 662.401 199.176 662.113 199.48C661.825 199.768 661.681 200.264 661.681 200.968V202.624H664.753L664.657 204.184H661.681V214H659.713ZM37.832 250.24C36.712 250.24 35.864 249.944 35.288 249.352C34.728 248.744 34.448 247.904 34.448 246.832V240.184H32.72V238.624H34.448V235.816L36.416 235.216V238.624H39.56L39.44 240.184H36.416V246.736C36.416 247.424 36.568 247.92 36.872 248.224C37.192 248.512 37.736 248.656 38.504 248.656C38.92 248.656 39.376 248.576 39.872 248.416V249.904C39.28 250.128 38.6 250.24 37.832 250.24ZM42.1409 250V233.824H44.1089V239.848C44.6369 239.416 45.2529 239.064 45.9569 238.792C46.6769 238.52 47.5089 238.384 48.4529 238.384C49.8289 238.384 50.8609 238.72 51.5489 239.392C52.2369 240.064 52.5809 241.12 52.5809 242.56V250H50.6129V242.632C50.6129 241.64 50.3889 240.952 49.9409 240.568C49.5089 240.168 48.7889 239.968 47.7809 239.968C47.1409 239.968 46.4769 240.112 45.7889 240.4C45.1169 240.672 44.5569 241.032 44.1089 241.48V250H42.1409ZM61.0454 250.24C59.0134 250.24 57.4934 249.752 56.4854 248.776C55.4774 247.8 54.9734 246.296 54.9734 244.264C54.9734 242.44 55.4054 241.008 56.2694 239.968C57.1494 238.912 58.5334 238.384 60.4214 238.384C61.5414 238.384 62.4614 238.592 63.1814 239.008C63.9174 239.408 64.4614 239.968 64.8134 240.688C65.1814 241.392 65.3654 242.192 65.3654 243.088V245.224H56.9414C57.0054 246.088 57.1894 246.768 57.4934 247.264C57.8134 247.76 58.2854 248.12 58.9094 248.344C59.5494 248.552 60.3894 248.656 61.4294 248.656C62.5974 248.656 63.6694 248.456 64.6454 248.056V249.592C64.1494 249.8 63.5894 249.96 62.9654 250.072C62.3574 250.184 61.7174 250.24 61.0454 250.24ZM56.9414 243.808H63.6134V242.872C63.6134 241.944 63.3654 241.232 62.8694 240.736C62.3894 240.224 61.5894 239.968 60.4694 239.968C59.1094 239.968 58.1814 240.288 57.6854 240.928C57.1894 241.568 56.9414 242.528 56.9414 243.808ZM79.1576 250.24C77.1736 250.24 75.7016 249.728 74.7416 248.704C73.7816 247.664 73.3016 246.2 73.3016 244.312C73.3016 242.312 73.8456 240.824 74.9336 239.848C76.0216 238.872 77.4856 238.384 79.3256 238.384C80.0776 238.384 80.7016 238.44 81.1976 238.552C81.6936 238.648 82.1736 238.808 82.6376 239.032V240.592C81.7736 240.176 80.7896 239.968 79.6856 239.968C78.2776 239.968 77.1896 240.304 76.4216 240.976C75.6536 241.632 75.2696 242.744 75.2696 244.312C75.2696 245.816 75.6056 246.92 76.2776 247.624C76.9496 248.312 78.0616 248.656 79.6136 248.656C80.7176 248.656 81.7336 248.448 82.6616 248.032V249.616C82.1656 249.824 81.6296 249.976 81.0536 250.072C80.4936 250.184 79.8616 250.24 79.1576 250.24ZM88.3955 250.24C87.6755 250.24 87.0115 250.112 86.4035 249.856C85.7955 249.6 85.3075 249.224 84.9395 248.728C84.5715 248.216 84.3875 247.576 84.3875 246.808C84.3875 245.768 84.7315 244.92 85.4195 244.264C86.1075 243.592 87.2275 243.256 88.7795 243.256H92.7395V242.56C92.7395 241.936 92.6515 241.44 92.4755 241.072C92.3155 240.704 92.0035 240.44 91.5395 240.28C91.0755 240.12 90.3955 240.04 89.4995 240.04C88.8115 240.04 88.1475 240.096 87.5075 240.208C86.8675 240.32 86.2675 240.472 85.7075 240.664V239.032C86.2195 238.84 86.8195 238.688 87.5075 238.576C88.2115 238.448 88.9635 238.384 89.7635 238.384C91.3795 238.384 92.5875 238.712 93.3875 239.368C94.2035 240.024 94.6115 241.088 94.6115 242.56V250H92.9555L92.8115 248.704C92.3155 249.216 91.7155 249.6 91.0115 249.856C90.3075 250.112 89.4355 250.24 88.3955 250.24ZM88.8995 248.632C89.7315 248.632 90.4675 248.488 91.1075 248.2C91.7475 247.896 92.2915 247.488 92.7395 246.976V244.768H88.8275C87.9315 244.768 87.2915 244.936 86.9075 245.272C86.5235 245.608 86.3315 246.12 86.3315 246.808C86.3315 247.496 86.5635 247.976 87.0275 248.248C87.4915 248.504 88.1155 248.632 88.8995 248.632ZM97.8519 250V238.624H99.6279L99.7479 239.92C100.356 239.44 100.996 239.064 101.668 238.792C102.356 238.52 103.092 238.384 103.876 238.384C104.724 238.384 105.38 238.52 105.844 238.792C106.324 239.064 106.676 239.448 106.9 239.944C107.444 239.496 108.068 239.128 108.772 238.84C109.476 238.536 110.316 238.384 111.292 238.384C112.588 238.384 113.548 238.72 114.172 239.392C114.812 240.048 115.132 241.064 115.132 242.44V250H113.188V242.632C113.188 241.624 112.972 240.928 112.54 240.544C112.124 240.16 111.444 239.968 110.5 239.968C109.876 239.968 109.276 240.072 108.7 240.28C108.14 240.488 107.66 240.808 107.26 241.24C107.356 241.64 107.404 242.104 107.404 242.632V250H105.556V242.68C105.556 241.72 105.396 241.032 105.076 240.616C104.756 240.184 104.124 239.968 103.18 239.968C102.54 239.968 101.924 240.112 101.332 240.4C100.756 240.672 100.244 241.016 99.7959 241.432V250H97.8519ZM123.6 250.24C121.568 250.24 120.048 249.752 119.04 248.776C118.032 247.8 117.528 246.296 117.528 244.264C117.528 242.44 117.96 241.008 118.824 239.968C119.704 238.912 121.088 238.384 122.976 238.384C124.096 238.384 125.016 238.592 125.736 239.008C126.472 239.408 127.016 239.968 127.368 240.688C127.736 241.392 127.92 242.192 127.92 243.088V245.224H119.496C119.56 246.088 119.744 246.768 120.048 247.264C120.368 247.76 120.84 248.12 121.464 248.344C122.104 248.552 122.944 248.656 123.984 248.656C125.152 248.656 126.224 248.456 127.2 248.056V249.592C126.704 249.8 126.144 249.96 125.52 250.072C124.912 250.184 124.272 250.24 123.6 250.24ZM119.496 243.808H126.168V242.872C126.168 241.944 125.92 241.232 125.424 240.736C124.944 240.224 124.144 239.968 123.024 239.968C121.664 239.968 120.736 240.288 120.24 240.928C119.744 241.568 119.496 242.528 119.496 243.808ZM130.805 250V238.624H132.581L132.725 240.064C133.285 239.696 133.941 239.36 134.693 239.056C135.461 238.752 136.213 238.528 136.949 238.384V239.92C136.501 240.016 136.013 240.152 135.485 240.328C134.957 240.488 134.453 240.672 133.973 240.88C133.493 241.088 133.093 241.304 132.773 241.528V250H130.805ZM141.903 250.24C141.183 250.24 140.519 250.112 139.911 249.856C139.303 249.6 138.815 249.224 138.447 248.728C138.079 248.216 137.895 247.576 137.895 246.808C137.895 245.768 138.239 244.92 138.927 244.264C139.615 243.592 140.735 243.256 142.287 243.256H146.247V242.56C146.247 241.936 146.159 241.44 145.983 241.072C145.823 240.704 145.511 240.44 145.047 240.28C144.583 240.12 143.903 240.04 143.007 240.04C142.319 240.04 141.655 240.096 141.015 240.208C140.375 240.32 139.775 240.472 139.215 240.664V239.032C139.727 238.84 140.327 238.688 141.015 238.576C141.719 238.448 142.471 238.384 143.271 238.384C144.887 238.384 146.095 238.712 146.895 239.368C147.711 240.024 148.119 241.088 148.119 242.56V250H146.463L146.319 248.704C145.823 249.216 145.223 249.6 144.519 249.856C143.815 250.112 142.943 250.24 141.903 250.24ZM142.407 248.632C143.239 248.632 143.975 248.488 144.615 248.2C145.255 247.896 145.799 247.488 146.247 246.976V244.768H142.335C141.439 244.768 140.799 244.936 140.415 245.272C140.031 245.608 139.839 246.12 139.839 246.808C139.839 247.496 140.071 247.976 140.535 248.248C140.999 248.504 141.623 248.632 142.407 248.632ZM161.043 250.24C159.923 250.24 159.075 249.944 158.499 249.352C157.939 248.744 157.659 247.904 157.659 246.832V240.184H155.931V238.624H157.659V235.816L159.627 235.216V238.624H162.771L162.651 240.184H159.627V246.736C159.627 247.424 159.779 247.92 160.083 248.224C160.403 248.512 160.947 248.656 161.715 248.656C162.131 248.656 162.587 248.576 163.083 248.416V249.904C162.491 250.128 161.811 250.24 161.043 250.24ZM170.56 250.24C168.576 250.24 167.128 249.736 166.216 248.728C165.32 247.704 164.872 246.232 164.872 244.312C164.872 242.408 165.328 240.944 166.24 239.92C167.152 238.896 168.592 238.384 170.56 238.384C172.528 238.384 173.968 238.896 174.88 239.92C175.792 240.944 176.248 242.408 176.248 244.312C176.248 246.232 175.8 247.704 174.904 248.728C174.008 249.736 172.56 250.24 170.56 250.24ZM170.56 248.56C171.92 248.56 172.88 248.224 173.44 247.552C174 246.864 174.28 245.784 174.28 244.312C174.28 242.84 173.992 241.768 173.416 241.096C172.856 240.408 171.904 240.064 170.56 240.064C169.216 240.064 168.256 240.408 167.68 241.096C167.12 241.768 166.84 242.84 166.84 244.312C166.84 245.784 167.12 246.864 167.68 247.552C168.24 248.224 169.2 248.56 170.56 248.56ZM188.192 250.24C187.472 250.24 186.808 250.112 186.2 249.856C185.592 249.6 185.104 249.224 184.736 248.728C184.368 248.216 184.184 247.576 184.184 246.808C184.184 245.768 184.528 244.92 185.216 244.264C185.904 243.592 187.024 243.256 188.576 243.256H192.536V242.56C192.536 241.936 192.448 241.44 192.272 241.072C192.112 240.704 191.8 240.44 191.336 240.28C190.872 240.12 190.192 240.04 189.296 240.04C188.608 240.04 187.944 240.096 187.304 240.208C186.664 240.32 186.064 240.472 185.504 240.664V239.032C186.016 238.84 186.616 238.688 187.304 238.576C188.008 238.448 188.76 238.384 189.56 238.384C191.176 238.384 192.384 238.712 193.184 239.368C194 240.024 194.408 241.088 194.408 242.56V250H192.752L192.608 248.704C192.112 249.216 191.512 249.6 190.808 249.856C190.104 250.112 189.232 250.24 188.192 250.24ZM188.696 248.632C189.528 248.632 190.264 248.488 190.904 248.2C191.544 247.896 192.088 247.488 192.536 246.976V244.768H188.624C187.728 244.768 187.088 244.936 186.704 245.272C186.32 245.608 186.128 246.12 186.128 246.808C186.128 247.496 186.36 247.976 186.824 248.248C187.288 248.504 187.912 248.632 188.696 248.632ZM201.225 250.24C200.489 250.24 199.785 250.192 199.113 250.096C198.457 250 197.905 249.872 197.457 249.712V247.984C198.001 248.176 198.569 248.32 199.161 248.416C199.769 248.512 200.369 248.56 200.961 248.56C201.969 248.56 202.689 248.456 203.121 248.248C203.553 248.024 203.769 247.616 203.769 247.024C203.769 246.592 203.649 246.264 203.409 246.04C203.185 245.816 202.833 245.616 202.353 245.44C201.889 245.264 201.289 245.056 200.553 244.816C199.897 244.592 199.313 244.36 198.801 244.12C198.289 243.88 197.889 243.56 197.601 243.16C197.313 242.744 197.169 242.192 197.169 241.504C197.169 240.496 197.521 239.728 198.225 239.2C198.929 238.656 200.065 238.384 201.633 238.384C202.241 238.384 202.825 238.432 203.385 238.528C203.945 238.608 204.433 238.712 204.849 238.84V240.568C203.841 240.232 202.873 240.064 201.945 240.064C200.953 240.064 200.233 240.168 199.785 240.376C199.353 240.568 199.137 240.936 199.137 241.48C199.137 241.848 199.233 242.144 199.425 242.368C199.633 242.576 199.945 242.76 200.361 242.92C200.793 243.064 201.345 243.248 202.017 243.472C202.897 243.744 203.609 244.024 204.153 244.312C204.697 244.6 205.097 244.952 205.353 245.368C205.609 245.784 205.737 246.328 205.737 247C205.737 248.12 205.345 248.944 204.561 249.472C203.777 249.984 202.665 250.24 201.225 250.24ZM211.584 250.24C210.848 250.24 210.144 250.192 209.472 250.096C208.816 250 208.264 249.872 207.816 249.712V247.984C208.36 248.176 208.928 248.32 209.52 248.416C210.128 248.512 210.728 248.56 211.32 248.56C212.328 248.56 213.048 248.456 213.48 248.248C213.912 248.024 214.128 247.616 214.128 247.024C214.128 246.592 214.008 246.264 213.768 246.04C213.544 245.816 213.192 245.616 212.712 245.44C212.248 245.264 211.648 245.056 210.912 244.816C210.256 244.592 209.672 244.36 209.16 244.12C208.648 243.88 208.248 243.56 207.96 243.16C207.672 242.744 207.528 242.192 207.528 241.504C207.528 240.496 207.88 239.728 208.584 239.2C209.288 238.656 210.424 238.384 211.992 238.384C212.6 238.384 213.184 238.432 213.744 238.528C214.304 238.608 214.792 238.712 215.208 238.84V240.568C214.2 240.232 213.232 240.064 212.304 240.064C211.312 240.064 210.592 240.168 210.144 240.376C209.712 240.568 209.496 240.936 209.496 241.48C209.496 241.848 209.592 242.144 209.784 242.368C209.992 242.576 210.304 242.76 210.72 242.92C211.152 243.064 211.704 243.248 212.376 243.472C213.256 243.744 213.968 244.024 214.512 244.312C215.056 244.6 215.456 244.952 215.712 245.368C215.968 245.784 216.096 246.328 216.096 247C216.096 248.12 215.704 248.944 214.92 249.472C214.136 249.984 213.024 250.24 211.584 250.24ZM222.985 250.24C221.625 250.24 220.593 249.864 219.889 249.112C219.201 248.36 218.857 247.264 218.857 245.824V238.624H220.825V245.896C220.825 246.84 221.057 247.536 221.521 247.984C222.001 248.432 222.737 248.656 223.729 248.656C224.433 248.656 225.097 248.528 225.721 248.272C226.345 248.016 226.881 247.664 227.329 247.216V238.624H229.297V250H227.521L227.401 248.704C226.857 249.152 226.209 249.52 225.457 249.808C224.705 250.096 223.881 250.24 222.985 250.24ZM232.664 250V238.624H234.44L234.584 240.064C235.144 239.696 235.8 239.36 236.552 239.056C237.32 238.752 238.072 238.528 238.808 238.384V239.92C238.36 240.016 237.872 240.152 237.344 240.328C236.816 240.488 236.312 240.672 235.832 240.88C235.352 241.088 234.952 241.304 234.632 241.528V250H232.664ZM246.085 250.24C244.053 250.24 242.533 249.752 241.525 248.776C240.517 247.8 240.013 246.296 240.013 244.264C240.013 242.44 240.445 241.008 241.309 239.968C242.189 238.912 243.573 238.384 245.461 238.384C246.581 238.384 247.501 238.592 248.221 239.008C248.957 239.408 249.501 239.968 249.853 240.688C250.221 241.392 250.405 242.192 250.405 243.088V245.224H241.98C242.045 246.088 242.229 246.768 242.533 247.264C242.853 247.76 243.325 248.12 243.949 248.344C244.589 248.552 245.429 248.656 246.469 248.656C247.637 248.656 248.709 248.456 249.685 248.056V249.592C249.189 249.8 248.629 249.96 248.005 250.072C247.397 250.184 246.757 250.24 246.085 250.24ZM241.98 243.808H248.653V242.872C248.653 241.944 248.405 241.232 247.909 240.736C247.429 240.224 246.629 239.968 245.509 239.968C244.149 239.968 243.221 240.288 242.725 240.928C242.229 241.568 241.98 242.528 241.98 243.808ZM262.973 250.24C261.853 250.24 261.005 249.944 260.429 249.352C259.869 248.744 259.589 247.904 259.589 246.832V240.184H257.861V238.624H259.589V235.816L261.557 235.216V238.624H264.701L264.581 240.184H261.557V246.736C261.557 247.424 261.709 247.92 262.013 248.224C262.333 248.512 262.877 248.656 263.645 248.656C264.061 248.656 264.517 248.576 265.013 248.416V249.904C264.421 250.128 263.741 250.24 262.973 250.24ZM267.282 250V233.824H269.25V239.848C269.778 239.416 270.394 239.064 271.098 238.792C271.818 238.52 272.65 238.384 273.594 238.384C274.97 238.384 276.002 238.72 276.69 239.392C277.378 240.064 277.722 241.12 277.722 242.56V250H275.754V242.632C275.754 241.64 275.53 240.952 275.082 240.568C274.65 240.168 273.93 239.968 272.922 239.968C272.282 239.968 271.618 240.112 270.93 240.4C270.258 240.672 269.698 241.032 269.25 241.48V250H267.282ZM284.146 250.24C283.426 250.24 282.762 250.112 282.154 249.856C281.546 249.6 281.058 249.224 280.69 248.728C280.322 248.216 280.138 247.576 280.138 246.808C280.138 245.768 280.482 244.92 281.17 244.264C281.858 243.592 282.978 243.256 284.53 243.256H288.49V242.56C288.49 241.936 288.402 241.44 288.226 241.072C288.066 240.704 287.754 240.44 287.29 240.28C286.826 240.12 286.146 240.04 285.25 240.04C284.562 240.04 283.898 240.096 283.258 240.208C282.618 240.32 282.018 240.472 281.458 240.664V239.032C281.97 238.84 282.57 238.688 283.258 238.576C283.962 238.448 284.714 238.384 285.514 238.384C287.13 238.384 288.338 238.712 289.138 239.368C289.954 240.024 290.362 241.088 290.362 242.56V250H288.706L288.562 248.704C288.066 249.216 287.466 249.6 286.762 249.856C286.058 250.112 285.186 250.24 284.146 250.24ZM284.65 248.632C285.482 248.632 286.218 248.488 286.858 248.2C287.498 247.896 288.042 247.488 288.49 246.976V244.768H284.578C283.682 244.768 283.042 244.936 282.658 245.272C282.274 245.608 282.082 246.12 282.082 246.808C282.082 247.496 282.314 247.976 282.778 248.248C283.242 248.504 283.866 248.632 284.65 248.632ZM297.754 250.24C296.634 250.24 295.786 249.944 295.21 249.352C294.65 248.744 294.37 247.904 294.37 246.832V240.184H292.642V238.624H294.37V235.816L296.338 235.216V238.624H299.482L299.362 240.184H296.338V246.736C296.338 247.424 296.49 247.92 296.794 248.224C297.114 248.512 297.658 248.656 298.426 248.656C298.842 248.656 299.298 248.576 299.794 248.416V249.904C299.202 250.128 298.522 250.24 297.754 250.24ZM311.746 250.24C310.626 250.24 309.778 249.944 309.202 249.352C308.642 248.744 308.362 247.904 308.362 246.832V240.184H306.634V238.624H308.362V235.816L310.33 235.216V238.624H313.474L313.354 240.184H310.33V246.736C310.33 247.424 310.482 247.92 310.786 248.224C311.106 248.512 311.65 248.656 312.418 248.656C312.834 248.656 313.29 248.576 313.786 248.416V249.904C313.194 250.128 312.514 250.24 311.746 250.24ZM316.055 250V233.824H318.023V239.848C318.551 239.416 319.167 239.064 319.871 238.792C320.591 238.52 321.423 238.384 322.367 238.384C323.743 238.384 324.775 238.72 325.463 239.392C326.151 240.064 326.495 241.12 326.495 242.56V250H324.527V242.632C324.527 241.64 324.303 240.952 323.855 240.568C323.423 240.168 322.703 239.968 321.695 239.968C321.055 239.968 320.391 240.112 319.703 240.4C319.031 240.672 318.471 241.032 318.023 241.48V250H316.055ZM334.96 250.24C332.928 250.24 331.408 249.752 330.4 248.776C329.392 247.8 328.888 246.296 328.888 244.264C328.888 242.44 329.32 241.008 330.184 239.968C331.064 238.912 332.448 238.384 334.336 238.384C335.456 238.384 336.376 238.592 337.096 239.008C337.832 239.408 338.376 239.968 338.728 240.688C339.096 241.392 339.28 242.192 339.28 243.088V245.224H330.855C330.92 246.088 331.104 246.768 331.408 247.264C331.728 247.76 332.2 248.12 332.824 248.344C333.464 248.552 334.304 248.656 335.344 248.656C336.512 248.656 337.584 248.456 338.56 248.056V249.592C338.064 249.8 337.504 249.96 336.88 250.072C336.272 250.184 335.632 250.24 334.96 250.24ZM330.855 243.808H337.528V242.872C337.528 241.944 337.28 241.232 336.784 240.736C336.304 240.224 335.504 239.968 334.384 239.968C333.024 239.968 332.096 240.288 331.6 240.928C331.104 241.568 330.855 242.528 330.855 243.808ZM352.352 250.24C350.752 250.24 349.496 249.8 348.584 248.92C347.672 248.024 347.216 246.544 347.216 244.48C347.216 242.432 347.688 240.904 348.632 239.896C349.592 238.888 350.872 238.384 352.472 238.384C353.896 238.384 355.128 238.744 356.168 239.464V233.824H358.136V250H356.456L356.312 248.8C355.784 249.296 355.2 249.664 354.56 249.904C353.936 250.128 353.2 250.24 352.352 250.24ZM352.856 248.656C353.512 248.656 354.12 248.544 354.68 248.32C355.24 248.096 355.736 247.752 356.168 247.288V241.096C355.768 240.744 355.296 240.472 354.752 240.28C354.208 240.072 353.592 239.968 352.904 239.968C351.64 239.968 350.704 240.336 350.096 241.072C349.488 241.792 349.184 242.928 349.184 244.48C349.184 245.968 349.464 247.04 350.024 247.696C350.584 248.336 351.528 248.656 352.856 248.656ZM361.5 250V238.624H363.276L363.42 240.064C363.98 239.696 364.636 239.36 365.388 239.056C366.156 238.752 366.908 238.528 367.644 238.384V239.92C367.196 240.016 366.708 240.152 366.18 240.328C365.652 240.488 365.148 240.672 364.668 240.88C364.188 241.088 363.788 241.304 363.468 241.528V250H361.5ZM372.599 250.24C371.879 250.24 371.215 250.112 370.607 249.856C369.999 249.6 369.511 249.224 369.143 248.728C368.775 248.216 368.591 247.576 368.591 246.808C368.591 245.768 368.935 244.92 369.623 244.264C370.311 243.592 371.431 243.256 372.983 243.256H376.943V242.56C376.943 241.936 376.855 241.44 376.679 241.072C376.519 240.704 376.207 240.44 375.743 240.28C375.279 240.12 374.599 240.04 373.703 240.04C373.015 240.04 372.351 240.096 371.711 240.208C371.071 240.32 370.471 240.472 369.911 240.664V239.032C370.423 238.84 371.023 238.688 371.711 238.576C372.415 238.448 373.167 238.384 373.967 238.384C375.583 238.384 376.791 238.712 377.591 239.368C378.407 240.024 378.815 241.088 378.815 242.56V250H377.159L377.015 248.704C376.519 249.216 375.919 249.6 375.215 249.856C374.511 250.112 373.639 250.24 372.599 250.24ZM373.103 248.632C373.935 248.632 374.671 248.488 375.311 248.2C375.951 247.896 376.495 247.488 376.943 246.976V244.768H373.031C372.135 244.768 371.495 244.936 371.111 245.272C370.727 245.608 370.535 246.12 370.535 246.808C370.535 247.496 370.767 247.976 371.231 248.248C371.695 248.504 372.319 248.632 373.103 248.632ZM383.942 250L380.966 238.624H382.934L385.166 247.768L387.71 239.944V238.624H389.222L392.03 247.768L394.262 238.624H396.23L393.254 250H391.286L388.622 241.744L385.91 250H383.942ZM405.729 235.96V234.16H407.913V235.96H405.729ZM405.921 250V240.184H404.169L404.361 238.624H407.889V250H405.921ZM414.858 250.24C414.122 250.24 413.418 250.192 412.746 250.096C412.09 250 411.538 249.872 411.09 249.712V247.984C411.634 248.176 412.202 248.32 412.794 248.416C413.402 248.512 414.002 248.56 414.594 248.56C415.602 248.56 416.322 248.456 416.754 248.248C417.186 248.024 417.402 247.616 417.402 247.024C417.402 246.592 417.282 246.264 417.042 246.04C416.818 245.816 416.466 245.616 415.986 245.44C415.522 245.264 414.922 245.056 414.186 244.816C413.53 244.592 412.946 244.36 412.434 244.12C411.922 243.88 411.522 243.56 411.234 243.16C410.946 242.744 410.802 242.192 410.802 241.504C410.802 240.496 411.154 239.728 411.858 239.2C412.562 238.656 413.698 238.384 415.266 238.384C415.874 238.384 416.458 238.432 417.018 238.528C417.578 238.608 418.066 238.712 418.482 238.84V240.568C417.474 240.232 416.506 240.064 415.578 240.064C414.586 240.064 413.866 240.168 413.418 240.376C412.986 240.568 412.77 240.936 412.77 241.48C412.77 241.848 412.866 242.144 413.058 242.368C413.266 242.576 413.578 242.76 413.994 242.92C414.426 243.064 414.978 243.248 415.65 243.472C416.53 243.744 417.242 244.024 417.786 244.312C418.33 244.6 418.73 244.952 418.986 245.368C419.242 245.784 419.37 246.328 419.37 247C419.37 248.12 418.978 248.944 418.194 249.472C417.41 249.984 416.298 250.24 414.858 250.24ZM428.526 250V240.184H426.822V238.624H428.526V236.968C428.526 235.88 428.822 235.024 429.414 234.4C430.022 233.76 430.91 233.44 432.078 233.44C432.494 233.44 432.87 233.472 433.206 233.536C433.558 233.6 433.878 233.688 434.166 233.8V235.288C433.67 235.112 433.142 235.024 432.582 235.024C431.766 235.024 431.214 235.176 430.926 235.48C430.638 235.768 430.494 236.264 430.494 236.968V238.624H433.566L433.47 240.184H430.494V250H428.526ZM438.481 250.24C437.761 250.24 437.097 250.112 436.489 249.856C435.881 249.6 435.393 249.224 435.025 248.728C434.657 248.216 434.473 247.576 434.473 246.808C434.473 245.768 434.817 244.92 435.505 244.264C436.193 243.592 437.313 243.256 438.865 243.256H442.825V242.56C442.825 241.936 442.737 241.44 442.561 241.072C442.401 240.704 442.089 240.44 441.625 240.28C441.161 240.12 440.481 240.04 439.585 240.04C438.897 240.04 438.233 240.096 437.593 240.208C436.953 240.32 436.353 240.472 435.793 240.664V239.032C436.305 238.84 436.905 238.688 437.593 238.576C438.297 238.448 439.049 238.384 439.849 238.384C441.465 238.384 442.673 238.712 443.473 239.368C444.289 240.024 444.697 241.088 444.697 242.56V250H443.041L442.897 248.704C442.401 249.216 441.801 249.6 441.097 249.856C440.393 250.112 439.521 250.24 438.481 250.24ZM438.985 248.632C439.817 248.632 440.553 248.488 441.193 248.2C441.833 247.896 442.377 247.488 442.825 246.976V244.768H438.913C438.017 244.768 437.377 244.936 436.993 245.272C436.609 245.608 436.417 246.12 436.417 246.808C436.417 247.496 436.649 247.976 437.113 248.248C437.577 248.504 438.201 248.632 438.985 248.632ZM449.018 235.96V234.16H451.202V235.96H449.018ZM449.21 250V240.184H447.458L447.65 238.624H451.178V250H449.21ZM454.571 250V238.624H456.347L456.491 240.064C457.051 239.696 457.707 239.36 458.459 239.056C459.227 238.752 459.979 238.528 460.715 238.384V239.92C460.267 240.016 459.779 240.152 459.251 240.328C458.723 240.488 458.219 240.672 457.739 240.88C457.259 241.088 456.859 241.304 456.539 241.528V250H454.571ZM471.927 250.24C471.207 250.24 470.543 250.112 469.935 249.856C469.327 249.6 468.839 249.224 468.471 248.728C468.103 248.216 467.919 247.576 467.919 246.808C467.919 245.768 468.263 244.92 468.951 244.264C469.639 243.592 470.759 243.256 472.311 243.256H476.271V242.56C476.271 241.936 476.183 241.44 476.007 241.072C475.847 240.704 475.535 240.44 475.071 240.28C474.607 240.12 473.927 240.04 473.031 240.04C472.343 240.04 471.679 240.096 471.039 240.208C470.399 240.32 469.799 240.472 469.239 240.664V239.032C469.751 238.84 470.351 238.688 471.039 238.576C471.743 238.448 472.495 238.384 473.295 238.384C474.911 238.384 476.119 238.712 476.919 239.368C477.735 240.024 478.143 241.088 478.143 242.56V250H476.487L476.343 248.704C475.847 249.216 475.247 249.6 474.543 249.856C473.839 250.112 472.967 250.24 471.927 250.24ZM472.431 248.632C473.263 248.632 473.999 248.488 474.639 248.2C475.279 247.896 475.823 247.488 476.271 246.976V244.768H472.359C471.463 244.768 470.823 244.936 470.439 245.272C470.055 245.608 469.863 246.12 469.863 246.808C469.863 247.496 470.095 247.976 470.559 248.248C471.023 248.504 471.647 248.632 472.431 248.632ZM481.383 250V238.624H483.159L483.279 239.92C483.823 239.472 484.455 239.104 485.175 238.816C485.911 238.528 486.751 238.384 487.695 238.384C489.135 238.384 490.183 238.72 490.839 239.392C491.495 240.064 491.823 241.12 491.823 242.56V250H489.855V242.632C489.855 241.64 489.655 240.952 489.255 240.568C488.855 240.168 488.087 239.968 486.951 239.968C486.247 239.968 485.583 240.096 484.959 240.352C484.335 240.608 483.799 240.96 483.351 241.408V250H481.383ZM499.352 250.24C497.752 250.24 496.496 249.8 495.584 248.92C494.672 248.024 494.216 246.544 494.216 244.48C494.216 242.432 494.688 240.904 495.632 239.896C496.592 238.888 497.872 238.384 499.472 238.384C500.896 238.384 502.128 238.744 503.168 239.464V233.824H505.136V250H503.456L503.312 248.8C502.784 249.296 502.2 249.664 501.56 249.904C500.936 250.128 500.2 250.24 499.352 250.24ZM499.856 248.656C500.512 248.656 501.12 248.544 501.68 248.32C502.24 248.096 502.736 247.752 503.168 247.288V241.096C502.768 240.744 502.296 240.472 501.752 240.28C501.208 240.072 500.592 239.968 499.904 239.968C498.64 239.968 497.704 240.336 497.096 241.072C496.488 241.792 496.184 242.928 496.184 244.48C496.184 245.968 496.464 247.04 497.024 247.696C497.584 248.336 498.528 248.656 499.856 248.656ZM518.184 250.24C517.064 250.24 516.216 249.944 515.64 249.352C515.08 248.744 514.8 247.904 514.8 246.832V240.184H513.072V238.624H514.8V235.816L516.768 235.216V238.624H519.912L519.792 240.184H516.768V246.736C516.768 247.424 516.92 247.92 517.224 248.224C517.544 248.512 518.088 248.656 518.856 248.656C519.272 248.656 519.728 248.576 520.224 248.416V249.904C519.632 250.128 518.952 250.24 518.184 250.24ZM522.493 250V238.624H524.269L524.413 240.064C524.973 239.696 525.629 239.36 526.381 239.056C527.149 238.752 527.901 238.528 528.637 238.384V239.92C528.189 240.016 527.701 240.152 527.173 240.328C526.645 240.488 526.141 240.672 525.661 240.88C525.181 241.088 524.781 241.304 524.461 241.528V250H522.493ZM533.591 250.24C532.871 250.24 532.207 250.112 531.599 249.856C530.991 249.6 530.503 249.224 530.135 248.728C529.767 248.216 529.583 247.576 529.583 246.808C529.583 245.768 529.927 244.92 530.615 244.264C531.303 243.592 532.423 243.256 533.975 243.256H537.935V242.56C537.935 241.936 537.847 241.44 537.671 241.072C537.511 240.704 537.199 240.44 536.735 240.28C536.271 240.12 535.591 240.04 534.695 240.04C534.007 240.04 533.343 240.096 532.703 240.208C532.063 240.32 531.463 240.472 530.903 240.664V239.032C531.415 238.84 532.015 238.688 532.703 238.576C533.407 238.448 534.159 238.384 534.959 238.384C536.575 238.384 537.783 238.712 538.583 239.368C539.399 240.024 539.807 241.088 539.807 242.56V250H538.151L538.007 248.704C537.511 249.216 536.911 249.6 536.207 249.856C535.503 250.112 534.631 250.24 533.591 250.24ZM534.095 248.632C534.927 248.632 535.663 248.488 536.303 248.2C536.943 247.896 537.487 247.488 537.935 246.976V244.768H534.023C533.127 244.768 532.487 244.936 532.103 245.272C531.719 245.608 531.527 246.12 531.527 246.808C531.527 247.496 531.759 247.976 532.223 248.248C532.687 248.504 533.311 248.632 534.095 248.632ZM543.047 250V238.624H544.823L544.943 239.92C545.487 239.472 546.119 239.104 546.839 238.816C547.575 238.528 548.415 238.384 549.359 238.384C550.799 238.384 551.847 238.72 552.503 239.392C553.159 240.064 553.487 241.12 553.487 242.56V250H551.519V242.632C551.519 241.64 551.319 240.952 550.919 240.568C550.519 240.168 549.751 239.968 548.615 239.968C547.911 239.968 547.247 240.096 546.623 240.352C545.999 240.608 545.463 240.96 545.015 241.408V250H543.047ZM560.311 250.24C559.575 250.24 558.871 250.192 558.199 250.096C557.543 250 556.991 249.872 556.543 249.712V247.984C557.087 248.176 557.655 248.32 558.247 248.416C558.855 248.512 559.455 248.56 560.047 248.56C561.055 248.56 561.775 248.456 562.207 248.248C562.639 248.024 562.855 247.616 562.855 247.024C562.855 246.592 562.735 246.264 562.495 246.04C562.271 245.816 561.919 245.616 561.439 245.44C560.975 245.264 560.375 245.056 559.639 244.816C558.983 244.592 558.399 244.36 557.887 244.12C557.375 243.88 556.975 243.56 556.687 243.16C556.399 242.744 556.255 242.192 556.255 241.504C556.255 240.496 556.607 239.728 557.311 239.2C558.015 238.656 559.151 238.384 560.719 238.384C561.327 238.384 561.911 238.432 562.471 238.528C563.031 238.608 563.519 238.712 563.935 238.84V240.568C562.927 240.232 561.959 240.064 561.031 240.064C560.039 240.064 559.319 240.168 558.871 240.376C558.439 240.568 558.223 240.936 558.223 241.48C558.223 241.848 558.319 242.144 558.511 242.368C558.719 242.576 559.031 242.76 559.447 242.92C559.879 243.064 560.431 243.248 561.103 243.472C561.983 243.744 562.695 244.024 563.239 244.312C563.783 244.6 564.183 244.952 564.439 245.368C564.695 245.784 564.823 246.328 564.823 247C564.823 248.12 564.431 248.944 563.647 249.472C562.863 249.984 561.751 250.24 560.311 250.24ZM567.703 255.184V238.624H569.383L569.527 239.824C570.055 239.328 570.631 238.968 571.255 238.744C571.895 238.504 572.639 238.384 573.487 238.384C575.087 238.384 576.343 238.832 577.255 239.728C578.167 240.608 578.623 242.08 578.623 244.144C578.623 246.192 578.167 247.72 577.255 248.728C576.343 249.736 575.079 250.24 573.463 250.24C571.975 250.24 570.711 249.88 569.671 249.16V255.184H567.703ZM572.935 248.656C574.215 248.656 575.151 248.296 575.743 247.576C576.351 246.84 576.655 245.696 576.655 244.144C576.655 242.656 576.375 241.592 575.815 240.952C575.255 240.296 574.311 239.968 572.983 239.968C572.327 239.968 571.719 240.08 571.159 240.304C570.599 240.528 570.103 240.872 569.671 241.336V247.528C570.071 247.88 570.543 248.16 571.087 248.368C571.631 248.56 572.247 248.656 572.935 248.656ZM584.919 250.24C584.199 250.24 583.535 250.112 582.927 249.856C582.319 249.6 581.831 249.224 581.463 248.728C581.095 248.216 580.911 247.576 580.911 246.808C580.911 245.768 581.255 244.92 581.943 244.264C582.631 243.592 583.751 243.256 585.303 243.256H589.263V242.56C589.263 241.936 589.175 241.44 588.999 241.072C588.839 240.704 588.527 240.44 588.063 240.28C587.599 240.12 586.919 240.04 586.023 240.04C585.335 240.04 584.671 240.096 584.031 240.208C583.391 240.32 582.791 240.472 582.231 240.664V239.032C582.743 238.84 583.343 238.688 584.031 238.576C584.735 238.448 585.487 238.384 586.287 238.384C587.903 238.384 589.111 238.712 589.911 239.368C590.727 240.024 591.135 241.088 591.135 242.56V250H589.479L589.335 248.704C588.839 249.216 588.239 249.6 587.535 249.856C586.831 250.112 585.959 250.24 584.919 250.24ZM585.423 248.632C586.255 248.632 586.991 248.488 587.631 248.2C588.271 247.896 588.815 247.488 589.263 246.976V244.768H585.351C584.455 244.768 583.815 244.936 583.431 245.272C583.047 245.608 582.855 246.12 582.855 246.808C582.855 247.496 583.087 247.976 583.551 248.248C584.015 248.504 584.639 248.632 585.423 248.632ZM594.375 250V238.624H596.151L596.295 240.064C596.855 239.696 597.511 239.36 598.263 239.056C599.031 238.752 599.783 238.528 600.519 238.384V239.92C600.071 240.016 599.583 240.152 599.055 240.328C598.527 240.488 598.023 240.672 597.543 240.88C597.063 241.088 596.663 241.304 596.343 241.528V250H594.375ZM607.795 250.24C605.763 250.24 604.243 249.752 603.235 248.776C602.227 247.8 601.723 246.296 601.723 244.264C601.723 242.44 602.155 241.008 603.019 239.968C603.899 238.912 605.283 238.384 607.171 238.384C608.291 238.384 609.211 238.592 609.931 239.008C610.667 239.408 611.211 239.968 611.563 240.688C611.931 241.392 612.115 242.192 612.115 243.088V245.224H603.691C603.755 246.088 603.939 246.768 604.243 247.264C604.563 247.76 605.035 248.12 605.659 248.344C606.299 248.552 607.139 248.656 608.179 248.656C609.347 248.656 610.419 248.456 611.395 248.056V249.592C610.899 249.8 610.339 249.96 609.715 250.072C609.107 250.184 608.467 250.24 607.795 250.24ZM603.691 243.808H610.363V242.872C610.363 241.944 610.115 241.232 609.619 240.736C609.139 240.224 608.339 239.968 607.219 239.968C605.859 239.968 604.931 240.288 604.435 240.928C603.939 241.568 603.691 242.528 603.691 243.808ZM615 250V238.624H616.776L616.896 239.92C617.44 239.472 618.072 239.104 618.792 238.816C619.528 238.528 620.368 238.384 621.312 238.384C622.752 238.384 623.8 238.72 624.456 239.392C625.112 240.064 625.44 241.12 625.44 242.56V250H623.472V242.632C623.472 241.64 623.272 240.952 622.872 240.568C622.472 240.168 621.704 239.968 620.568 239.968C619.864 239.968 619.2 240.096 618.576 240.352C617.952 240.608 617.416 240.96 616.968 241.408V250H615ZM632.84 250.24C631.72 250.24 630.872 249.944 630.296 249.352C629.736 248.744 629.456 247.904 629.456 246.832V240.184H627.728V238.624H629.456V235.816L631.424 235.216V238.624H634.568L634.448 240.184H631.424V246.736C631.424 247.424 631.576 247.92 631.88 248.224C632.2 248.512 632.744 248.656 633.512 248.656C633.928 248.656 634.384 248.576 634.88 248.416V249.904C634.288 250.128 633.608 250.24 632.84 250.24ZM636.669 250V248.344H638.445V250H636.669Z" fill="#011335" fill-opacity="0.8"/>
</g>
<defs>
<clipPath id="clip0_1_9363">
<rect width="735" height="328" rx="4" fill="white"/>
</clipPath>
</defs>
</svg>
