<svg width="28" height="28" viewBox="0 0 28 28" fill="none" xmlns="http://www.w3.org/2000/svg">
<g clip-path="url(#clip0_1_1918)">
<path d="M27.4163 14.0815C27.4163 6.6717 21.4095 0.66486 13.9997 0.66486C6.58985 0.66486 0.583008 6.6717 0.583008 14.0815C0.583008 20.7782 5.48929 26.3287 11.9033 27.3352V17.9598H8.49674V14.0815H11.9033V11.1257C11.9033 7.76312 13.9063 5.90575 16.971 5.90575C18.4389 5.90575 19.9743 6.16779 19.9743 6.16779V9.46955H18.2825C16.6158 9.46955 16.096 10.5038 16.096 11.5648V14.0815H19.8171L19.2222 17.9598H16.096V27.3352C22.5101 26.3287 27.4163 20.7782 27.4163 14.0815Z" fill="#DE1E35"/>
</g>
<defs>
<clipPath id="clip0_1_1918">
<rect width="28" height="28" fill="white"/>
</clipPath>
</defs>
</svg>
