<svg width="28" height="28" viewBox="0 0 28 28" fill="none" xmlns="http://www.w3.org/2000/svg">
<path d="M9.91725 13.702C9.91725 11.6092 11.6144 9.91216 13.7085 9.91216C15.8025 9.91216 17.5006 11.6092 17.5006 13.702C17.5006 15.7948 15.8025 17.4919 13.7085 17.4919C11.6144 17.4919 9.91725 15.7948 9.91725 13.702ZM7.8673 13.702C7.8673 16.9262 10.4824 19.5397 13.7085 19.5397C16.9345 19.5397 19.5496 16.9262 19.5496 13.702C19.5496 10.4779 16.9345 7.86435 13.7085 7.86435C10.4824 7.86435 7.8673 10.4779 7.8673 13.702ZM18.4158 7.63289C18.4157 7.90271 18.4957 8.1665 18.6456 8.39091C18.7955 8.61531 19.0086 8.79026 19.258 8.89361C19.5074 8.99697 19.7818 9.02409 20.0466 8.97156C20.3115 8.91903 20.5547 8.78919 20.7457 8.59848C20.9367 8.40776 21.0668 8.16473 21.1196 7.90012C21.1724 7.6355 21.1454 7.36119 21.0422 7.11186C20.939 6.86254 20.7641 6.64941 20.5397 6.49941C20.3153 6.34942 20.0514 6.2693 19.7814 6.2692H19.7809C19.419 6.26936 19.0719 6.41307 18.816 6.66876C18.5601 6.92445 18.4161 7.27121 18.4158 7.63289ZM9.11278 22.9558C8.00372 22.9053 7.40091 22.7207 7.00031 22.5647C6.46921 22.3581 6.09028 22.112 5.69186 21.7143C5.29345 21.3167 5.04683 20.9384 4.84098 20.4076C4.68481 20.0074 4.50008 19.4048 4.44966 18.2964C4.39451 17.098 4.3835 16.7381 4.3835 13.7021C4.3835 10.6661 4.39542 10.3072 4.44966 9.10781C4.50017 7.99941 4.68627 7.39796 4.84098 6.99661C5.04774 6.46583 5.29399 6.08712 5.69186 5.68894C6.08973 5.29077 6.4683 5.04429 7.00031 4.83857C7.40073 4.6825 8.00372 4.49787 9.11278 4.44749C10.3118 4.39237 10.672 4.38137 13.7085 4.38137C16.7449 4.38137 17.1054 4.39328 18.3055 4.44749C19.4146 4.49796 20.0164 4.68395 20.418 4.83857C20.9491 5.04429 21.328 5.29131 21.7264 5.68894C22.1248 6.08657 22.3706 6.46583 22.5773 6.99661C22.7335 7.39678 22.9182 7.99941 22.9686 9.10781C23.0238 10.3072 23.0348 10.6661 23.0348 13.7021C23.0348 16.7381 23.0238 17.097 22.9686 18.2964C22.9181 19.4048 22.7325 20.0072 22.5773 20.4076C22.3706 20.9384 22.1243 21.3171 21.7264 21.7143C21.3286 22.1116 20.9491 22.3581 20.418 22.5647C20.0176 22.7208 19.4146 22.9054 18.3055 22.9558C17.1064 23.0109 16.7463 23.0219 13.7085 23.0219C10.6707 23.0219 10.3115 23.0109 9.11278 22.9558ZM9.01859 2.40222C7.80761 2.45734 6.98011 2.64924 6.25745 2.93027C5.50903 3.22049 4.87547 3.60984 4.24236 4.24158C3.60924 4.87331 3.22066 5.5075 2.93026 6.25546C2.64906 6.97814 2.45705 7.80469 2.4019 9.01495C2.34584 10.2271 2.33301 10.6147 2.33301 13.702C2.33301 16.7894 2.34584 17.1769 2.4019 18.3891C2.45705 19.5994 2.64906 20.4259 2.93026 21.1486C3.22066 21.8961 3.60933 22.531 4.24236 23.1624C4.87538 23.7939 5.50903 24.1827 6.25745 24.4737C6.98147 24.7548 7.80761 24.9467 9.01859 25.0018C10.2321 25.0569 10.6193 25.0706 13.7085 25.0706C16.7977 25.0706 17.1854 25.0578 18.3983 25.0018C19.6094 24.9467 20.4364 24.7548 21.1595 24.4737C21.9074 24.1827 22.5415 23.7942 23.1746 23.1624C23.8077 22.5307 24.1955 21.8961 24.4867 21.1486C24.7679 20.4259 24.9608 19.5993 25.015 18.3891C25.0702 17.176 25.083 16.7894 25.083 13.702C25.083 10.6147 25.0702 10.2271 25.015 9.01495C24.9599 7.8046 24.7679 6.97769 24.4867 6.25546C24.1955 5.50795 23.8067 4.87431 23.1746 4.24158C22.5425 3.60884 21.9074 3.22049 21.1604 2.93027C20.4364 2.64924 19.6093 2.45643 18.3992 2.40222C17.1863 2.34711 16.7986 2.33337 13.7094 2.33337C10.6202 2.33337 10.2321 2.3462 9.01859 2.40222Z" fill="#DE1E35"/>
</svg>
