<svg width="100" height="100" viewBox="0 0 100 100" fill="none" xmlns="http://www.w3.org/2000/svg">
<g clip-path="url(#clip0_1_9051)">
<path d="M7.42188 7.42188V44.1406H92.5781V7.42188H7.42188ZM40.9062 37.3047V14.2578L60.8652 25.7812L40.9062 37.3047Z" fill="white"/>
<path d="M0 0V51.5625H100V0H0ZM96.875 48.4375H3.125V3.125H96.875V48.4375Z" fill="#011335"/>
<path d="M11.0332 87.4043C4.94238 87.4107 0.00644531 92.3467 0 98.4375V100H22.0703V98.4375C22.0639 92.3451 17.1256 87.4086 11.0332 87.4043ZM3.2793 96.875C4.14336 92.5926 8.31523 89.8215 12.5977 90.6855C15.7184 91.3152 18.1574 93.7543 18.7871 96.875H3.2793Z" fill="#011335"/>
<path d="M11.0332 86.3633C15.4184 86.359 18.9723 82.8051 18.9766 78.4199V73.3945C18.9766 69.0076 15.4201 65.4512 11.0332 65.4512C6.64629 65.4512 3.08984 69.0076 3.08984 73.3945V78.4199C3.09531 82.8047 6.64844 86.3578 11.0332 86.3633ZM6.21484 73.3945C6.21484 70.7334 8.37207 68.5762 11.0332 68.5762C13.6943 68.5762 15.8516 70.7334 15.8516 73.3945V78.4199C15.8516 81.0811 13.6943 83.2383 11.0332 83.2383C8.37207 83.2383 6.21484 81.0811 6.21484 78.4199V73.3945Z" fill="#011335"/>
<path d="M37.0117 87.4043C30.9201 87.4098 25.983 92.3459 25.9766 98.4375V100H48.0469V98.4375C48.0404 92.3459 43.1033 87.4098 37.0117 87.4043ZM29.2578 96.875C30.1191 92.5932 34.2883 89.8203 38.5701 90.6814C41.6938 91.3098 44.1354 93.7514 44.7637 96.875H29.2578Z" fill="#011335"/>
<path d="M37.0117 86.3633C41.3965 86.3578 44.9496 82.8047 44.9551 78.4199V73.3945C44.9551 69.0076 41.3986 65.4512 37.0117 65.4512C32.6248 65.4512 29.0684 69.0076 29.0684 73.3945V78.4199C29.0727 82.8051 32.6266 86.359 37.0117 86.3633ZM32.1934 73.3945C32.1943 70.7334 34.3523 68.577 37.0135 68.5779C39.6732 68.5789 41.8291 70.7348 41.8301 73.3945V78.4199C41.8311 81.0811 39.6746 83.2391 37.0135 83.24C34.3523 83.241 32.1943 81.0846 32.1934 78.4234C32.1934 78.4223 32.1934 78.4211 32.1934 78.4199V73.3945Z" fill="#011335"/>
<path d="M62.9883 87.4043C56.8967 87.4098 51.9596 92.3459 51.9531 98.4375V100H74.0234V98.4375C74.017 92.3459 69.0799 87.4098 62.9883 87.4043ZM55.2363 96.875C56.0977 92.5932 60.2668 89.8203 64.5486 90.6814C67.6723 91.3098 70.1139 93.7514 70.7422 96.875H55.2363Z" fill="#011335"/>
<path d="M62.9883 86.3633C67.3734 86.359 70.9273 82.8051 70.9316 78.4199V73.3945C70.9316 69.0076 67.3752 65.4512 62.9883 65.4512C58.6014 65.4512 55.0449 69.0076 55.0449 73.3945V78.4199C55.0504 82.8047 58.6035 86.3578 62.9883 86.3633ZM58.1699 73.3945C58.1709 70.7334 60.3289 68.577 62.99 68.5779C65.6498 68.5789 67.8057 70.7348 67.8066 73.3945V78.4199C67.8057 81.0811 65.6477 83.2375 62.9865 83.2365C60.3268 83.2355 58.1709 81.0797 58.1699 78.4199V73.3945Z" fill="#011335"/>
<path d="M88.9668 87.4043C82.8744 87.4086 77.9361 92.3451 77.9297 98.4375V100H100V98.4375C99.9936 92.3467 95.0576 87.4107 88.9668 87.4043ZM81.2129 96.875C82.077 92.5926 86.2488 89.8215 90.5312 90.6855C93.652 91.3152 96.091 93.7543 96.7207 96.875H81.2129Z" fill="#011335"/>
<path d="M88.9668 86.3633C93.3516 86.3578 96.9047 82.8047 96.9102 78.4199V73.3945C96.9102 69.0076 93.3537 65.4512 88.9668 65.4512C84.5799 65.4512 81.0234 69.0076 81.0234 73.3945V78.4199C81.0277 82.8051 84.5816 86.359 88.9668 86.3633ZM84.1484 73.3945C84.1494 70.7334 86.3074 68.577 88.9686 68.5779C91.6283 68.5789 93.7842 70.7348 93.7852 73.3945V78.4199C93.7842 81.0811 91.6262 83.2375 88.965 83.2365C86.3053 83.2355 84.1494 81.0797 84.1484 78.4199V73.3945Z" fill="#011335"/>
<path d="M39.3438 11.5508V40.0117L63.9902 25.7812L39.3438 11.5508ZM42.4688 16.9648L57.7402 25.7812L42.4688 34.5977V16.9648Z" fill="#011335"/>
</g>
<defs>
<clipPath id="clip0_1_9051">
<rect width="100" height="100" fill="white"/>
</clipPath>
</defs>
</svg>
