<svg width="811" height="381" viewBox="0 0 811 381" fill="none" xmlns="http://www.w3.org/2000/svg">
<path fill-rule="evenodd" clip-rule="evenodd" d="M295 320.969V329H342V257.363L295 320.969ZM346.845 250.807L402.5 329H442.75V168H408.032L395.75 184.622V253.25L370.854 218.314L346.845 250.807ZM490.166 168V329H612.166V293H537.166V266.75H602.916V230.25H537.166V204H612.166V168H490.166ZM705.129 270V329H752.129V270L810.129 168H761.129L728.629 228.75L696.129 168H647.129L705.129 270Z" fill="white"/>
<path fill-rule="evenodd" clip-rule="evenodd" d="M483.519 60.9792C478.894 56.3077 473.503 52.5647 467.346 49.75C455.679 44.25 441.596 41.5 425.096 41.5H353.096V202.5H378.946L405.548 166.5H400.096V77.5H419.096C427.429 77.5 434.262 78.8333 439.596 81.5C444.929 84 448.846 88.5833 451.346 95.25C452.139 97.1831 452.814 99.3595 453.371 101.779L483.519 60.9792ZM27 202.5C36.6667 204.167 46.9167 205 57.75 205C80.75 205 97.9167 200.583 109.25 191.75C120.583 182.75 126.25 170.917 126.25 156.25C126.25 147.917 125 140.5 122.5 134C120 127.333 115.25 121.5 108.25 116.5C101.417 111.5 91.4167 107.25 78.25 103.75C66.9167 100.75 59 98.3333 54.5 96.5C50.1667 94.5 48 91.4167 48 87.25C48 82.4167 50.5833 79.4167 55.75 78.25C60.9167 77.0833 67.1667 76.5 74.5 76.5C80.8333 76.5 87.5833 77.1667 94.75 78.5C101.917 79.8333 109.417 82.0833 117.25 85.25V46.25C111.417 44.4167 103.75 42.75 94.25 41.25C84.9167 39.75 75.8333 39 67 39C44.8333 39 28.0833 43.1667 16.75 51.5C5.58333 59.6667 0 71.6667 0 87.5C0 96.1667 1.33333 103.5 4 109.5C6.83333 115.5 11.4167 120.583 17.75 124.75C24.0833 128.917 32.6667 132.75 43.5 136.25C51.6667 138.75 58.25 140.833 63.25 142.5C68.4167 144.167 72.1667 146 74.5 148C77 150 78.25 152.75 78.25 156.25C78.25 161.25 76.0833 164.5 71.75 166C67.5833 167.333 61.3333 168 53 168C45 168 36.4167 166.917 27.25 164.75C18.0833 162.583 9.75 159.75 2.25 156.25V195C9.08333 198.167 17.3333 200.667 27 202.5ZM210.441 143.5V202.5H257.441V143.5L315.441 41.5H266.441L233.941 102.25L201.441 41.5H152.441L210.441 143.5Z" fill="#DE1E35"/>
<path d="M250.364 379.767L528.723 0.908281" stroke="white" stroke-width="3"/>
</svg>
