<svg width="100" height="100" viewBox="0 0 100 100" fill="none" xmlns="http://www.w3.org/2000/svg">
<path d="M7.42188 35.5684V79.8828H92.5781V35.5684H7.42188ZM40.0195 69.25V46.2031L59.9805 57.7266L40.0195 69.25Z" fill="#DE1E35"/>
<path d="M0 12.6953V87.3047H100V12.6953H0ZM96.875 84.1797H3.125V31.2715H96.875V84.1797ZM3.125 28.1465V15.8203H96.875V28.1465H3.125Z" fill="#011335"/>
<path d="M14.2578 19.8359H9.96094V24.1328H14.2578V19.8359Z" fill="#011335"/>
<path d="M24.709 19.8359H20.4121V24.1328H24.709V19.8359Z" fill="#011335"/>
<path d="M35.1602 19.8359H30.8633V24.1328H35.1602V19.8359Z" fill="#011335"/>
<path d="M38.457 43.4961V71.9551L63.1055 57.7266L38.457 43.4961ZM41.582 48.9082L56.8555 57.7266L41.582 66.543V48.9082Z" fill="#011335"/>
</svg>
